<?xml version="1.0" encoding="utf-8" ?>
<svg baseProfile="full" height="200mm" version="1.1" viewBox="0,0,200,200" width="200mm" xmlns="http://www.w3.org/2000/svg" xmlns:ev="http://www.w3.org/2001/xml-events" xmlns:xlink="http://www.w3.org/1999/xlink"><defs /><rect fill="#1a1a1a" height="200" width="200" x="0" y="0" /><rect fill="#1a1a1a" height="200" width="180" x="10" y="0" /><text alignment-baseline="middle" fill="#e1ed5e" style="dominant-baseline: central; font-size:9.0px; font-family:Arial;" text-anchor="middle" x="100.0" y="100.0">2015</text><line stroke="#e1ed5e" stroke-width="0.3" x1="100.0" x2="100.0" y1="15.0" y2="10.0" /><path d="M 100.0 14.0 a86.0,86.0 0 0,1 42.46469731375804,11.215312516191453" fill="none" id="id13" stroke="none" /><text fill="#e1ed5e" style="font-size:6.75px; font-family:Arial;" text-anchor="middle"><textPath startOffset="22.20632615414155" xlink:href="#id13">January</textPath></text><line stroke="#e1ed5e" stroke-width="0.3" x1="143.23703022742887" x2="145.7803849466894" y1="26.81831364943548" y2="22.513508569990506" /><path d="M 143.74570117128098 25.957352633546492 a86.0,86.0 0 0,1 28.547481713284135,27.462654790039103" fill="none" id="id14" stroke="none" /><text fill="#e1ed5e" style="font-size:6.75px; font-family:Arial;" text-anchor="middle"><textPath startOffset="19.985693538727396" xlink:href="#id14">February</textPath></text><path d="M 117.65298651832404 88.62581576622439 l 14.96960147086471 -9.645223761943857 a38.80784404734277,38.80784404734277 0 0,0 0.35698116757796583,0.5646584778955154 l -15.13341023468863 9.386117636334134" fill="#ff960d" stroke="none" /><line stroke="#e1ed5e" stroke-width="0.3" x1="172.23445277983987" x2="176.4835382374775" y1="55.19839476539836" y2="52.563006222186495" /><path d="M 173.08426987136738 54.67131705675599 a86.0,86.0 0 0,1 12.851231095245387,41.99856678651699" fill="none" id="id15" stroke="none" /><text fill="#e1ed5e" style="font-size:6.75px; font-family:Arial;" text-anchor="middle"><textPath startOffset="22.20632615414155" xlink:href="#id15">March</textPath></text><path d="M 118.73160827565052 90.50648371742162 l 27.112796661692336 -13.74125343570235 a51.39614759805059,51.39614759805059 0 0,0 0.39315602306645575,0.7925785517962578 l -27.3453126977122 13.27251529540714" fill="#b8ff1f" stroke="none" /><line stroke="#e1ed5e" stroke-width="0.3" x1="184.98032266829074" x2="189.97916517819016" y1="98.17113171792111" y2="98.06355123074" /><path d="M 185.9800911702706 98.14961562048488 a86.0,86.0 0 0,1 -9.607161424134198,41.387399972396054" fill="none" id="id16" stroke="none" /><text fill="#e1ed5e" style="font-size:6.75px; font-family:Arial;" text-anchor="middle"><textPath startOffset="21.466115282336823" xlink:href="#id16">April</textPath></text><path d="M 118.97047184881838 109.00673069616215 l 13.57738110507214 6.446218952648892 a36.02993734045022,36.02993734045022 0 0,0 -0.27081944159837945,0.5579682637615964 l -13.464408406859047 -6.678976172375764" fill="#ff6c0a" stroke="none" /><line stroke="#e1ed5e" stroke-width="0.3" x1="174.80103733775053" x2="179.2010983576182" y1="140.37084112569926" y2="142.7455964860345" /><path d="M 175.68104954172406 140.8457921977663 a86.0,86.0 0 0,1 -30.038265399797805,32.042727171017184" fill="none" id="id17" stroke="none" /><text fill="#e1ed5e" style="font-size:6.75px; font-family:Arial;" text-anchor="middle"><textPath startOffset="22.206326154141568" xlink:href="#id17">May</textPath></text><path d="M 118.12598468904814 110.60418214915192 l 27.29624382623193 15.96902714454557 a52.624274773729404,52.624274773729404 0 0,0 -0.46414390907647773,0.777931889119946 l -27.017319041457224 -16.43652112755162" fill="#a9ff21" stroke="none" /><path d="M 117.14729908036423 112.12312394758627 l 14.361708605484921 10.15371416264536 a38.58853562311441,38.58853562311441 0 0,0 -0.3881275479159844,0.5390752174606506 l -14.184801265193334 -10.399422985557141" fill="#ff930d" stroke="none" /><path d="M 113.20401910651253 116.32954008644616 l 10.92112418092612 13.506261514990511 a38.36922719888605,38.36922719888605 0 0,0 -0.517148679470015,0.41085418775531285 l -10.687018008738754 -13.69224961675095" fill="#ff900d" stroke="none" /><path d="M 111.1453310114006 117.79835938074945 l 8.209626509674054 13.110232693083953 a36.468554188906936,36.468554188906936 0 0,0 -0.5349082494561461,0.32858433574454543 l -7.982739060285599 -13.249605495656876" fill="#ff730a" stroke="none" /><line stroke="#e1ed5e" stroke-width="0.3" x1="143.8653032363475" x2="146.44561519142675" y1="172.8068346515853" y2="177.08958963109032" /><path d="M 144.38136562736335 173.6633856474863 a86.0,86.0 0 0,1 -40.68145358897372,12.25698825130547" fill="none" id="id18" stroke="none" /><text fill="#e1ed5e" style="font-size:6.75px; font-family:Arial;" text-anchor="middle"><textPath startOffset="21.466115282336833" xlink:href="#id18">June</textPath></text><path d="M 106.91757812671514 119.82793768551818 l 10.696640301300294 30.65990921295142 a53.47226734741239,53.47226734741239 0 0,0 -0.8716750267376991,0.29571949588159524 l -10.167295541625368 -30.839491695731137" fill="#9eff22" stroke="none" /><path d="M 106.2309692047433 120.05430185196036 l 2.8024178043148127 9.019549080784214 a30.444882803434673,30.444882803434673 0 0,0 -0.5017969446905974,0.15118730313217274 l -2.6467458851839694 -9.066451753022113" fill="#ff1302" stroke="none" /><path d="M 105.88484417918355 120.15858648285463 l 5.428697055524394 18.59605042222027 a40.37224414017173,40.37224414017173 0 0,0 -0.6687735909541531,0.1890020970024851 l -5.107792296465635 -18.686741312561274" fill="#ffae10" stroke="none" /><path d="M 105.18746579009965 120.34920634021253 l 2.0405557006773996 8.004619342460023 a29.260617312601532,29.260617312601532 0 0,0 -0.4891354092368903,0.12021758298504623 l -1.9024670066972982 -8.038558183759099" fill="#ff0000" stroke="none" /><line stroke="#e1ed5e" stroke-width="0.3" x1="102.19456741930631" x2="102.32365962044197" y1="184.97166512339345" y2="189.96999836594603" /><path d="M 102.22038585953345 185.97133177190398 a86.0,86.0 0 0,1 -42.740103519485714,-10.115201625700543" fill="none" id="id19" stroke="none" /><text fill="#e1ed5e" style="font-size:6.75px; font-family:Arial;" text-anchor="middle"><textPath startOffset="22.20632615414155" xlink:href="#id19">July</textPath></text><path d="M 99.09653310690486 120.98055641714683 l -1.3863362954618348 32.193882346292604 a53.22371779995358,53.22371779995358 0 0,0 -0.9149712937703149,-0.047293564713388976 l 1.9402956576456387 -32.16524897481701" fill="#a1ff22" stroke="none" /><line stroke="#e1ed5e" stroke-width="0.3" x1="58.666819895761336" x2="56.23545636021788" y1="174.27360380694188" y2="178.64263932499728" /><path d="M 58.180547188652646 175.14741091055294 a86.0,86.0 0 0,1 -31.652253787137756,-30.449443065178592" fill="none" id="id20" stroke="none" /><text fill="#e1ed5e" style="font-size:6.75px; font-family:Arial;" text-anchor="middle"><textPath startOffset="22.20632615414155" xlink:href="#id20">August</textPath></text><path d="M 85.70375840098266 115.38237550388516 l -21.509058780791225 23.14317484142202 a52.595033650498955,52.595033650498955 0 0,0 -0.6578490775712006,-0.6220373637126746 l 21.904243692753244 -22.769502840963415" fill="#a9ff21" stroke="none" /><line stroke="#e1ed5e" stroke-width="0.3" x1="26.63291911575756" x2="22.317208475507996" y1="142.92168965132927" y2="145.44649492493687" /><path d="M 25.769776987707644 143.4266507060508 a86.0,86.0 0 0,1 -11.730757126820373,-40.83630448921669" fill="none" id="id21" stroke="none" /><text fill="#e1ed5e" style="font-size:6.75px; font-family:Arial;" text-anchor="middle"><textPath startOffset="21.46611528233685" xlink:href="#id21">September</textPath></text><path d="M 81.51974371655577 109.97397251340807 l -12.994935376847542 7.0134919275067205 a35.76676723137619,35.76676723137619 0 0,0 -0.28774788631644493,-0.5443105602884475 l 13.113735771388873 -6.788766352132146" fill="#ff6809" stroke="none" /><path d="M 80.0844068197444 106.66101706037122 l -29.492086350246236 9.863993934144533 a52.09793455558135,52.09793455558135 0 0,0 -0.27713061885270246,-0.852920343290156 l 29.657509220115188 -9.354874690876574" fill="#afff20" stroke="none" /><path d="M 79.4281124754447 104.21870165774334 l -30.650155002934554 6.285464061896554 a52.28800185657926,52.28800185657926 0 0,0 -0.17322284732050933,-0.8832595665555611 l 30.753807783230727 -5.756940768273038" fill="#adff20" stroke="none" /><path d="M 79.10278846688536 102.07522291339032 l -61.73140069738137 6.130311548977793 a83.03504293339522,83.03504293339522 0 0,0 -0.1290024666120191,-1.423531469461483 l 61.827777760270465 -5.066798690967744" fill="#4cdcff" stroke="none" /><line stroke="#e1ed5e" stroke-width="0.3" x1="15.007084014347285" x2="10.007500721073583" y1="101.09737516637583" y2="101.16192664675087" /><path d="M 14.007167355692545 101.11028546245083 a86.0,86.0 0 0,1 10.666146001902534,-42.60595125391555" fill="none" id="id22" stroke="none" /><text fill="#e1ed5e" style="font-size:6.75px; font-family:Arial;" text-anchor="middle"><textPath startOffset="22.20632615414155" xlink:href="#id22">October</textPath></text><path d="M 80.52162464483688 92.15188598940014 l -25.77980381770604 -10.387049014261075 a48.79368763054073,48.79368763054073 0 0,0 0.32059384332684343,-0.776343420891494 l 25.597188287492997 10.82926700560588" fill="#daff1b" stroke="none" /><path d="M 81.6062741919709 89.86733742301443 l -28.186069043958277 -15.527029704301631 a53.17985611510792,53.17985611510792 0 0,0 0.44859072133139866,-0.7979928381507614 l 27.914620681334448 16.009906052387176" fill="#a2ff22" stroke="none" /><line stroke="#e1ed5e" stroke-width="0.3" x1="26.266209847984243" x2="21.928928074336255" y1="57.711370442889674" y2="55.22380399835377" /><path d="M 25.398753493254645 57.213857153982495 a86.0,86.0 0 0,1 29.58750427330803,-30.492523968695096" fill="none" id="id23" stroke="none" /><text fill="#e1ed5e" style="font-size:6.75px; font-family:Arial;" text-anchor="middle"><textPath startOffset="21.46611528233685" xlink:href="#id23">November</textPath></text><path d="M 83.17141714833178 87.43820079747576 l -50.48574855500465 -37.6853976075727 a84.0,84.0 0 0,0 0.8748962391035646,-1.1512608964758937 l 49.82957637567698 38.54884327992962" fill="#4dd2ff" stroke="none" /><path d="M 88.09926311788651 82.69761687909137 l -9.29301449545961 -13.511037067819295 a37.39842190763518,37.39842190763518 0 0,0 0.5335424590538633,-0.3602502500353913 l 9.059067341999206 13.668999230153352" fill="#ff810b" stroke="none" /><line stroke="#e1ed5e" stroke-width="0.3" x1="56.762969772571076" x2="54.21961505331055" y1="26.818313649435495" y2="22.513508569990535" /><path d="M 56.25429882871897 25.957352633546506 a86.0,86.0 0 0,1 42.265352541879196,-11.944610805530505" fill="none" id="id24" stroke="none" /><text fill="#e1ed5e" style="font-size:6.75px; font-family:Arial;" text-anchor="middle"><textPath startOffset="22.20632615414155" xlink:href="#id24">December</textPath></text><path d="M 89.94658935756843 81.56283822128135 l -10.529133647767335 -19.309600230025385 a42.99371083778139,42.99371083778139 0 0,0 0.6527979842264896,-0.3487020753479268 l 10.195190617012539 19.487981031875062" fill="#ffd413" stroke="none" /><path d="M 92.91201910852362 80.23233633223022 l -10.90585131364317 -30.415319126784333 a53.31144116964493,53.31144116964493 0 0,0 0.8664835362152987,-0.3022990919352975 l 10.380685773364586 30.59853907189184" fill="#a0ff22" stroke="none" /><path d="M 97.83486435360386 79.11191278185805 l -3.21197797772632 -30.98747011679057 a52.153492689719194,52.153492689719194 0 0,0 0.8937491215958564,-0.08487224830012692 l 2.6781037290402274 31.038167909605875" fill="#afff20" stroke="none" /></svg>