<?xml version="1.0" encoding="utf-8" ?>
<svg baseProfile="full" height="200mm" version="1.1" viewBox="0,0,200,200" width="200mm" xmlns="http://www.w3.org/2000/svg" xmlns:ev="http://www.w3.org/2001/xml-events" xmlns:xlink="http://www.w3.org/1999/xlink"><defs /><rect fill="#1a1a1a" height="200" width="200" x="0" y="0" /><rect fill="#1a1a1a" height="200" width="180" x="10" y="0" /><text alignment-baseline="middle" fill="#e1ed5e" style="dominant-baseline: central; font-size:9.0px; font-family:Arial;" text-anchor="middle" x="100.0" y="100.0">2025</text><line stroke="#e1ed5e" stroke-width="0.3" x1="100.0" x2="100.0" y1="15.0" y2="10.0" /><path d="M 100.0 14.0 a86.0,86.0 0 0,1 42.46469731375804,11.215312516191453" fill="none" id="id133" stroke="none" /><text fill="#e1ed5e" style="font-size:6.75px; font-family:Arial;" text-anchor="middle"><textPath startOffset="22.20632615414155" xlink:href="#id133">January</textPath></text><path d="M 100.0 79.0 l 0.0 -31.16678341560116 a52.16678341560116,52.16678341560116 0 0,0 0.8979654224370329,0.007729071888717056 l -0.5364849431645046 31.162165720321003" fill="#86ff25" stroke="none" /><path d="M 100.72285384407766 79.0124445844662 l 0.40367933474817685 -11.720546937041615 a32.7274966428773,32.7274966428773 0 0,0 0.5628493069296434,0.024237475141358353 l -0.6053694740671518 11.711861735376061" fill="#ff890c" stroke="none" /><path d="M 101.08401301168833 79.027996857942 l 1.2636901393657114 -24.448150794877346 a45.480788182928094,45.480788182928094 0 0,0 0.781485448813684,0.04714133641663072 l -1.6843376370190073 24.42277618908041" fill="#d3ff1c" stroke="none" /><path d="M 101.44485096284872 79.0497635885617 l 1.0349960448390343 -15.007369190196346 a36.04301654667996,36.04301654667996 0 0,0 0.6185836556380442,0.04801399703953365 l -1.2931698898394197 14.987329930968349" fill="#ffb510" stroke="none" /><path d="M 102.16513564639614 79.11191278185805 l 2.303830548569428 -22.226142511873608 a43.3452242359444,43.3452242359444 0 0,0 0.741478466161355,0.08331374513747146 l -2.686075718240508 22.183192813265535" fill="#ecff1a" stroke="none" /><path d="M 102.52436894288641 79.15227682838746 l 1.6404029271665468 -13.547412002449896 a34.646365586762656,34.646365586762656 0 0,0 0.5914386558850966,0.07678571193696584 l -1.8733563115594893 13.517167967348794" fill="#ffa30f" stroke="none" /><path d="M 102.88285421437855 79.19881850522331 l 2.3137719893826225 -16.69497918022655 a37.854550443338724,37.854550443338724 0 0,0 0.6446648319269576,0.09500683847479947 l -2.6008058017382356 16.65267785759078" fill="#ffcd13" stroke="none" /><path d="M 103.59715602781102 79.31037775812273 l 3.0865119464854383 -17.752570565220907 a39.018887803328624,39.018887803328624 0 0,0 0.6607288986667702,0.12074398295851665 l -3.391635966255109 17.696811100911653" fill="#ffdc14" stroke="none" /><path d="M 103.95276090670814 79.375362276772 l 4.203964241194382 -21.93536151627437 a43.334578576523256,43.334578576523256 0 0,0 0.7313919180526727,0.1467103381834364 l -4.580922568714179 21.859747222013723" fill="#edff1a" stroke="none" /><path d="M 104.307194497241 79.44645832069477 l 3.9278962865272655 -18.743565002425544 a40.15070751272303,40.15070751272303 0 0,0 0.6752149756429402,0.14757584104204483 l -4.2499539863237334 18.67317566328763" fill="#ffea16" stroke="none" /><path d="M 104.66035177308747 79.52364482259891 l 4.177486338006015 -18.354771950848225 a39.82416121562583,39.82416121562583 0 0,0 0.6671046001068057,0.1578821055600916 l -4.4928146250753445 18.280143933147265" fill="#ffe615" stroke="none" /><path d="M 105.01212808612495 79.60689891045804 l 3.7661517512227958 -15.32353364908146 a36.77956217731564,36.77956217731564 0 0,0 0.6135025575604817,0.15639546212643418 l -4.029363197468303 15.256435190786158" fill="#ffbf11" stroke="none" /><path d="M 105.71112130821622 79.79150937346287 l 2.5910591842801693 -9.168321317741896 a30.527418510898066,30.527418510898066 0 0,0 0.5044434690920265,0.14726088137867038 l -2.748492871095623 9.122362107444522" fill="#ff6b09" stroke="none" /><path d="M 106.0581310904928 79.89281104454417 l 13.974148780996202 -46.38078077777075 a69.44020705683499,69.44020705683499 0 0,0 1.1415131046674212,0.3546736782212364 l -14.770447258374341 46.133366964667" fill="#3bff98" stroke="none" /><path d="M 106.40334571778207 80.00007090966166 l 4.675355727666021 -14.602800964776838 a36.33299537589139,36.33299537589139 0 0,0 0.5939876872347776,0.195828401576359 l -4.926026237143216 14.520158838941242" fill="#ffb911" stroke="none" /><path d="M 106.74666289553966 80.11325718540242 l 2.6622845694621047 -7.847460196531669 a29.286759961827354,29.286759961827354 0 0,0 0.47600467703099375,0.16606868521927404 l -2.796971250556372 7.8004706581401875" fill="#ff5908" stroke="none" /><path d="M 107.08798089147638 80.2323363322302 l 6.908549342229721 -19.267247178052642 a41.468387035479864,41.468387035479864 0 0,0 0.6698480859113392,0.24671070312168686 l -7.239179753913636 19.14547320712463" fill="#fffa17" stroke="none" /><path d="M 107.4271985657038 80.35727306442388 l 2.900834585869588 -7.671843044378317 a29.201952023277943,29.201952023277943 0 0,0 0.4686452117484144,0.18182706131818094 l -3.0324629626176693 7.6207732791695895" fill="#ff5808" stroke="none" /><path d="M 107.76421540070413 80.48803036053334 l 7.485791535045185 -18.81227266646051 a41.24694243048593,41.24694243048593 0 0,0 0.6574293791258478,0.26818195081407004 l -7.80850478375942 18.680629829462863" fill="#fff817" stroke="none" /><path d="M 108.09893153111575 80.62456947434976 l 9.648905857644 -23.083502357695025 a46.018982100544946,46.018982100544946 0 0,0 0.7282312000937068,0.3117905950446388 l -10.044820815528022 22.913992234687594" fill="#ccff1d" stroke="none" /><path d="M 108.43124777332544 80.76684994638697 l 8.717708412068918 -19.886616847322763 a42.71349740576305,42.71349740576305 0 0,0 0.6708416774877832,0.3009871061232293 l -9.058732208023482 19.733609410683002" fill="#f4ff19" stroke="none" /><path d="M 109.08828744355905 81.06846463323043 l 6.44236696228427 -13.41989882578255 a35.88616057185236,35.88616057185236 0 0,0 0.5545757248687354,0.27212789969715884 l -6.672413954163437 13.30701576595056" fill="#ffb310" stroke="none" /><path d="M 109.41281617654863 81.2277094730956 l 10.177388843732125 -20.29710307695268 a43.70576219801848,43.70576219801848 0 0,0 0.6696128866262984,0.3430017284356096 l -10.525262217947178 20.11890882320457" fill="#e8ff1a" stroke="none" /><path d="M 109.73455568895987 81.39251694778311 l 7.592791106680699 -14.513526487584382 a37.379649809916664,37.379649809916664 0 0,0 0.5675565000442382,0.30316902659730816 l -7.8414926532532485 14.38067873448532" fill="#ffc712" stroke="none" /><path d="M 110.05341064243156 81.56283822128135 l 10.267539420601457 -18.82985706045072 a42.447281475063704,42.447281475063704 0 0,0 0.6384797001119751,0.35531326184501016 l -10.590143209785468 18.650328401045527" fill="#f7ff18" stroke="none" /><path d="M 110.36928655335952 81.73862282372117 l 6.468958441987768 -11.392499323739719 a34.10101004371704,34.10101004371704 0 0,0 0.5079479699003498,0.2942362499391282 l -6.664103144353446 11.27945891641054" fill="#ff9b0e" stroke="none" /><line stroke="#e1ed5e" stroke-width="0.3" x1="143.23703022742887" x2="145.7803849466894" y1="26.81831364943548" y2="22.513508569990506" /><path d="M 143.74570117128098 25.957352633546492 a86.0,86.0 0 0,1 28.547481713284135,27.462654790039103" fill="none" id="id134" stroke="none" /><text fill="#e1ed5e" style="font-size:6.75px; font-family:Arial;" text-anchor="middle"><textPath startOffset="19.985693538727396" xlink:href="#id134">February</textPath></text><path d="M 110.68208982089419 81.91981866633111 l 11.495163268366332 -19.456364797239214 a43.598427150791885,43.598427150791885 0 0,0 0.6428441380539073,0.38730640034532476 l -11.828369472637876 19.255611787435274" fill="#e9ff1a" stroke="none" /><path d="M 111.2981086023043 82.29822771554956 l 8.639240061028584 -13.535881593476548 a37.057912670851664,37.057912670851664 0 0,0 0.5347509283273614,0.34781687884891055 l -8.870958015140227 13.38516579046811" fill="#ffc212" stroke="none" /><path d="M 111.60114157652 82.49532879139004 l 12.483618089850841 -18.83621785971208 a43.59742958550347,43.59742958550347 0 0,0 0.6219802495122946,0.4199638409307086 l -12.806003033769679 18.6185421064827" fill="#e9ff1a" stroke="none" /><path d="M 111.90073688211348 82.69761687909136 l 8.439008703341225 -12.26940509586002 a35.89144617897754,35.89144617897754 0 0,0 0.5060161699478384,0.3544966644115414 l -8.648956012872713 12.122323588684543" fill="#ffb310" stroke="none" /><path d="M 112.48926042617603 83.11751280151076 l 10.290481018600332 -13.910264349897068 a38.3028741507933,38.3028741507933 0 0,0 0.5266715349119132,0.3966780810496594 l -10.528398707270627 13.73106967934156" fill="#ffd313" stroke="none" /><path d="M 113.06298171725822 83.55741782278167 l 28.29757622333937 -35.61860779868069 a66.4910765055295,66.4910765055295 0 0,0 0.8900197919758455,0.7196674417167208 l -28.906499413879708 35.12623425969984" fill="#37ff76" stroke="none" /><path d="M 113.34407831869373 83.78471172551755 l 10.522513349938956 -12.786614651558267 a37.55961356575352,37.55961356575352 0 0,0 0.49568399116555617,0.4151210874927045 l -10.74105487806363 12.603592406671742" fill="#ffc912" stroke="none" /><path d="M 113.6212207817346 84.01681056812373 l 13.294383102753356 -15.599676924418997 a41.4961104170773,41.4961104170773 0 0,0 0.5396592898544009,0.4679872182707881 l -13.560936191254521 15.368524712728538" fill="#fffb17" stroke="none" /><path d="M 113.89432698308785 84.25364557470407 l 8.745915323355938 -9.911691485511849 a34.21864830257921,34.21864830257921 0 0,0 0.43830668631956826,0.3935160706498894 l -8.915232997271495 9.759676406092662" fill="#ff9d0e" stroke="none" /><path d="M 114.42810811169701 84.74124197986012 l 8.694976086388229 -9.195560157020191 a33.655470585649525,33.655470585649525 0 0,0 0.4175149538890991,0.4016490548446489 l -8.851974283889746 9.04452801541324" fill="#ff950d" stroke="none" /><path d="M 114.68862486808459 84.99185889309783 l 10.516308244956482 -10.74506561924111 a36.03493180113355,36.03493180113355 0 0,0 0.4395647367077371,0.43767710603510074 l -10.699708781831543 10.56245266255589" fill="#ffb510" stroke="none" /><path d="M 114.94478906791727 85.2469230424477 l 22.357719524684665 -22.070914165736717 a52.41644274031965,52.41644274031965 0 0,0 0.6283377051094376,0.6475572375588666 l -22.73432149349721 21.682792732627735" fill="#84ff25" stroke="none" /><path d="M 115.19652480421416 85.50635884689758 l 14.15685285857002 -13.502057071132878 a40.5632826491704,40.5632826491704 0 0,0 0.4775509047154025,0.5094180088764757 l -14.387171085255885 13.256369645378347" fill="#ffef16" stroke="none" /><path d="M 115.4437574822437 85.77008943001954 l 12.166976420259395 -11.210677619511475 a37.54432252767588,37.54432252767588 0 0,0 0.4338270771477708,0.4790426940544682 l -12.358147138023202 10.999582138187458" fill="#ffc912" stroke="none" /><path d="M 115.68641384162765 86.03803664274999 l 11.387868403696547 -10.135968805544309 a36.245373409886604,36.245373409886604 0 0,0 0.410794941867244,0.4696096316402601 l -11.56065520914164 9.938443617701102" fill="#ffb811" stroke="none" /><path d="M 115.9244219780498 86.31012108654704 l 10.8342508107623 -9.313969569618218 a35.28744273039363,35.28744273039363 0 0,0 0.3920088507705721,0.46401483335588783 l -10.992970275019989 9.126095786633224" fill="#ffab0f" stroke="none" /><path d="M 116.15771136456269 86.58626213691792 l 6.099515018649344 -5.063668591799283 a28.927472678622326,28.927472678622326 0 0,0 0.3147605298801755,0.385859191929108 l -6.185774040605928 4.957925230262074" fill="#ff5407" stroke="none" /><path d="M 116.38621287248628 86.86637796730983 l 14.804883858509136 -11.866179839639296 a39.973423783034164,39.973423783034164 0 0,0 0.4257091958935133,0.5406074473390577 l -15.006947134996613 11.609579998347199" fill="#ffe815" stroke="none" /><path d="M 116.60985879189232 87.15038557335679 l 37.31246995987362 -28.86543818928281 a68.17450515231482,68.17450515231482 0 0,0 0.7100668828631613,0.934364784743482 l -37.80381278296089 28.21888862865829" fill="#39ff8a" stroke="none" /><path d="M 116.82858285166822 87.43820079747576 l 7.095205260039621 -5.296259617515938 a29.853942828944852,29.853942828944852 0 0,0 0.30385255935363004,0.414454549481977 l -7.185320431906877 5.173342624362467" fill="#ff6109" stroke="none" /><path d="M 117.04232023915458 87.72973835380427 l 15.875111356794905 -11.429885559997548 a40.561734189618235,40.561734189618235 0 0,0 0.40308200210679535,0.570130906350532 l -16.069505978705582 11.154928153315222" fill="#ffef16" stroke="none" /><path d="M 117.2510076193507 88.02491185347247 l 12.832365897290435 -8.90781084440392 a36.621098186799244,36.621098186799244 0 0,0 0.3550076014845446,0.5209298495413907 l -12.983797964443713 8.685602971592123" fill="#ffbd11" stroke="none" /><path d="M 117.45458315368197 88.32363383020206 l 15.096835692659694 -10.099134422215348 a39.163341212704744,39.163341212704744 0 0,0 0.3700066032012508,0.5635454413694319 l -15.268438931218869 9.837770916868243" fill="#ffde14" stroke="none" /><path d="M 117.65298651832404 88.62581576622439 l 15.08583054734387 -9.720112559248681 a38.94611020437681,38.94611020437681 0 0,0 0.3582530345261611,0.5666702659680519 l -15.250911178115986 9.458994645566422" fill="#ffdb14" stroke="none" /><line stroke="#e1ed5e" stroke-width="0.3" x1="172.23445277983987" x2="176.4835382374775" y1="55.19839476539836" y2="52.563006222186495" /><path d="M 173.08426987136738 54.67131705675599 a86.0,86.0 0 0,1 12.851231095245387,41.99856678651699" fill="none" id="id135" stroke="none" /><text fill="#e1ed5e" style="font-size:6.75px; font-family:Arial;" text-anchor="middle"><textPath startOffset="22.20632615414155" xlink:href="#id135">March</textPath></text><path d="M 117.84615892207809 88.93136811851018 l 17.555938077149715 -10.888629691053591 a41.65849022357658,41.65849022357658 0 0,0 0.37271296096465856,0.612642109551342 l -17.7407668364006 10.584819808295167" fill="#fffd17" stroke="none" /><path d="M 118.03404312379186 89.2402003453031 l 13.488778508946428 -8.047920998445973 a36.707201471320175,36.707201471320175 0 0,0 0.31907354789800313,0.5454001225678704 l -13.62531173131476 7.814541463524208" fill="#ffbe11" stroke="none" /><path d="M 118.56541770881063 90.18545643968196 l 10.371465903913881 -5.482839411149305 a32.731531571133424,32.731531571133424 0 0,0 0.2590319897782958,0.5003673560252638 l -10.464307326852294 5.303499332863696" fill="#ff890c" stroke="none" /><path d="M 118.73160827565052 90.50648371742162 l 16.134161003001303 -8.177083245267408 a39.088002699878196,39.088002699878196 0 0,0 0.2990045832088372,0.602774994242034 l -16.272525599163547 7.898148662526424" fill="#ffdd14" stroke="none" /><path d="M 119.04729006885535 91.15688171328212 l 29.032750529233237 -13.479085276208506 a53.009160301013736,53.009160301013736 0 0,0 0.37711646327095144,0.830926138136037 l -29.26046930946754 12.977337129230406" fill="#7dff26" stroke="none" /><path d="M 119.196687751892 91.48605970444005 l 16.49311505132745 -7.314876329171067 a39.04245714439669,39.04245714439669 0 0,0 0.26717922867708604,0.6166864967732041 l -16.616584989847215 7.02989068781126" fill="#ffdc14" stroke="none" /><path d="M 119.34039704204932 91.81776055985345 l 13.987114063602997 -5.917454336444899 a36.18735084378284,36.18735084378284 0 0,0 0.23776522026107128,0.575767340230284 l -14.086900970750266 5.675812425761312" fill="#ffb711" stroke="none" /><path d="M 119.47837535516314 92.15188598940014 l 18.8546376808615 -7.596801244962648 a41.327536772369356,41.327536772369356 0 0,0 0.2601793775623067,0.6621281367747491 l -18.98261060830551 7.271124103292114" fill="#fff917" stroke="none" /><path d="M 120.45610955862082 95.25157060432595 l 7.721081491906791 -1.792276787406732 a28.926370890094823,28.926370890094823 0 0,0 0.10841275012911089,0.485993101224757 l -7.750788629037939 1.6591055166320112" fill="#ff5407" stroke="none" /><path d="M 120.6074358757038 95.95851677861258 l 9.409718086485181 -1.845412403265183 a30.588969778096672,30.588969778096672 0 0,0 0.09688586576825202,0.5175681690472798 l -9.440089676163293 1.6831661567553406" fill="#ff6c09" stroke="none" /><path d="M 120.67395015179393 96.31383870115 l 30.848413486387923 -5.500266136347348 a52.33492527831859,52.33492527831859 0 0,0 0.15049565309694685,0.8882338636486405 l -30.938521001005093 4.968446484382871" fill="#85ff25" stroke="none" /><line stroke="#e1ed5e" stroke-width="0.3" x1="184.98032266829074" x2="189.97916517819016" y1="98.17113171792111" y2="98.06355123074" /><path d="M 185.9800911702706 98.14961562048488 a86.0,86.0 0 0,1 -9.607161424134198,41.387399972396054" fill="none" id="id136" stroke="none" /><text fill="#e1ed5e" style="font-size:6.75px; font-family:Arial;" text-anchor="middle"><textPath startOffset="21.466115282336823" xlink:href="#id136">April</textPath></text><path d="M 120.92983693683757 101.71520430193887 l 2.107371867745044 0.1726995439214063 a23.11443640751712,23.11443640751712 0 0,0 -0.03591037236300544,0.39626796666269903 l -2.1040868991049635 -0.2089488991326759" fill="#ff0000" stroke="none" /><path d="M 120.76222939487914 103.15116336523771 l 7.362081982101487 1.1173714822550167 a28.446393096025762,28.446393096025762 0 0,0 -0.0776427308101597,0.48348135887063864 l -7.34175749693004 -1.2439320708188601" fill="#ff4d07" stroke="none" /><path d="M 120.5718875245553 104.21870165774334 l 11.661677454950334 2.3914741878956765 a32.90436347960983,32.90436347960983 0 0,0 -0.11855906156404793,0.5538684652833035 l -11.618784354661843 -2.591856472595149" fill="#ff8b0c" stroke="none" /><path d="M 118.64920377521936 109.65438752849418 l 4.171310079725337 2.159418948743225 a25.697118050188806,25.697118050188806 0 0,0 -0.20673636382991548,0.39106728973330546 l -4.133521207670528 -2.2309012535626644" fill="#ff2603" stroke="none" /><line stroke="#e1ed5e" stroke-width="0.3" x1="174.80103733775053" x2="179.2010983576182" y1="140.37084112569926" y2="142.7455964860345" /><path d="M 175.68104954172406 140.8457921977663 a86.0,86.0 0 0,1 -30.038265399797805,32.042727171017184" fill="none" id="id137" stroke="none" /><text fill="#e1ed5e" style="font-size:6.75px; font-family:Arial;" text-anchor="middle"><textPath startOffset="22.206326154141568" xlink:href="#id137">May</textPath></text><path d="M 118.48025628344425 109.97397251340804 l 6.000068574913957 3.238294865984494 a27.818165188870942,27.818165188870942 0 0,0 -0.23105448831970932,0.41943101061316346 l -5.943437677142738 -3.341096394995463" fill="#ff4506" stroke="none" /><path d="M 116.71984013943494 112.70617746262583 l 2.0137651557510026 1.5303529952224368 a23.52927467715611,23.52927467715611 0 0,0 -0.24783405497097452,0.32035892441679636 l -1.9871242835619596 -1.5647899137524859" fill="#ff0601" stroke="none" /><path d="M 114.81725581225074 114.88116024355365 l 5.461115509422757 5.484668418634234 a28.739855959229573,28.739855959229573 0 0,0 -0.35356872170379877,0.34604141053863346 l -5.365896835343164 -5.57785993209544" fill="#ff5207" stroke="none" /><path d="M 114.29624159901734 115.38237550388516 l 5.09383567796846 5.4808316305303695 a28.482424558681938,28.482424558681938 0 0,0 -0.3619986641422985,0.3306771967885052 l -4.998737464359299 -5.567701593905458" fill="#ff4e07" stroke="none" /><line stroke="#e1ed5e" stroke-width="0.3" x1="143.8653032363475" x2="146.44561519142675" y1="172.8068346515853" y2="177.08958963109032" /><path d="M 144.38136562736335 173.6633856474863 a86.0,86.0 0 0,1 -40.68145358897372,12.25698825130547" fill="none" id="id138" stroke="none" /><text fill="#e1ed5e" style="font-size:6.75px; font-family:Arial;" text-anchor="middle"><textPath startOffset="21.466115282336833" xlink:href="#id138">June</textPath></text><path d="M 110.5260780823613 118.17145234162733 l 4.327401918716472 7.470510584639609 a29.633361787931943,29.633361787931943 0 0,0 -0.443584943728887,0.2518791079051562 l -4.198168208066386 -7.543892858339393" fill="#ff5e08" stroke="none" /><path d="M 109.57404056367764 118.69057910512821 l 4.3790472849044315 8.548838825074256 a30.605139269189483,30.605139269189483 0 0,0 -0.47094910284111796,0.23614365690753694 l -4.231244274380553 -8.622950322891096" fill="#ff6c09" stroke="none" /><path d="M 108.92500713936063 119.00905698771935 l 9.074749253451634 19.327987419456953 a42.35233410425444,42.35233410425444 0 0,0 -0.6625760574856469,0.3041561706882242 l -8.740705200198567 -19.48133066047925" fill="#f9ff18" stroke="none" /><path d="M 108.59647513512805 119.15986991738527 l 3.9880795405479454 8.888653083499682 a30.74232682989775,30.74232682989775 0 0,0 -0.4846737536330182,0.21246673034405167 l -3.8344851122571737 -8.955984367138187" fill="#ff6e0a" stroke="none" /><path d="M 107.59598834532513 119.57807347666477 l 6.9812311332680475 17.993584227761385 a40.30043164019018,40.30043164019018 0 0,0 -0.6488940977982449,0.24535622412649594 l -6.670466814709528 -18.11108870199451" fill="#ffec16" stroke="none" /><path d="M 107.2578585660854 119.70592522655815 l 1.6647286046098493 4.519930652581988 a25.8167514396278,25.8167514396278 0 0,0 -0.41833026299949877,0.14999834883376845 l -1.5866787809806155 -4.547916542455717" fill="#ff2803" stroke="none" /><path d="M 106.57524785965236 119.94407469862006 l 6.107495331532595 18.525285390534222 a40.506093868979335,40.506093868979335 0 0,0 -0.6640658815634435,0.2126129247672526 l -5.787708104878211 -18.62767116196118" fill="#ffee16" stroke="none" /><path d="M 106.2309692047433 120.05430185196036 l 2.2086009131533624 7.108356329088531 a28.443564179536228,28.443564179536228 0 0,0 -0.4688109227929755,0.1412488853228829 l -2.0859150159201407 -7.145320583517139" fill="#ff4d07" stroke="none" /><path d="M 105.18746579009965 120.34920634021253 l 3.935251150759105 15.437063280530557 a36.93076031916417,36.93076031916417 0 0,0 -0.6173534334275401,0.15173045380207803 l -3.6689444325883533 -15.502514992646667" fill="#ffc111" stroke="none" /><path d="M 104.83641907484287 120.43548508189849 l 1.718241849640456 7.260145397255931 a28.460701457849144,28.460701457849144 0 0,0 -0.47770589514462,0.10872430645804845 l -1.593015805102974 -7.288646437291664" fill="#ff4e07" stroke="none" /><path d="M 104.13013068566511 120.58985236759428 l 3.5593348497493844 17.744276067954818 a39.09774012821586,39.09774012821586 0 0,0 -0.660998282979813,0.1266818941222538 l -3.2533689521978673 -17.802915160425542" fill="#ffdd14" stroke="none" /><path d="M 103.7750983002368 120.6578951692458 l 2.634170328956095 14.414568889530434 a35.65328118862705,35.65328118862705 0 0,0 -0.6046644174155112,0.10512865959952654 l -2.3856569400685337 -14.457776127650966" fill="#ffb010" stroke="none" /><path d="M 103.06178313531738 120.77559828337769 l 1.1411987500319873 7.743555223972352 a28.827195033585408,28.827195033585408 0 0,0 -0.4915330637051396,0.06812200377005548 l -1.0077370951400173 -7.762051793235011" fill="#ff5307" stroke="none" /><path d="M 102.70371172650421 120.8252237178851 l 1.184434505875988 9.12305602784896 a30.1996215349318,30.1996215349318 0 0,0 -0.5160864763387621,0.06249088507118893 l -1.0272206064858456 -9.1420924416455" fill="#ff6609" stroke="none" /><path d="M 102.34483914955558 120.86867818915974 l 1.7350260926582879 15.441443471439571 a36.53861293757808,36.53861293757808 0 0,0 -0.6256235322665659,0.06484843713972055 l -1.4689699637861193 -15.46902127703505" fill="#ffbc11" stroke="none" /><path d="M 101.98527174616119 120.90594882070398 l 3.66060421305252 38.548075082873694 a59.721494235107784,59.721494235107784 0 0,0 -1.0242397857971348,0.08837571849483176 l -2.996520109513843 -38.60537505364719" fill="#38ff2e" stroke="none" /><path d="M 101.26447882468166 120.96189622390904 l 1.0829878132138766 17.953229195485058 a38.98586392557185,38.98586392557185 0 0,0 -0.6702077162066638,0.03464208354255585 l -0.7737920285937333 -17.969211085789816" fill="#ffdb14" stroke="none" /><path d="M 100.90346689309514 120.98055641714683 l 1.0325050414568835 23.97711575137201 a44.99933637447764,44.99933637447764 0 0,0 -0.7741592581069195,0.02666361015236359 l -0.6196254316753118 -23.991336159950468" fill="#d9ff1c" stroke="none" /><line stroke="#e1ed5e" stroke-width="0.3" x1="102.19456741930631" x2="102.32365962044197" y1="184.97166512339345" y2="189.96999836594603" /><path d="M 102.22038585953345 185.97133177190398 a86.0,86.0 0 0,1 -42.740103519485714,-10.115201625700543" fill="none" id="id139" stroke="none" /><text fill="#e1ed5e" style="font-size:6.75px; font-family:Arial;" text-anchor="middle"><textPath startOffset="22.20632615414155" xlink:href="#id139">July</textPath></text><path d="M 100.54218724476979 120.99299961872073 l 0.2728715262124145 10.565338637151378 a31.56886178296893,31.56886178296893 0 0,0 -0.5433456758367521,0.009354188557885355 l -0.09096616048299447 -10.568470302988421" fill="#ff790b" stroke="none" /><path d="M 100.18074693466247 120.99922214144158 l 0.12885687348787353 14.97062241125491 a35.97117695687994,35.97117695687994 0 0,0 -0.6192076163006477,0.0 l 0.12885687348786323 -14.97062241125491" fill="#ffb410" stroke="none" /><path d="M 99.81925306533755 120.99922214144158 l -0.14228505768407854 16.53071206599307 a37.53132440085818,37.53132440085818 0 0,0 -0.6459682633421457,-0.0111209294679795 l 0.4268130109188922 -16.525813659245934" fill="#ffc912" stroke="none" /><path d="M 99.45781275523022 120.99299961872073 l -0.19372732045575258 7.500946589384024 a28.503447874909426,28.503447874909426 0 0,0 -0.49036741068130574,-0.016889245117086987 l 0.32281508281170135 -7.496500545840843" fill="#ff4e07" stroke="none" /><path d="M 99.09653310690486 120.98055641714683 l -1.1105437643739993 25.78935241593383 a46.813252516601274,46.813252516601274 0 0,0 -0.8047687007078727,-0.041597349430934204 l 1.5543005334953608 -25.766415259740693" fill="#c3ff1e" stroke="none" /><path d="M 98.73552117531835 120.96189622390904 l -1.3505211993833337 22.388263588984923 a43.42896016403462,43.42896016403462 0 0,0 -0.7458142997999653,-0.051435720724564045 l 1.7356982599622288 -22.361699523744075" fill="#ebff1a" stroke="none" /><path d="M 98.37488393609728 120.93702456842531 l -1.1635833967200888 14.990913391154951 a36.03600381159274,36.03600381159274 0 0,0 -0.6180272161253614,-0.05332598873019904 l 1.421454930586992 -14.968663150146087" fill="#ffb510" stroke="none" /><path d="M 98.01472825383883 120.90594882070398 l -0.767254407135482 8.079589808825961 a29.11593807296194,29.11593807296194 0 0,0 -0.4985305833470128,-0.0516747333324882 l 0.9062175870880881 -8.065185707037712" fill="#ff5708" stroke="none" /><path d="M 97.65516085044442 120.86867818915974 l -1.8914485631478888 16.83357742605202 a37.93950727222968,37.93950727222968 0 0,0 -0.6483547020450295,-0.07850672518740633 l 2.180930688244308 -16.798525172139264" fill="#ffce13" stroke="none" /><path d="M 97.2962882734958 120.8252237178851 l -4.830498557102478 37.20670814659952 a58.51896650250916,58.51896650250916 0 0,0 -0.997808037040195,-0.13828710188622456 l 5.470235185329504 -37.11804647922069" fill="#44ff2d" stroke="none" /><path d="M 96.58105272829116 120.7198165907248 l -2.9347478702646312 17.785427144511306 a39.02593031648415,39.02593031648415 0 0,0 -0.6618631057845684,-0.11507338474937417 l 3.2404599475212494 -17.732275181240926" fill="#ffdc14" stroke="none" /><path d="M 96.22490169976321 120.6578951692458 l -3.0116228807918985 16.480044971755753 a37.75296256329612,37.75296256329612 0 0,0 -0.6382630645634532,-0.12232463540247934 l 3.2948535599270468 -16.425763138004804" fill="#ffcb13" stroke="none" /><path d="M 95.86986931433489 120.58985236759428 l -3.1565836083756658 15.736448899305628 a37.049917259510195,37.049917259510195 0 0,0 -0.6242179561785448,-0.13081094187472278 l 3.426993025983597 -15.679781976704366" fill="#ffc212" stroke="none" /><path d="M 95.51606077576429 120.51570834832081 l -3.8156500081468803 17.458033842943596 a38.87014635211573,38.87014635211573 0 0,0 -0.6524258752033961,-0.1484900050800042 l 4.115596032743139 -17.389767104285905" fill="#ffda14" stroke="none" /><path d="M 95.16358092515715 120.4354850818985 l -3.6141039719471775 15.270795739626111 a36.69263999591615,36.69263999591615 0 0,0 -0.6133728926031553,-0.15075213371352109 l 3.8764301492935433 -15.20632234759856" fill="#ffbe11" stroke="none" /><path d="M 94.81253420990036 120.34920634021253 l -4.167085266083273 16.34649390433073 a37.86927569811846,37.86927569811846 0 0,0 -0.6302701800142387,-0.16646008297828482 l 4.447845888909001 -16.272342472048862" fill="#ffcd13" stroke="none" /><path d="M 94.11515582081647 120.15858648285463 l -4.4985762088043995 15.409913124917683 a37.05311840185362,37.05311840185362 0 0,0 -0.6107148359004848,-0.18400337028662628 l 4.76316601914513 -15.33019438552533" fill="#ffc212" stroke="none" /><path d="M 93.76903079525671 120.05430185196036 l -10.823529886276894 34.835404944366694 a57.47813368083867,57.47813368083867 0 0,0 -0.9423092643010597,-0.30169766928341374 l 11.421560495668896 -34.64393442842357" fill="#4eff2b" stroke="none" /><path d="M 93.42475214034765 119.94407469862007 l -4.666523288230433 14.154521780755912 a35.903923189599794,35.903923189599794 0 0,0 -0.5852856959093823,-0.19856068561330167 l 4.909478717077041 -14.072098108244488" fill="#ffb310" stroke="none" /><path d="M 93.08242187328487 119.8279376855182 l -5.542168781515543 15.885585277039239 a37.82460859565212,37.82460859565212 0 0,0 -0.6129035443779582,-0.21976540495031735 l 5.814791886523228 -15.787832331048962" fill="#ffcc13" stroke="none" /><path d="M 92.40401165467489 119.57807347666478 l -5.3909536594200365 13.894766823645377 a35.903923189599794,35.903923189599794 0 0,0 -0.5742557660380265,-0.22850822059486742 l 5.629330501499921 -13.799911758644443" fill="#ffb310" stroke="none" /><path d="M 92.06813273071674 119.44442032107085 l -5.989146509638752 14.681975648895785 a36.85655337293344,36.85655337293344 0 0,0 -0.5853672597346845,-0.2446835620437894 l 6.240985228870899 -14.576707043832023" fill="#ffc011" stroke="none" /><path d="M 91.7346041902142 119.30500536409082 l -10.66744805048358 24.91533939511152 a48.10292576611171,48.10292576611171 0 0,0 -0.7583754385539486,-0.3324495056623061 l 11.094744163695273 -24.72802533615476" fill="#b4ff20" stroke="none" /><path d="M 91.40352486487194 119.15986991738527 l -7.36465017902566 16.414371844173072 a38.990821973945614,38.990821973945614 0 0,0 -0.6099872804655283,-0.28001524247491844 l 7.646105455258607 -16.28516953136408" fill="#ffdb14" stroke="none" /><path d="M 91.07499286063937 119.00905698771935 l -6.367608753209562 13.56214463195738 a35.982596846077165,35.982596846077165 0 0,0 -0.5583939278376663,-0.26806301890519557 l 6.60011534904747 -13.450527336552623" fill="#ffb410" stroke="none" /><path d="M 90.7491055286396 118.85261126421891 l -18.524285967067023 37.75106973336643 a63.05106938715318,63.05106938715318 0 0,0 -0.9702241280419845,-0.4864905193227541 l 19.17136400279177 -37.42661137313437" fill="#33ff4e" stroke="none" /><path d="M 90.42595943632237 118.69057910512821 l -6.859148679615616 13.390528287144209 a36.04507123339341,36.04507123339341 0 0,0 -0.5497887731017342,-0.2876235014647051 l 7.088628355243845 -13.270475366734786" fill="#ffb510" stroke="none" /><line stroke="#e1ed5e" stroke-width="0.3" x1="58.666819895761336" x2="56.23545636021788" y1="174.27360380694188" y2="178.64263932499728" /><path d="M 58.180547188652646 175.14741091055294 a86.0,86.0 0 0,1 -31.652253787137756,-30.449443065178592" fill="none" id="id140" stroke="none" /><text fill="#e1ed5e" style="font-size:6.75px; font-family:Arial;" text-anchor="middle"><textPath startOffset="22.20632615414155" xlink:href="#id140">August</textPath></text><path d="M 89.4739219176387 118.17145234162733 l -11.560264205400873 19.95679572404792 a44.0632479080907,44.0632479080907 0 0,0 -0.6530427836113932,-0.3858291873673416 l 11.90207486004065 -19.75484796438683" fill="#e4ff1a" stroke="none" /><path d="M 89.1626897886671 117.98757091392108 l -8.764486402695793 14.547135554699386 a37.98338525588578,37.98338525588578 0 0,0 -0.5571272721808231,-0.34223307425307264 l 9.013592874808925 -14.394114013617935" fill="#ffce13" stroke="none" /><path d="M 88.8546689885994 117.79835938074946 l -5.567149869345845 8.890371582481865 a31.4896074541595,31.4896074541595 0 0,0 -0.4569264970324404,-0.2916321091350668 l 5.719358168425209 -8.793225044522995" fill="#ff780b" stroke="none" /><path d="M 88.54995079064634 117.60387380957326 l -10.098230730578795 15.525521002638422 a39.52069292146956,39.52069292146956 0 0,0 -0.5670754619317749,-0.3758266944885617 l 10.363980891250533 -15.349396287058543" fill="#ffe215" stroke="none" /><path d="M 88.24862548938628 117.40417183066458 l -9.292968573168759 13.763191847755033 a37.606767136923814,37.606767136923814 0 0,0 -0.533376984920138,-0.3668615538190794 l 9.528502442711787 -13.601189504570852" fill="#ffca12" stroke="none" /><path d="M 87.95078237400918 117.19931262002967 l -7.702035781230846 10.994051674052216 a34.42350652352397,34.42350652352397 0 0,0 -0.48237605949946055,-0.3441625105741337 l 7.890139168579194 -10.859844901633863" fill="#ffa00e" stroke="none" /><path d="M 87.65650970185807 116.9893568818739 l -13.627675931336222 18.756886769931345 a44.1847870939016,44.1847870939016 0 0,0 -0.611464914683031,-0.45234712582097136 l 13.948525816437819 -18.519529695370608" fill="#e2ff1b" stroke="none" /><path d="M 87.36589467227662 116.77436683061367 l -9.128754112720042 12.120293936225446 a36.17351893105243,36.17351893105243 0 0,0 -0.4941496843150447,-0.37889290630926187 l 9.336032525528573 -11.961361688088818" fill="#ffb711" stroke="none" /><path d="M 87.07902340077011 116.55440617244103 l -10.116063632616623 12.960740618520752 a37.44127552228605,37.44127552228605 0 0,0 -0.5046415476041929,-0.4009177657786653 l 10.337662672938174 -12.784688938736958" fill="#ffc712" stroke="none" /><path d="M 86.79598089348748 116.32954008644616 l -10.658112672027764 13.180992599283325 a37.95092716142691,37.95092716142691 0 0,0 -0.5044398771513796,-0.4151196768035886 l 10.883422677723832 -12.995577803622554" fill="#ffce13" stroke="none" /><path d="M 86.51685102203217 116.09983520530335 l -11.471489466051867 13.69777121535925 a38.86684098653322,38.86684098653322 0 0,0 -0.5092195129421496,-0.4339679162107123 l 11.705574455571073 -13.498278908925586" fill="#ffda14" stroke="none" /><path d="M 86.24171649860922 115.8653595955263 l -8.313406279445752 9.586601415342283 a33.6891942480116,33.6891942480116 0 0,0 -0.43484351073042593,-0.38369883983154734 l 8.477192143082766 -9.442079433738447" fill="#ff960d" stroke="none" /><path d="M 85.97065885151581 115.62618273729859 l -11.946137656444407 13.30586576011043 a38.881730020688664,38.881730020688664 0 0,0 -0.4941691076204728,-0.45141176317484655 l 12.173406313531734 -13.098261230349008" fill="#ffda14" stroke="none" /><path d="M 85.44109423537348 115.13401014063109 l -13.563486256513421 14.099269675000217 a40.56419088025388,40.56419088025388 0 0,0 -0.49903622122623637,-0.48841197567149675 l 13.804172430115452 -13.863707596406151" fill="#ffef16" stroke="none" /><path d="M 85.18274418774928 114.88116024355367 l -22.182464658517898 22.278134046079394 a52.43846362183555,52.43846362183555 0 0,0 -0.6341542592595006,-0.6423949165603 l 22.562659542832932 -21.89299863553843" fill="#84ff25" stroke="none" /><path d="M 84.9287848128048 114.62390073753433 l -10.696201596375573 10.378737777359207 a35.903923189599794,35.903923189599794 0 0,0 -0.4265616007427749,-0.4472481330079928 l 10.873269748497306 -10.193082527768714" fill="#ffb310" stroke="none" /><path d="M 84.67929136418377 114.36230785411682 l -13.045751216728535 12.229662453396829 a38.881730020688664,38.881730020688664 0 0,0 -0.45353425866228514,-0.4922218636739519 l 13.254331883386548 -12.003289334921533" fill="#ffda14" stroke="none" /><path d="M 84.43433777217949 114.09645910891817 l -11.047115916128172 10.004406847840512 a35.903923189599794,35.903923189599794 0 0,0 -0.4109138191202913,-0.4616660318491393 l 11.217688584896802 -9.812766646250509" fill="#ffb310" stroke="none" /><path d="M 84.19399662182784 113.82643327865904 l -12.57367291933488 10.998925251841232 a37.705496322408564,37.705496322408564 0 0,0 -0.4231229827965254,-0.4921876204501374 l 12.761138411702184 -10.780860532229564" fill="#ffcb12" stroke="none" /><path d="M 83.72743513129214 113.27417163493432 l -24.716269531603906 20.16203386404816 a52.89673320410597,52.89673320410597 0 0,0 -0.5694763756314878,-0.7105093395959514 l 25.059663819290257 -19.73359669087395" fill="#7fff26" stroke="none" /><path d="M 83.50135304334701 112.99209946851258 l -24.92101255139881 19.624413733713045 a52.72025348226149,52.72025348226149 0 0,0 -0.5553028888005538,-0.7178038393574276 l 25.255122257417433 -19.192531900242365" fill="#80ff25" stroke="none" /><path d="M 83.28015986056508 112.70617746262583 l -14.025561650167854 10.658671007248937 a38.61600542811645,38.61600542811645 0 0,0 -0.3976321951938867,-0.5326933055868566 l 14.206955112056827 -10.415664822152772" fill="#ffd714" stroke="none" /><path d="M 83.06392112726016 112.41649034213515 l -18.036537231210435 13.223278659699329 a43.36452042420986,43.36452042420986 0 0,0 -0.4361649051206579,-0.6057949051519489 l 18.2614819287067 -12.910850149096241" fill="#ecff1a" stroke="none" /><path d="M 82.85270091963577 112.12312394758628 l -14.163699628557607 10.013722006517797 a38.34603746080994,38.34603746080994 0 0,0 -0.37641035124277106,-0.5422471849757929 l 14.333970886962511 -9.76843355935499" fill="#ffd313" stroke="none" /><path d="M 82.6465618267979 111.8261652097733 l -14.345007230415208 9.775954698375438 a38.35939292444737,38.35939292444737 0 0,0 -0.36714851695921535,-0.5488372174890884 l 14.511158852785154 -9.527580566680529" fill="#ffd313" stroke="none" /><path d="M 82.44556493220864 111.52570212397912 l -8.719703999445816 5.725089444278338 a31.431197773167693,31.431197773167693 0 0,0 -0.2930512220104984,-0.454822004374416 l 8.816960084833362 -5.574145839982474" fill="#ff770b" stroke="none" /><path d="M 82.24976979558568 111.22182372390057 l -40.970102767834554 25.901594847845526 a69.47104224657092,69.47104224657092 0 0,0 -0.6303185746234785,-1.016274240096443 l 41.40988598212599 -25.19252427638382" fill="#3bff98" stroke="none" /><path d="M 82.05923443525364 110.91462005526583 l -13.388965726174218 8.145442473275745 a36.67203357264501,36.67203357264501 0 0,0 -0.3234458068900167,-0.5421137769157216 l 13.527192408762467 -7.913766602473912" fill="#ffbd11" stroke="none" /><line stroke="#e1ed5e" stroke-width="0.3" x1="26.63291911575756" x2="22.317208475507996" y1="142.92168965132927" y2="145.44649492493687" /><path d="M 25.769776987707644 143.4266507060508 a86.0,86.0 0 0,1 -11.730757126820373,-40.83630448921669" fill="none" id="id141" stroke="none" /><text fill="#e1ed5e" style="font-size:6.75px; font-family:Arial;" text-anchor="middle"><textPath startOffset="21.46611528233685" xlink:href="#id141">September</textPath></text><path d="M 81.69416730710424 110.29060199501025 l -14.807327675503364 8.323921575959805 a37.986601287263355,37.986601287263355 0 0,0 -0.31551235186943416,-0.5727465654007049 l 14.948416436824315 -8.067804492161278" fill="#ffce13" stroke="none" /><path d="M 81.51974371655577 109.97397251340807 l -11.026802475343358 5.951271622698358 a33.530283586470546,33.530283586470546 0 0,0 -0.26975511002107,-0.5102750082923857 l 11.127610093589315 -5.7605815993198455" fill="#ff940d" stroke="none" /><path d="M 81.35079622478065 109.6543875284942 l -14.556566474555325 7.535696189688435 a37.39147170303609,37.39147170303609 0 0,0 -0.2909792402075869,-0.5741296461372486 l 14.684124384549179 -7.284012331848501" fill="#ffc712" stroke="none" /><path d="M 81.18737489456691 109.33194174019688 l -8.016247260322201 3.9764334849119667 a29.948309527422055,29.948309527422055 0 0,0 -0.22510681565704554,-0.4637867146898922 l 8.083507332593966 -3.8378578142567896" fill="#ff6309" stroke="none" /><path d="M 80.87730276802145 108.67885076344099 l -18.016430309426124 8.176770674586804 a40.78512925808651,40.78512925808651 0 0,0 -0.28463925253141426,-0.6417863718902433 l 18.15451064668882 -7.865435966203864" fill="#fff216" stroke="none" /><path d="M 80.58989483394504 108.01547362559985 l -11.890714806554431 4.910313988826164 a33.86469129360183,33.86469129360183 0 0,0 -0.2178586315593432,-0.5407072570739495 l 11.973476052371163 -4.70490736390941" fill="#ff980e" stroke="none" /><path d="M 80.45479744820244 107.68017299344265 l -12.311545583773304 4.837749808396727 a34.227924170858046,34.227924170858046 0 0,0 -0.21075554252054965,-0.5502162169668287 l 12.392995405887362 -4.62511002459674" fill="#ff9d0e" stroke="none" /><path d="M 80.32549172779594 107.34259656027581 l -20.74897779625344 7.74359241350139 a43.146857633891415,43.146857633891415 0 0,0 -0.25369476817367226,-0.6980590444465734 l 20.879196825432334 -7.3852855720487" fill="#efff19" stroke="none" /><path d="M 80.20201598880116 107.00284435728193 l -14.6776390623355 5.191701429183697 a36.56877812077701,36.56877812077701 0 0,0 -0.20480112420028723,-0.5952479322072604 l 14.764831017479015 -4.93828079388714" fill="#ffbc11" stroke="none" /><path d="M 80.0844068197444 106.66101706037122 l -42.399902713184034 14.181173152833717 a65.70858331549013,65.70858331549013 0 0,0 -0.34953133005164955,-1.0757468202269362 l 42.637726294251934 -13.449227432628978" fill="#36ff6d" stroke="none" /><path d="M 79.76711848015287 105.62410040840567 l -15.508852831469008 4.3109700147162915 a37.09686238420231,37.09686238420231 0 0,0 -0.16572038199745093,-0.6167071909078248 l 15.580761289808235 -4.043371890632928" fill="#ffc312" stroke="none" /><path d="M 79.67330655649465 105.27499134158121 l -17.608942843635916 4.569706395816017 a39.1922259389663,39.1922259389663 0 0,0 -0.1638397145253794,-0.6544582166115664 l 17.684993872456353 -4.265920339807059" fill="#ffde14" stroke="none" /><path d="M 79.58551787078972 104.9243191809786 l -10.394200444245035 2.507257362423827 a31.692321654185875,31.692321654185875 0 0,0 -0.12335773506476025,-0.5314218940871108 l 10.43581874524035 -2.327966810988142" fill="#ff7b0b" stroke="none" /><path d="M 79.50377843672027 104.57218783832718 l -18.174452650032627 4.054260006810515 a39.6211641239505,39.6211641239505 0 0,0 -0.14276064144263884,-0.6669301893552657 l 18.241547330199708 -3.7408159980390856" fill="#ffe315" stroke="none" /><path d="M 79.4281124754447 104.21870165774334 l -33.38323798111224 6.845940667508248 a55.077961818844415,55.077961818844415 0 0,0 -0.18246559501431858,-0.9303881379195407 l 33.49613350910222 -6.270288802520753" fill="#67ff28" stroke="none" /><path d="M 79.35854240842038 103.8639653848113 l -21.96213365013985 4.111188554598852 a43.34361622025561,43.34361622025561 0 0,0 -0.1309669833838126,-0.7345323946764147 l 22.02964707586285 -3.732537409189223" fill="#ecff1a" stroke="none" /><path d="M 79.29508885075956 103.50808413554451 l -15.428060565349654 2.6140143331891807 a36.64794311538151,36.64794311538151 0 0,0 -0.10002837169718479,-0.6228767660429169 l 15.470770691408129 -2.3480583374530504" fill="#ffbd11" stroke="none" /><path d="M 79.23777060512086 103.15116336523772 l -11.872532256411898 1.8019398585508262 a33.008497384493,33.008497384493 0 0,0 -0.08042433777112827,-0.5624876310554249 l 11.901790645199625 -1.5973067555150007" fill="#ff8d0d" stroke="none" /><path d="M 79.18660465613746 102.79330883721812 l -16.26027973095753 2.1822476495415177 a37.40606295650842,37.40606295650842 0 0,0 -0.08015316086001244,-0.638899555452715 l 16.295434401064394 -1.902030339801394" fill="#ffc712" stroke="none" /><path d="M 79.10278846688536 102.07522291339032 l -18.097698674532104 1.7972138966726943 a39.18671699632879,39.18671699632879 0 0,0 -0.0608801172657724,-0.6718070209694568 l 18.12595338807495 -1.4854254871546713" fill="#ffde14" stroke="none" /><path d="M 79.07016306316243 101.71520430193888 l -32.691071124596164 2.6790397840705555 a53.80066135671716,53.80066135671716 0 0,0 -0.06769517234186553,-0.9236468425398653 l 32.73234285560237 -2.1159198050339296" fill="#75ff27" stroke="none" /><path d="M 79.04373962182676 101.35467743843564 l -18.3107300056955 1.1836621788607729 a39.34894791248651,39.34894791248651 0 0,0 -0.03787551552608557,-0.6762927730504772 l 18.32839187210912 -0.868297689474858" fill="#ffe015" stroke="none" /><path d="M 79.0235259727143 100.99374915477108 l -18.25066894904672 0.8646156078724339 a39.27113781999016,39.27113781999016 0 0,0 -0.02617676999935255,-0.6755061198204568 l 18.262847851897273 -0.5503322410379802" fill="#ffdf14" stroke="none" /><path d="M 79.0095281055655 100.63252640178507 l -18.023213400058918 0.543111101926513 a39.0313945920192,39.0313945920192 0 0,0 -0.01445636859302211,-0.6717306433080871 l 18.029891831336947 -0.23279064282829712" fill="#ffdc14" stroke="none" /><line stroke="#e1ed5e" stroke-width="0.3" x1="15.007084014347285" x2="10.007500721073583" y1="101.09737516637583" y2="101.16192664675087" /><path d="M 14.007167355692545 101.11028546245083 a86.0,86.0 0 0,1 10.666146001902534,-42.60595125391555" fill="none" id="id142" stroke="none" /><text fill="#e1ed5e" style="font-size:6.75px; font-family:Arial;" text-anchor="middle"><textPath startOffset="22.20632615414155" xlink:href="#id142">October</textPath></text><path d="M 79.00175016825051 100.2711162175752 l -36.00967135048228 0.4649342669457874 a57.01267269507117,57.01267269507117 0 0,0 -0.004223560449733322,-0.981406704835445 l 36.01233920822151 0.15498191609333295" fill="#53ff2b" stroke="none" /><path d="M 79.00019446554 99.90962569577889 l -15.34760828452177 -0.06604963164520196 a36.347750408739444,36.347750408739444 0 0,0 0.008077842497363746,-0.62563780351557 l 15.344197434906691 0.33022369322124384" fill="#ffb911" stroke="none" /><path d="M 79.00486145842228 99.54816195383935 l -14.424446762271875 -0.31042966585365744 a35.42778676634284,35.42778676634284 0 0,0 0.01836897938439025,-0.6095769985400663 l 14.41696608843184 0.5586768118187182" fill="#ffad10" stroke="none" /><path d="M 79.01574976396665 99.18683210126434 l -12.312536357486467 -0.47712733146553477 a33.321777552157705,33.321777552157705 0 0,0 0.027143589579210235,-0.5729582753172802 l 12.302499159673758 0.6889967134058239" fill="#ff910d" stroke="none" /><path d="M 79.03285615573316 98.82574320788736 l -16.964603057889413 -0.9500960414152272 a37.991187109783226,37.991187109783226 0 0,0 0.042187239544804814,-0.6526179232439103 l 16.945735227340194 1.2419730289121493" fill="#ffcf13" stroke="none" /><path d="M 79.05617556472873 98.46500227214037 l -48.810586103276876 -3.577385734663057 a69.94150594781465,69.94150594781465 0 0,0 0.09833614597861631,-1.199950057263191 l 48.74177547347876 4.417049709134027" fill="#3bff9d" stroke="none" /><path d="M 79.08570108090925 98.10471618934814 l -16.53927659342217 -1.4988130029447324 a37.607050028572765,37.607050028572765 0 0,0 0.06397294864918301,-0.6441988625381084 l 16.51102651909076 1.783287396187271" fill="#ffca12" stroke="none" /><path d="M 79.21141760316559 97.0276538004421 l -23.61210024696564 -3.3760520603528854 a44.852232717021856,44.852232717021856 0 0,0 0.11585568052320709,-0.76334418020286 l 23.55048867300313 3.7819953529478374" fill="#daff1b" stroke="none" /><path d="M 79.26566170972629 96.67025291283419 l -15.341614499786138 -2.4637244496510675 a36.53818115558757,36.53818115558757 0 0,0 0.10507013063918094,-0.620129858711534 l 15.296932507626735 2.7274400966784293" fill="#ffbc11" stroke="none" /><path d="M 79.32604984820605 96.31383870115002 l -31.084067970461902 -5.542283285112617 a52.574296280435675,52.574296280435675 0 0,0 0.16652101228769683,-0.8895619062103199 l 30.984061234264342 6.076523268785509" fill="#82ff25" stroke="none" /><path d="M 79.3925641242962 95.95851677861259 l -16.60215933038916 -3.255977540208004 a37.91842439986557,37.91842439986557 0 0,0 0.13112679417677559,-0.6394208171390487 l 16.543653240297388 3.541274013510455" fill="#ffce13" stroke="none" /><path d="M 79.46518482838121 95.60439243477599 l -17.99002412926441 -3.8508788854573996 a39.397560609004046,39.397560609004046 0 0,0 0.1476575789693353,-0.6619199737778682 l 17.921072163293037 4.159977028785227" fill="#ffe115" stroke="none" /><path d="M 79.54389044137918 95.25157060432595 l -8.724166676533178 -2.0251206311198056 a29.956126270353664,29.956126270353664 0 0,0 0.12091890185577728,-0.5012869130322948 l 8.688014974416586 2.1749927758114973" fill="#ff6309" stroke="none" /><path d="M 79.62865764111835 94.90015583598534 l -16.051736852138465 -4.018456666503705 a37.54709188802879,37.54709188802879 0 0,0 0.16235303195407816,-0.6256124600888825 l 15.980187488314078 4.294165552141451" fill="#ffc912" stroke="none" /><path d="M 79.71946130924805 94.55025226153421 l -11.540389375050951 -3.101111457477101 a32.949789922818084,32.949789922818084 0 0,0 0.15190359864704767,-0.5464780659446653 l 11.485299005837543 3.299300826840709" fill="#ff8c0c" stroke="none" /><path d="M 79.81627453868168 94.20196356495316 l -43.30280708540394 -12.439291928645655 a66.05406846403307,66.05406846403307 0 0,0 0.3233318433277223,-1.0901142388317153 l 43.08226934496451 13.18283555422391" fill="#36ff71" stroke="none" /><path d="M 79.91906864156998 93.8553929516997 l -16.812533881932268 -5.144503128204781 a38.58201376313957,38.58201376313957 0 0,0 0.19978963913910064,-0.6333877535131501 l 16.721488759024965 5.433141048144345" fill="#ffd614" stroke="none" /><path d="M 80.14247586403 93.16781622104843 l -18.762711623040435 -6.455502363856051 a40.842198926004336,40.842198926004336 0 0,0 0.23444767873727276,-0.6628151588542283 l 18.648810863493352 6.777515149136891" fill="#fff316" stroke="none" /><path d="M 80.38941819471856 92.48833698450439 l -22.95851016839075 -8.794057893597811 a45.58513053428945,45.58513053428945 0 0,0 0.2869832517199113,-0.7303410728675336 l 22.803733366789146 9.187947971361108" fill="#d2ff1c" stroke="none" /><path d="M 80.65960295795068 91.81776055985345 l -28.952482526473773 -12.248773585320643 a52.436900273249236,52.436900273249236 0 0,0 0.35884141506279943,-0.8282554607554266 l 28.737350401568293 12.74532819066267" fill="#84ff25" stroke="none" /><path d="M 80.803312248108 91.48605970444005 l -16.993763052060267 -7.536919175438155 a39.590135376770554,39.590135376770554 0 0,0 0.2816511664950841,-0.6205810110950377 l 16.861509568601832 7.8283221953752635" fill="#ffe315" stroke="none" /><path d="M 80.95270993114464 91.15688171328213 l -13.899770576092473 -6.453270513458035 a36.32476174000343,36.32476174000343 0 0,0 0.2681836508780082,-0.5648631641070828 l 13.786628731372714 6.691576093205651" fill="#ffb911" stroke="none" /><path d="M 81.10775173730289 90.83032412892265 l -8.24475934102068 -4.001734983626757 a30.164602526598195,30.164602526598195 0 0,0 0.2307448266256279,-0.46516749023708687 l 8.17465450144164 4.143062062362805" fill="#ff6609" stroke="none" /><path d="M 81.43458229118936 90.18545643968196 l -20.768981209391924 -10.979449747918572 a44.49252854086048,44.49252854086048 0 0,0 0.363762228369368,-0.6739961632604965 l 20.576910881804086 11.335326894511542" fill="#dfff1b" stroke="none" /><line stroke="#e1ed5e" stroke-width="0.3" x1="26.266209847984243" x2="21.928928074336255" y1="57.711370442889674" y2="55.22380399835377" /><path d="M 25.398753493254645 57.213857153982495 a86.0,86.0 0 0,1 29.58750427330803,-30.492523968695096" fill="none" id="id143" stroke="none" /><text fill="#e1ed5e" style="font-size:6.75px; font-family:Arial;" text-anchor="middle"><textPath startOffset="21.46611528233685" xlink:href="#id143">November</textPath></text><path d="M 81.78341655067845 89.55222093294921 l -14.406213970280131 -8.262413266070102 a37.60742225442665,37.60742225442665 0 0,0 0.3268986238407136,-0.5587757138895967 l 14.261855671969093 8.50916839231359" fill="#ffca12" stroke="none" /><path d="M 81.96595687620814 89.24020034530311 l -15.501538387407916 -9.24881049929707 a39.05098856096776,39.05098856096776 0 0,0 0.34938399104340484,-0.574295416940416 l 15.340038598078294 9.514273689444561" fill="#ffdc14" stroke="none" /><path d="M 82.15384107792192 88.93136811851018 l -43.728614904846204 -27.121575190635518 a72.45650204121569,72.45650204121569 0 0,0 0.6665046031862355,-1.0542502208139617 l 43.25528270541401 27.870273059163697" fill="#3effb9" stroke="none" /><path d="M 82.34701348167596 88.62581576622439 l -7.525618166988234 -4.848911396126721 a29.95247845698558,29.95247845698558 0 0,0 0.2829844050112071,-0.4310046632761488 l 7.441037126619106 4.977734123380537" fill="#ff6309" stroke="none" /><path d="M 82.54541684631803 88.32363383020206 l -25.31865848735327 -16.937094677281785 a51.46144520055529,51.46144520055529 0 0,0 0.4988710097219943,-0.7320316493176691 l 25.023363011962537 17.370404349869872" fill="#8eff24" stroke="none" /><path d="M 82.95767976084542 87.72973835380427 l -12.109700021356831 -8.718835559585838 a35.92189425382542,35.92189425382542 0 0,0 0.3656119919701986,-0.4986943461643345 l 11.957825416873 8.925992349421673" fill="#ffb410" stroke="none" /><path d="M 83.17141714833178 87.43820079747576 l -23.260265876024267 -17.362768565089155 a50.02594875052643,50.02594875052643 0 0,0 0.5210418383264672,-0.6856299833998593 l 22.957948097473693 17.76058332437004" fill="#9eff22" stroke="none" /><path d="M 83.39014120810768 87.1503855733568 l -14.311738139807494 -11.071756790694476 a39.09446454070166,39.09446454070166 0 0,0 0.4163484507567438,-0.5287202516139116 l 14.119035608456779 11.316469436261436" fill="#ffdd14" stroke="none" /><path d="M 83.6137871275137 86.86637796730984 l -17.7420161516324 -14.220304352610796 a43.73755028594036,43.73755028594036 0 0,0 0.47590934253438,-0.5834085817930688 l 17.494608317021626 14.523597104011948" fill="#e8ff1a" stroke="none" /><path d="M 84.07557802195018 86.31012108654704 l -11.983290290190691 -10.301773796473933 a36.80271462542735,36.80271462542735 0 0,0 0.41711169158449546,-0.4768307685276767 l 11.80418673502835 10.506520121204552" fill="#ffbf11" stroke="none" /><path d="M 84.31358615837235 86.03803664274999 l -13.37637149055762 -11.905870295766125 a38.907458271709274,38.907458271709274 0 0,0 0.44957819890933903,-0.4964354761109789 l 13.169449651032236 12.13435855914666" fill="#ffda14" stroke="none" /><path d="M 84.80347519578584 85.50635884689758 l -19.742184529375873 -18.82905084113411 a48.28162395404535,48.28162395404535 0 0,0 0.5787719121752745,-0.5964753309840084 l 19.41514835349748 19.16609036766824" fill="#b2ff20" stroke="none" /><path d="M 85.05521093208273 85.24692304244772 l -14.230086382488471 -14.047542495206754 a40.99571975718112,40.99571975718112 0 0,0 0.5000778927696843,-0.4979303993739004 l 13.986172689551474 14.290408745230764" fill="#fff517" stroke="none" /><path d="M 85.57189188830299 84.74124197986013 l -24.969825241909113 -26.407379139513377 a57.343387921731896,57.343387921731896 0 0,0 0.7230512875318036,-0.6719973707847938 l 24.511566070582454 26.83328109637282" fill="#50ff2b" stroke="none" /><path d="M 85.83668400450813 84.49514656593479 l -15.61177738336095 -17.090511872453593 a44.14763895368376,44.14763895368376 0 0,0 0.5654871334343342,-0.5076999318005061 l 15.315279262330645 17.35671081302338" fill="#e3ff1b" stroke="none" /><path d="M 86.10567301691215 84.25364557470407 l -10.077587079406776 -11.420866811128999 a36.23134793971217,36.23134793971217 0 0,0 0.471190752653421,-0.40861197751026546 l 9.879502528106581 11.592643782058945" fill="#ffb811" stroke="none" /><path d="M 86.37877921826538 84.01681056812374 l -10.145826514551816 -11.905149305155277 a36.64194283461686,36.64194283461686 0 0,0 0.48357325179948546,-0.4049786915598411 l 9.939395725793219 12.07802915410893" fill="#ffbd11" stroke="none" /><path d="M 86.65592168130627 83.78471172551755 l -12.600360673944529 -15.31154687575781 a40.82958791407468,40.82958791407468 0 0,0 0.5465265905075399,-0.44191982781367467 l 12.33493068487249 15.526172800835617" fill="#fff316" stroke="none" /><path d="M 86.93701828274178 83.55741782278169 l -15.559614476816236 -19.585133411224326 a46.01357738114652,46.01357738114652 0 0,0 0.6243986463942557,-0.4873530475579304 l 15.220183275262555 19.850064848005477" fill="#cdff1d" stroke="none" /><path d="M 87.22198572758235 83.33499621200491 l -5.013247522251523 -6.538245079974497 a29.23901082929084,29.23901082929084 0 0,0 0.4020417541551342,-0.30280951402997286 l 4.899959614337999 6.623571183510324" fill="#ff5908" stroke="none" /><path d="M 87.51073957382395 83.11751280151077 l -9.00272090042512 -12.169521266002961 a36.13757680260119,36.13757680260119 0 0,0 0.5032668376926499,-0.36564476051848255 l 8.791908746378688 12.322685261338112" fill="#ffb610" stroke="none" /><path d="M 88.39885842347998 82.49532879139004 l -4.943362176102203 -7.458915054780716 a29.948309527422055,29.948309527422055 0 0,0 0.43215834803940356,-0.28108781083133977 l 4.814236802278512 7.542901789771591" fill="#ff6309" stroke="none" /><path d="M 89.00827224532344 82.1063720568725 l -32.97518326402967 -53.68088382938249 a84.0,84.0 0 0,0 1.2385517351294033,-0.746213562165523 l 32.046269462682616 54.240544001006626" fill="#4dd2ff" stroke="none" /><line stroke="#e1ed5e" stroke-width="0.3" x1="56.762969772571076" x2="54.21961505331055" y1="26.818313649435495" y2="22.513508569990535" /><path d="M 56.25429882871897 25.957352633546506 a86.0,86.0 0 0,1 42.265352541879196,-11.944610805530505" fill="none" id="id144" stroke="none" /><text fill="#e1ed5e" style="font-size:6.75px; font-family:Arial;" text-anchor="middle"><textPath startOffset="22.20632615414155" xlink:href="#id144">December</textPath></text><path d="M 89.94658935756843 81.56283822128135 l -8.560589280718073 -15.699445203562227 a38.881730020688664,38.881730020688664 0 0,0 0.5903634388878894,-0.31535170347327873 l 8.289080795301878 15.844475633537256" fill="#ffda14" stroke="none" /><path d="M 90.26544431104013 81.39251694778311 l -9.117298693250444 -17.42760392331617 a40.66841411934199,40.66841411934199 0 0,0 0.6230778918712061,-0.31916469669304814 l 8.815960313790473 17.58196114532172" fill="#fff116" stroke="none" /><path d="M 90.58718382345135 81.22770947309562 l -8.01645749045074 -15.987486229917938 a38.88472271655391,38.88472271655391 0 0,0 0.6009147521835309,-0.2948662591523419 l 7.740071471256784 16.12310764920511" fill="#ffda14" stroke="none" /><path d="M 90.91171255644093 81.06846463323043 l -12.929162619511622 -26.93234571574524 a50.87498103420649,50.87498103420649 0 0,0 0.7927334425767402,-0.37219898068474283 l 12.463650965635274 27.15090967906999" fill="#95ff23" stroke="none" /><path d="M 91.23893434514133 80.91482961587045 l -11.528778844487563 -25.114377318468193 a48.634121837675494,48.634121837675494 0 0,0 0.7638287159395675,-0.3427076797694325 l 11.094768010081221 25.309105328754153" fill="#aeff20" stroke="none" /><path d="M 91.90106846888425 80.62456947434976 l -9.048305089726437 -21.64665869409191 a44.46166357305624,44.46166357305624 0 0,0 0.7086683801350784,-0.2890836258604303 l 8.674352840002978 21.799203206135918" fill="#dfff1b" stroke="none" /><path d="M 92.57280143429618 80.3572730644239 l -7.296335787611181 -19.296633884021766 a41.629992612203054,41.629992612203054 0 0,0 0.672458536762697,-0.24767215420074243 l 6.963094925075914 19.41936930602883" fill="#fffc17" stroke="none" /><path d="M 93.59665428221793 80.00007090966166 l -17.26614375409878 -53.92831590938569 a77.6249324675951,77.6249324675951 0 0,0 1.2760601014359856,-0.3964780850584447 l 16.335298279952067 54.21753412932666" fill="#45ffef" stroke="none" /><path d="M 93.94186890950719 79.89281104454417 l -4.375700128190529 -14.523130644698895 a36.16799509938076,36.16799509938076 0 0,0 0.5976499097531659,-0.17447039729655153 l 4.125060000713942 14.596299370914146" fill="#ffb711" stroke="none" /><path d="M 94.28887869178378 79.79150937346287 l -4.863082349948802 -17.20775111949306 a38.881730020688664,38.881730020688664 0 0,0 0.6456257775641663,-0.17647391366332818 l 4.5661586831609124 17.288911573982684" fill="#ffda14" stroke="none" /><path d="M 94.63758080256005 79.69619591428918 l -4.149288545797165 -15.710510243057701 a37.249206981680814,37.249206981680814 0 0,0 0.621336481391212,-0.15839250374047428 l 3.8782431757209537 15.779605742967039" fill="#ffc512" stroke="none" /><path d="M 94.98787191387505 79.60689891045804 l -4.267881965009397 -17.364948950847676 a38.881730020688664,38.881730020688664 0 0,0 0.6513176967236197,-0.15414585558368327 l 3.968340581323243 17.43584071857223" fill="#ffda14" stroke="none" /><path d="M 96.04723909329186 79.375362276772 l -9.02536433487207 -47.09236761853643 a68.94943471300323,68.94943471300323 0 0,0 1.167559780054356,-0.21336408695063597 l 8.21340943371482 47.2407471868378" fill="#3aff92" stroke="none" /><path d="M 96.40284397218896 79.31037775812273 l -3.993420241992706 -22.968799690952835 a44.31336879286801,44.31336879286801 0 0,0 0.752632591714884,-0.12419082643784726 l 3.597458444138936 23.03413678033031" fill="#e1ff1b" stroke="none" /><path d="M 97.11714578562143 79.19881850522333 l -1.5190215175200434 -10.960471786193565 a32.06523240364314,32.06523240364314 0 0,0 0.5473768354132689,-0.07106522305701005 l 1.3301299535989168 10.984995332414712" fill="#ff800b" stroke="none" /><path d="M 97.47563105711357 79.15227682838746 l -2.9427089346707906 -24.302620826296405 a45.48013306542526,45.48013306542526 0 0,0 0.7779989583766376,-0.08741724796267605 l 2.523943272784435 24.349674027729677" fill="#d3ff1c" stroke="none" /><path d="M 97.83486435360386 79.11191278185805 l -2.457297570760598 -23.706711431411357 a44.83372564756664,44.83372564756664 0 0,0 0.7683110152137741,-0.07296038863625592 l 2.0488614284565876 23.74549736456279" fill="#dbff1b" stroke="none" /><path d="M 98.55514903715128 79.0497635885617 l -1.6642819008763332 -24.131969438489353 a45.1892906722328,45.1892906722328 0 0,0 0.7764767171694866,-0.04683919604559635 l 1.2486431348672236 24.157041903915257" fill="#d6ff1c" stroke="none" /><path d="M 99.27714615592234 79.0124445844662 l -0.9249313135634779 -26.854733301923723 a47.87065683328677,47.87065683328677 0 0,0 0.8237704921560047,-0.021275561452706534 l 0.46253418621259423 26.866675655518787" fill="#b7ff1f" stroke="none" /><path d="M 99.63851952072746 79.00311137660856 l -0.2667981478911563 -15.497188139927493 a36.499484555817574,36.499484555817574 0 0,0 0.6282786271636882,-0.005407792498639357 l 3.796278829943165e-15 15.499484555817574" fill="#ffbb11" stroke="none" /></svg>