<?xml version="1.0" encoding="utf-8" ?>
<svg baseProfile="full" height="200mm" version="1.1" viewBox="0,0,200,200" width="200mm" xmlns="http://www.w3.org/2000/svg" xmlns:ev="http://www.w3.org/2001/xml-events" xmlns:xlink="http://www.w3.org/1999/xlink"><defs /><rect fill="#1a1a1a" height="200" width="200" x="0" y="0" /><rect fill="#1a1a1a" height="200" width="180" x="10" y="0" /><text alignment-baseline="middle" fill="#e1ed5e" style="dominant-baseline: central; font-size:9.0px; font-family:Arial;" text-anchor="middle" x="100.0" y="100.0">2024</text><line stroke="#e1ed5e" stroke-width="0.3" x1="100.0" x2="100.0" y1="15.0" y2="10.0" /><path d="M 100.0 14.0 a86.0,86.0 0 0,1 42.35913384403234,11.155469271406648" fill="none" id="id121" stroke="none" /><text fill="#e1ed5e" style="font-size:6.75px; font-family:Arial;" text-anchor="middle"><textPath startOffset="22.145653131862478" xlink:href="#id121">January</textPath></text><path d="M 100.0 79.0 l 0.0 -14.688106865944349 a35.68810686594435,35.68810686594435 0 0,0 0.6126338107820368,0.005258724449941825 l -0.25214088593318207 14.685942539688842" fill="#ff830c" stroke="none" /><path d="M 106.72888874123014 80.10723608172694 l 3.503202925129363 -10.3565969697787 a31.933047677983676,31.933047677983676 0 0,0 0.517762781684032,0.1801047723734438 l -3.680471478858413 10.294933764836665" fill="#ff4b07" stroke="none" /><path d="M 107.06938296918511 80.22567764915836 l 9.96435767448975 -27.872081839860442 a50.59968530158794,50.59968530158794 0 0,0 0.8154039251878425,0.2994276158501994 l -10.441350751331719 27.69692337500152" fill="#b2ff20" stroke="none" /><path d="M 108.4095320186766 80.7573450057729 l 7.2029013508159565 -16.48164788996376 a38.9868425533314,38.9868425533314 0 0,0 0.6109546356799566,0.273272237510406 l -7.484769389351545 16.355571901543502" fill="#ffb210" stroke="none" /><line stroke="#e1ed5e" stroke-width="0.3" x1="143.13028292997686" x2="145.6673583964461" y1="26.7553504044142" y2="22.446841604673864" /><path d="M 143.63769802327073 25.89364864446614 a86.0,86.0 0 0,1 29.32050498858742,28.57503671076993" fill="none" id="id122" stroke="none" /><text fill="#e1ed5e" style="font-size:6.75px; font-family:Arial;" text-anchor="middle"><textPath startOffset="20.669276256404974" xlink:href="#id122">February</textPath></text><path d="M 110.65571695917076 81.90426304109057 l 7.209957775314101 -12.244084549809696 a35.209190602729656,35.209190602729656 0 0,0 0.518190832544264,0.31115870611089713 l -7.419081364415799 12.118511843162878" fill="#ff7c0b" stroke="none" /><path d="M 111.27062007382361 82.28071324371311 l 12.401881388340376 -19.497817440217254 a44.10782436540713,44.10782436540713 0 0,0 0.6353928857342908,0.41185399193390637 l -12.734759906331675 19.282049606579452" fill="#fff917" stroke="none" /><path d="M 111.5731344415666 82.4767994020092 l 24.466190214431226 -37.044930322095446 a65.39505970462972,65.39505970462972 0 0,0 0.9314240522749041,0.6267036705052812 l -25.09851055480313 36.61947697753305" fill="#34ff5a" stroke="none" /><path d="M 112.16784306229584 82.88440491214696 l 8.579456044128184 -12.068079360782372 a35.80694450152593,35.80694450152593 0 0,0 0.4979194169014766,0.36045525938617645 l -8.785356471403627 11.919023330023121" fill="#ff850c" stroke="none" /><path d="M 112.45986205192187 83.09580414077388 l 8.845796990628402 -12.001022502289343 a35.90881167296259,35.90881167296259 0 0,0 0.4930570722697594,0.3699992190280449 l -9.050507051808927 11.847404255997283" fill="#ff860c" stroke="none" /><path d="M 112.7482090630111 83.31218511350987 l 20.43275306361423 -26.747129660455997 a54.6586741098321,54.6586741098321 0 0,0 0.740729290051536,0.575995576205131 l -20.88889229830099 26.392433032630077" fill="#82ff25" stroke="none" /><path d="M 113.03279911837588 83.53348406188908 l 4.662723851001834 -5.891199266570116 a28.51313666248243,28.51313666248243 0 0,0 0.3811924358451023,0.30706164312010126 l -4.763167057202196 5.810289329656606" fill="#ff1602" stroke="none" /><path d="M 113.31354834802062 83.75963576809568 l 4.955579878529552 -6.0450016857888595 a28.81663721261753,28.81663721261753 0 0,0 0.3798659420760966,0.31689767928027734 l -5.058620154767542 5.959041822596713" fill="#ff1b02" stroke="none" /><path d="M 114.13192950727249 84.46653392183569 l 21.109334994624017 -23.20285697029951 a52.36840122638441,52.36840122638441 0 0,0 0.6597676137326934,0.610671053512434 l -21.504532379670678 22.837068170654703" fill="#9dff22" stroke="none" /><path d="M 114.65682725009322 84.96080404539774 l 5.369081921123815 -5.509151041374243 a28.6927099173447,28.6927099173447 0 0,0 0.3497888367717809,0.34679920655868923 l -5.462862678025559 5.416171824586894" fill="#ff1902" stroke="none" /><path d="M 114.91283532996326 85.21462403516908 l 23.1173332189038 -22.91975036155716 a53.55343379414732,53.55343379414732 0 0,0 0.6416547993477917,0.6583943508333983 l -23.5073748194024 22.51953331865602" fill="#8fff24" stroke="none" /><path d="M 115.16444852881244 85.47280134310134 l 15.17111184101262 -14.533581959256212 a42.00922747411077,42.00922747411077 0 0,0 0.494396928546329,0.525032405319749 l -15.418364603295208 14.271008093991968" fill="#ffdc14" stroke="none" /><path d="M 115.41159269507618 85.73525988315684 l 13.160105134024322 -12.180796843091134 a38.93209912060583,38.93209912060583 0 0,0 0.44976270274813773,0.4943679971490374 l -13.367265537614337 11.953091270384425" fill="#ffb210" stroke="none" /><path d="M 115.8921839302757 86.27271002978787 l 8.505169578908403 -7.346562912167168 a32.23876755647251,32.23876755647251 0 0,0 0.3581657017502652,0.4219182960669683 l -8.63002984416578 7.199477833650647" fill="#ff5007" stroke="none" /><path d="M 116.35404254752997 86.82634096563983 l 16.71134272264653 -13.461474763481755 a42.45880421648903,42.45880421648903 0 0,0 0.4523552294307763,0.5715360551063245 l -16.939964382718866 13.172618764460752" fill="#ffe215" stroke="none" /><path d="M 116.7966241395341 87.39550010848427 l 28.49583441220925 -21.383805386937972 a56.62695204019685,56.62695204019685 0 0,0 0.5767805085010316,0.7825135336856729 l -28.85871694029411 20.89148554398342" fill="#6bff28" stroke="none" /><path d="M 117.01052211995028 87.68569379921539 l 14.737060702158692 -10.668495458648648 a39.19334365888571,39.19334365888571 0 0,0 0.3898522727841778,0.5483760442086322 l -14.918028073472831 10.413942187730513" fill="#ffb510" stroke="none" /><path d="M 117.21940702142032 87.97951657250589 l 13.160635906714225 -9.187145969379241 a37.050108676634466,37.050108676634466 0 0,0 0.3595805904955086,0.5246388277290902 l -13.316406234025058 8.959872406580102" fill="#ff970d" stroke="none" /><path d="M 117.42321728460499 88.27688183743584 l 12.2781685886991 -8.26129978373087 a35.7987329866171,35.7987329866171 0 0,0 0.33868254104968215,0.5128085339210336 l -12.418175568669506 8.049311371470777" fill="#ff850c" stroke="none" /><path d="M 117.62189284568427 88.57770195909679 l 28.864380263815434 -18.7095425574563 a55.39766606506038,55.39766606506038 0 0,0 0.510403252800285,0.8024386891289882 l -29.181301208241607 18.21129019364864" fill="#79ff26" stroke="none" /><path d="M 117.81537515405839 88.88188828441811 l 12.653292962536165 -7.896590642123854 a35.91515895205429,35.91515895205429 0 0,0 0.32192302268823614,0.5258370641068394 l -12.786983949679803 7.67821646189246" fill="#ff860c" stroke="none" /><line stroke="#e1ed5e" stroke-width="0.3" x1="172.87174338648825" x2="177.1583165268699" y1="56.24261187166439" y2="53.66864786411523" /><path d="M 173.72905801456457 55.72781907015455 a86.0,86.0 0 0,1 12.242430191666344,42.057860355516425" fill="none" id="id123" stroke="none" /><text fill="#e1ed5e" style="font-size:6.75px; font-family:Arial;" text-anchor="middle"><textPath startOffset="22.145653131862474" xlink:href="#id123">March</textPath></text><path d="M 118.00360718960297 89.18935116829356 l 15.554787324332244 -9.340202862920986 a39.14361590823958,39.14361590823958 0 0,0 0.3409712585809367,0.5790437405076373 l -15.712832293042947 9.071807954119793" fill="#ffb510" stroke="none" /><path d="M 118.36410011445183 89.81374322990088 l 18.247016196854172 -10.121312294689714 a41.86611038633927,41.86611038633927 0 0,0 0.34321169507265553,0.6314708621948416 l -18.41807324154217 9.80658659902027" fill="#ffda14" stroke="none" /><path d="M 118.53625476483649 90.13048839642627 l 7.860146547203321 -4.185085311870842 a29.904877473112663,29.904877473112663 0 0,0 0.23737627490765856,0.45520030637048203 l -7.930830891085924 4.049538762395862" fill="#ff2c04" stroke="none" /><path d="M 118.70294669586156 90.45014215332178 l 14.293569364345673 -7.298398363148842 a37.04907299006939,37.04907299006939 0 0,0 0.28436060952209885,0.5689117046648288 l -14.41674988707951 7.051954802320263" fill="#ff970d" stroke="none" /><path d="M 118.8641267826498 90.77261029715802 l 13.400078119938389 -6.5546496949396 a35.91728950727388,35.91728950727388 0 0,0 0.2661654878662204,0.5561835003558906 l -13.510622865764521 6.323653692518605" fill="#ff860c" stroke="none" /><path d="M 119.0197475246899 91.09779779509293 l 13.73032140864086 -6.426483703814483 a36.15986209633764,36.15986209633764 0 0,0 0.2583114791976016,0.5644571998465288 l -13.838617352693513 6.189837521753271" fill="#ff8a0c" stroke="none" /><path d="M 119.31412917781788 91.75594674310238 l 27.268354665691586 -11.639239130186457 a50.64852532089257,50.64852532089257 0 0,0 0.334459117826063,0.8025801272158724 l -27.46413962805413 11.169426493529308" fill="#b2ff20" stroke="none" /><path d="M 119.58574465831526 92.42381321644754 l 11.074476227140098 -4.283845311503298 a32.87414646862586,32.87414646862586 0 0,0 0.19907536793328914,0.5280710650195579 l -11.146382278887828 4.093105966289583" fill="#ff5908" stroke="none" /><path d="M 119.71291397450082 92.76114493625339 l 19.032668224434012 -6.9890594019366485 a41.2753399740961,41.2753399740961 0 0,0 0.23853182098260642,0.667215956414239 l -19.149840215460564 6.661308489141493" fill="#ffd213" stroke="none" /><path d="M 119.83427380445688 93.10060997987247 l 20.019748855647254 -6.963907870883318 a42.196376036420475,42.196376036420475 0 0,0 0.2321093613819558,0.6861900837950573 l -20.136343638601574 6.6192161126141" fill="#ffdf14" stroke="none" /><path d="M 119.94978838288452 93.4421083053983 l 14.197277565021507 -4.666927129386802 a35.94466122363667,35.94466122363667 0 0,0 0.18765729283540997,0.5878337970318701 l -14.275299573634175 4.422524298663545" fill="#ff870c" stroke="none" /><path d="M 120.16314734710363 94.1308016681162 l 29.974346868749777 -8.725095522681066 a52.21840422071632,52.21840422071632 0 0,0 0.24314258600765007,0.8628272614770485 l -30.11970794683201 8.209260337301005" fill="#9fff22" stroke="none" /><path d="M 120.35273937422433 94.82641323984039 l 15.782407494816736 -4.011826268557991 a37.2843217955658,37.2843217955658 0 0,0 0.1523552321638122,0.621661338578801 l -15.84895025349684 3.7403091053710953" fill="#ff9a0e" stroke="none" /><path d="M 120.51834098615036 95.52812308129327 l 20.56861472715323 -4.482833846567493 a42.051453894921266,42.051453894921266 0 0,0 0.14766526063690907,0.7066317275737152 l -20.642537698614504 4.129085667708373" fill="#ffdd14" stroke="none" /><path d="M 120.7213421655516 96.59031103205396 l 30.95163514320443 -5.0930797843357665 a52.36786858757951,52.36786858757951 0 0,0 0.13834720043515833,0.8882882703789079 l -31.034503835777855 4.561003332025417" fill="#9dff22" stroke="none" /><path d="M 120.77682067341334 96.94652285012252 l 7.326050097684166 -1.076677077968987 a28.40474466568578,28.40474466568578 0 0,0 0.06675856690955569,0.4830317344146496 l -7.343453181148934 0.9507570353542516" fill="#ff1502" stroke="none" /><path d="M 120.86939407059847 97.66154086499901 l 23.731146880319802 -2.659124506375404 a44.87966238027076,44.87966238027076 0 0,0 0.07921817669843871,0.7663639986206641 l -23.773297449499907 2.251355985471809" fill="#fbff18" stroke="none" /><path d="M 120.9064616781168 98.02013634271609 l 7.796991810436029 -0.7383832309501133 a28.83187660064654,28.83187660064654 0 0,0 0.042432802692940974,0.4931334876006849 l -7.8085182358267105 0.6044286959737664" fill="#ff1b02" stroke="none" /><path d="M 120.96210409425399 98.7389718711861 l 7.561341921592769 -0.4548715535346477 a28.575011536984697,28.575011536984697 0 0,0 0.025252704542215922,0.4898957218047539 l -7.568036215591558 0.32500403835316316" fill="#ff1702" stroke="none" /><path d="M 120.99303781780057 99.45929381324524 l 31.208113468034494 -0.8038103001368659 a52.21846340280575,52.21846340280575 0 0,0 0.015388453932419908,0.8963002941379893 l -31.21731335356558 0.2679630900298102" fill="#9fff22" stroke="none" /><line stroke="#e1ed5e" stroke-width="0.3" x1="184.99686870605535" x2="189.99668451229388" y1="99.2704041080226" y2="99.22748670261217" /><path d="M 185.99683186730306 99.26182062694052 a86.0,86.0 0 0,1 -10.086455211305974,41.156179273409016" fill="none" id="id124" stroke="none" /><text fill="#e1ed5e" style="font-size:6.75px; font-family:Arial;" text-anchor="middle"><textPath startOffset="21.40746469413373" xlink:href="#id124">April</textPath></text><path d="M 120.99922638620191 99.81974689727618 l 13.52007931992957 -0.116053620341504 a34.52057740113127,34.52057740113127 0 0,0 0.0,0.5926134461306601 l -13.52007931992957 -0.11605362034150236" fill="#ff720a" stroke="none" /><path d="M 120.99922638620191 100.18025310272382 l 8.881395289047601 0.07623609688876494 a29.881722480621974,29.881722480621974 0 0,0 -0.008805956358139926,0.5129028106807872 l -8.878777901090793 -0.2286858235386232" fill="#ff2c04" stroke="none" /><path d="M 120.98066250479742 100.90099992219065 l 15.011032354719797 0.644638317808657 a36.024867750340825,36.024867750340825 0 0,0 -0.031836394546833346,0.6176175490474123 l -14.997754370716391 -0.9022276602328" fill="#ff880c" stroke="none" /><path d="M 120.96210409425399 101.26102812881392 l 14.885452241782078 0.8954718430268986 a35.91236259832858,35.91236259832858 0 0,0 -0.04230140932792781,0.61505320774488 l -14.867886871289084 -1.1508684749261222" fill="#ff860c" stroke="none" /><path d="M 120.93736805541906 101.62068470465957 l 44.49612294355798 3.4442813289806686 a65.62922843699397,65.62922843699397 0 0,0 -0.09658865219666164,1.1225065491211057 l -44.43044066866357 -4.207608925477432" fill="#34ff5d" stroke="none" /><path d="M 120.86939407059847 102.33845913500097 l 10.563894275440664 1.1837063877379925 a31.630005789041686,31.630005789041686 0 0,0 -0.06509442199034013,0.5390751938498671 l -10.54201776719066 -1.3648752585112682" fill="#ff4706" stroke="none" /><path d="M 120.7213421655516 103.40968896794604 l 17.56248041973249 2.8898994697593743 a38.79865830445662,38.79865830445662 0 0,0 -0.11378202155887618,0.6562644639560228 l -17.51028358068138 -3.190956966635985" fill="#ffb010" stroke="none" /><path d="M 120.65975698304385 103.76489593502545 l 14.848012365636187 2.705802466334492 a36.09254246960753,36.09254246960753 0 0,0 -0.11631029380390355,0.6085846052340088 l -14.799375779550125 -2.9602896366018157" fill="#ff890c" stroke="none" /><path d="M 120.592083275326 104.11899336999214 l 13.36340507491318 2.6730552789693496 a34.6281260531535,34.6281260531535 0 0,0 -0.12159796595342875,0.5818902860463327 l -13.315549398135387 -2.9020620163010915" fill="#ff740a" stroke="none" /><path d="M 120.51834098615036 104.47187691870673 l 10.406924598653642 2.268140778967139 a31.651222568103435,31.651222568103435 0 0,0 -0.12025827520740916,0.5298801497047477 l -10.366455461888568 -2.446455262610904" fill="#ff4706" stroke="none" /><path d="M 120.35273937422433 105.17358676015961 l 18.74045905178053 4.763751406967552 a40.3364457162853,40.3364457162853 0 0,0 -0.17634809636685556,0.6696224457621516 l -18.65592147460894 -5.084754357102507" fill="#ffc512" stroke="none" /><path d="M 120.26092885502905 105.52220625578681 l 10.525617359724107 2.868803816734161 a31.909567184001112,31.909567184001112 0 0,0 -0.14857931411900646,0.5272555697396656 l -10.47481955353052 -3.0490673103768353" fill="#ff4b07" stroke="none" /><path d="M 120.16314734710363 105.8691983318838 l 8.739040938062228 2.543807452922613 a30.101746693611737,30.101746693611737 0 0,0 -0.1486792353038087,0.49490481902578115 l -8.69408538275479 -2.6934498755391174" fill="#ff2f04" stroke="none" /><path d="M 120.05942366710727 106.21446072829308 l 14.13042382524858 4.377641421479954 a35.792992323942094,35.792992323942094 0 0,0 -0.18686547079132987,0.5853534257565869 l -14.053193638679994 -4.619563880927925" fill="#ff850c" stroke="none" /><path d="M 119.94978838288452 106.5578916946017 l 11.975748269337656 3.936666324716903 a33.60618452834576,33.60618452834576 0 0,0 -0.1848573446834843,0.5464978925591644 l -11.906405503081807 -4.141665891750228" fill="#ff6409" stroke="none" /><path d="M 119.83427380445688 106.89939002012753 l 22.588111110162558 7.857317585883489 a44.915689477213135,44.915689477213135 0 0,0 -0.2595695446339826,0.726062213693483 l -22.44990139548463 -8.243914755957894" fill="#fbff18" stroke="none" /><path d="M 119.58574465831526 107.57618678355244 l 17.93798825961753 6.93879921069712 a40.23326174335875,40.23326174335875 0 0,0 -0.2546982441236594,0.6420059563990449 l -17.816231340527747 -7.2457061843097295" fill="#ffc412" stroke="none" /><path d="M 119.4528033332814 107.91128576633889 l 10.968140289977045 4.460647171137894 a32.840501450783165,32.840501450783165 0 0,0 -0.21686327636598463,0.5203929169746281 l -10.889951169074575 -4.6482725975538" fill="#ff5908" stroke="none" /><path d="M 119.31412917781788 108.2440532568976 l 13.876851040633726 5.923202540677247 a36.08811860842241,36.08811860842241 0 0,0 -0.24809055184805937,0.5676797336566707 l -13.7731266067687 -6.160544344109762" fill="#ff890c" stroke="none" /><path d="M 119.0197475246899 108.90220220490707 l 43.886536033752726 20.541114824907595 a69.45580918003449,69.45580918003449 0 0,0 -0.5147030744567488,1.0755314668713825 l -43.527453701336064 -21.29145879384408" fill="#39ff8d" stroke="none" /><path d="M 118.70294669586154 109.54985784667822 l 10.643897874481587 5.434850095485302 a32.951157162500635,32.951157162500635 0 0,0 -0.2615567627108173,0.5015695800498713 l -10.54903304279582 -5.616765918639676" fill="#ff5b08" stroke="none" /><path d="M 118.5362547648365 109.86951160357373 l 9.463537405565342 5.038800632599362 a31.721382935126332,31.721382935126332 0 0,0 -0.2600468375673632,0.47845689143821274 l -9.375645218382639 -5.200512357512179" fill="#ff4806" stroke="none" /><line stroke="#e1ed5e" stroke-width="0.3" x1="174.33088141563837" x2="178.70328620479359" y1="141.23008692659167" y2="143.65538615756765" /><path d="M 175.20536237346943 141.71514677278685 a86.0,86.0 0 0,1 -30.301960400862466,31.631185727798858" fill="none" id="id125" stroke="none" /><text fill="#e1ed5e" style="font-size:6.75px; font-family:Arial;" text-anchor="middle"><textPath startOffset="22.145653131862474" xlink:href="#id125">May</textPath></text><path d="M 118.36410011445183 110.18625677009912 l 38.82087471072215 21.533284799077503 a65.39304751358898,65.39304751358898 0 0,0 -0.552934447523101,0.9769821876178543 l -38.44550689817767 -22.19652375679448" fill="#34ff5a" stroke="none" /><path d="M 118.00360718960297 110.81064883170644 l 19.50898965976923 11.714587751889754 a43.75592766163815,43.75592766163815 0 0,0 -0.39220320623296256,0.640634462166311 l -19.30501848908086 -12.047759330180622" fill="#fff417" stroke="none" /><path d="M 117.81537515405839 111.11811171558189 l 10.2135244577797 6.3739946506573855 a33.03926449814411,33.03926449814411 0 0,0 -0.30440538867065264,0.4785758313814223 l -10.102601377483156 -6.54838415671748" fill="#ff5c08" stroke="none" /><path d="M 117.62189284568427 111.42229804090321 l 12.413358361882741 8.046188916231435 a35.792992323942094,35.792992323942094 0 0,0 -0.3386282301269199,0.5127263002617769 l -12.273405692835095 -8.258095094832273" fill="#ff850c" stroke="none" /><path d="M 117.423217284605 111.72311816256416 l 6.4818839037580265 4.361300767735945 a28.812538852924288,28.812538852924288 0 0,0 -0.27963291079206226,0.4079927737764038 l -6.406061256150644 -4.471928276582394" fill="#ff1b02" stroke="none" /><path d="M 117.01052211995028 112.31430620078461 l 7.433835204620076 5.381523407121114 a30.177292630773046,30.177292630773046 0 0,0 -0.307374378483342,0.4170123773712924 l -7.340358806552906 -5.508342093761284" fill="#ff3004" stroke="none" /><path d="M 116.1254893667686 113.45245675266167 l 48.249722638919884 40.251634686238354 a83.83494115257119,83.83494115257119 0 0,0 -0.9313879780455233,1.0971726961958672 l -47.55164009736725 -41.07397416488378" fill="#4dd4ff" stroke="none" /><path d="M 115.41159269507618 114.26474011684316 l 4.4772773410480955 4.144101065004555 a27.100785689207136,27.100785689207136 0 0,0 -0.31894290877387593,0.33870631649268423 l -4.40547859853796 -4.220348841441736" fill="#ff0000" stroke="none" /><path d="M 115.16444852881244 114.52719865689866 l 4.724815431810749 4.526266304025655 a27.543009056973332,27.543009056973332 0 0,0 -0.33000879117892146,0.3386180919373002 l -4.6464198394810206 -4.606707088030692" fill="#ff0701" stroke="none" /><path d="M 114.65682725009322 115.03919595460226 l 15.872288084139745 16.286365846589206 a43.74148723181648,43.74148723181648 0 0,0 -0.542243458838713,0.5194569675242084 l -15.59037213943572 -16.556434944418996" fill="#fff417" stroke="none" /><path d="M 114.39649973595853 115.28858382429668 l 12.457817514869308 13.229770488457532 a39.17206769773452,39.17206769773452 0 0,0 -0.49351251947116087,0.45678782030839227 l -12.22887522408418 -13.441676054898304" fill="#ffb510" stroke="none" /><path d="M 114.13192950727249 115.5334660781643 l 5.177468726357314 5.6909450892916285 a28.6937012173427,28.6937012173427 0 0,0 -0.3671905250943142,0.32834403174847393 l -5.079013174439622 -5.77898465092349" fill="#ff1902" stroke="none" /><path d="M 113.86319453409587 115.77377054828091 l 5.374337120005903 6.115009089108964 a29.141058631367212,29.141058631367212 0 0,0 -0.37858470362241575,0.327012450127208 l -5.268572936620631 -6.2063656717008895" fill="#ff2003" stroke="none" /><path d="M 113.59037401385872 116.0094264158162 l 10.636659680957742 12.529958358667882 a37.43588712660388,37.43588712660388 0 0,0 -0.4934863990505839,0.4116839055399825 l -10.419998947745261 -12.710704448119733" fill="#ff9c0e" stroke="none" /><path d="M 113.31354834802062 116.24036423190432 l 5.63019256852436 6.86791947709348 a29.880731180623975,29.880731180623975 0 0,0 -0.39947582191342695,0.3217894447237504 l -5.51146597625568 -6.963557215610634" fill="#ff2c04" stroke="none" /><path d="M 112.7482090630111 116.68781488649013 l 26.30616035932627 34.435608349450156 a64.33388045452784,64.33388045452784 0 0,0 -0.8833562924207226,0.6628870301253007 l -25.71115107799478 -34.88211440683948" fill="#32ff4d" stroke="none" /><path d="M 111.8722381534696 117.32195027204791 l 8.867364052428748 12.937749156878835 a36.684881207220684,36.684881207220684 0 0,0 -0.522504006657152,0.3515640142918549 l -8.643963757674591 -13.088062845227812" fill="#ff920d" stroke="none" /><path d="M 111.5731344415666 117.5232005979908 l 6.239845794320255 9.44792183193561 a32.32249541749793,32.32249541749793 0 0,0 -0.4656199650047662,0.3018092358552685 l -6.076740197058479 -9.553644909494773" fill="#ff5107" stroke="none" /><path d="M 110.96478420261333 117.91015095944535 l 10.53200683829989 17.20324165932095 a41.17113511012683,41.17113511012683 0 0,0 -0.6059356779946781,0.36384696468968686 l -10.235138403747776 -17.38150262454656" fill="#ffd113" stroke="none" /><line stroke="#e1ed5e" stroke-width="0.3" x1="143.1302829299769" x2="145.66735839644613" y1="173.24464959558577" y2="177.55315839532614" /><path d="M 143.63769802327073 174.10635135553383 a86.0,86.0 0 0,1 -40.68552437913181,11.842963189579606" fill="none" id="id126" stroke="none" /><text fill="#e1ed5e" style="font-size:6.75px; font-family:Arial;" text-anchor="middle"><textPath startOffset="21.407464694133747" xlink:href="#id126">June</textPath></text><path d="M 110.02825361518725 118.45085714620011 l 4.947202228624648 9.102294885669558 a31.359854346302118,31.359854346302118 0 0,0 -0.4751931613475232,0.25301359305630217 l -4.790220251490571 -9.18587894644843" fill="#ff4206" stroke="none" /><path d="M 109.71004243097381 118.62028667847754 l 15.436122553220711 29.60080032485057 a54.38384728202732,54.38384728202732 0 0,0 -0.8314844257497502,0.424561872348915 l -14.925710905757379 -29.861420148872323" fill="#85ff25" stroke="none" /><path d="M 108.4095320186766 119.2426549942271 l 8.512286013025577 19.477776242133043 a42.256593812418615,42.256593812418615 0 0,0 -0.6671811595699144,0.28477996397632427 l -8.17666977828523 -19.621030855768772" fill="#ffe015" stroke="none" /><path d="M 107.74402155503746 119.51999308798841 l 8.529984150370899 21.501132256996282 a44.13134924595677,44.13134924595677 0 0,0 -0.7065801766702825,0.27332039140706366 l -8.159631711207085 -21.64439253654139" fill="#fff917" stroke="none" /><path d="M 106.0420521117495 120.11202640906438 l 4.417137555201568 14.703214325134432 a36.35238143326339,36.35238143326339 0 0,0 -0.599191088533757,0.1744157931676831 l -4.1640864542862035 -14.776873812604633" fill="#ff8d0d" stroke="none" /><path d="M 104.64783097203109 120.47920084513623 l 3.0974562548901785 13.647963778080195 a34.99504021211612,34.99504021211612 0 0,0 -0.586979447363426,0.12792943855409677 l -2.8627143909076165 -13.69912467476801" fill="#ff790b" stroke="none" /><path d="M 104.29559338865022 120.5559693870025 l 2.5273680814420847 12.094371187244876 a33.35562235720853,33.35562235720853 0 0,0 -0.5614918919321592,0.11231410388399818 l -2.3193797039789668 -12.135974687791737" fill="#ff6108" stroke="none" /><path d="M 103.58742460773223 120.69131181640829 l 6.137418771522329 35.39900051857054 a56.92710880227898,56.92710880227898 0 0,0 -0.9642977755769575,0.1586748320128436 l -5.5288434928923 -35.49914134907905" fill="#68ff28" stroke="none" /><path d="M 103.2317021107853 120.74984581791261 l 2.0501244625608535 13.163269709698428 a34.32196230899392,34.32196230899392 0 0,0 -0.5829420134236859,0.08567240126255583 l -1.8238573435294818 -13.196523184259865" fill="#ff6f0a" stroke="none" /><path d="M 102.51750503828377 120.84855314841334 l 1.8446370920949209 15.2762413060723 a36.38721009289475,36.38721009289475 0 0,0 -0.6207729055806301,0.06955889887868257 l -1.5821282849134914 -15.305655965457955" fill="#ff8d0d" stroke="none" /><path d="M 102.15924093988457 120.88869738790638 l 1.6732642266325182 16.18731352972792 a37.27356545081135,37.27356545081135 0 0,0 -0.6370237578330191,0.06032681217789113 l -1.3951409054144837 -16.213652097410996" fill="#ff9a0e" stroke="none" /><path d="M 101.80034050326958 120.92268563240118 l 1.319041595641812 15.32926276532368 a36.385908086927216,36.385908086927216 0 0,0 -0.6227725485571488,0.04820653394719289 l -1.0557000523094273 -15.349647066265927" fill="#ff8d0d" stroke="none" /><path d="M 101.44090949804482 120.95050786540614 l 1.1164683638069328 16.23320497862854 a37.27155325977063,37.27155325977063 0 0,0 -0.6386847116820995,0.03842168626074749 l -0.8376392999923681 -16.249978642713977" fill="#ff9a0e" stroke="none" /><path d="M 101.08105385017728 120.97215588758144 l 2.4616547056805316 47.75544365386088 a68.81884714698882,68.81884714698882 0 0,0 -1.1803226632140222,0.050688133774250015 l -1.6415062818656798 -47.79066435606096" fill="#38ff85" stroke="none" /><path d="M 100.72087961077811 120.9876233191556 l 0.2642221018672396 7.692538204263454 a28.697074596440387,28.697074596440387 0 0,0 -0.49247826712741893,0.012684493220523813 l -0.13213052066907685 -7.695940414834023" fill="#ff1902" stroke="none" /><line stroke="#e1ed5e" stroke-width="0.3" x1="101.45913802915013" x2="101.54496967792366" y1="184.9874750549273" y2="189.98673829345242" /><path d="M 101.47630435890484 185.9873277026323 a86.0,86.0 0 0,1 -42.54439059252881,-10.42667462771756" fill="none" id="id127" stroke="none" /><text fill="#e1ed5e" style="font-size:6.75px; font-family:Arial;" text-anchor="middle"><textPath startOffset="22.145653131862474" xlink:href="#id127">July</textPath></text><path d="M 99.63950707515114 120.99690560180557 l -0.26420364076980274 15.388537534329917 a36.3908054048278,36.3908054048278 0 0,0 -0.6245124646734453,-0.016085225791763486 l 0.5283294195139919 -15.381734591188104" fill="#ff8d0d" stroke="none" /><path d="M 99.27912038922189 120.98762331915562 l -0.5180379475686296 15.082109614479744 a36.09100373528227,36.09100373528227 0 0,0 -0.6190023723575038,-0.026582625272316345 l 0.7768660805269723 -15.0709944207816" fill="#ff890c" stroke="none" /><path d="M 98.55909050195518 120.95050786540614 l -2.399204691613628 34.88390966301139 a55.966317171377945,55.966317171377945 0 0,0 -0.9579061733160161,-0.0741479960367051 l 2.9976798597048804 -34.83758389997963" fill="#73ff27" stroke="none" /><path d="M 97.84075906011543 120.88869738790638 l -1.1185424303068112 10.820883353323874 a31.878540973615827,31.878540973615827 0 0,0 -0.5438541304854502,-0.06093998969205601 l 1.3041324623930606 -10.800087603124847" fill="#ff4a06" stroke="none" /><path d="M 97.48249496171623 120.84855314841334 l -1.4188397294587092 11.75002832521283 a32.835382200047206,32.835382200047206 0 0,0 -0.5590179696766252,-0.07237606810428956 l 1.6203355210261283 -11.723940660908141" fill="#ff5908" stroke="none" /><path d="M 97.12497278360702 120.80226474461374 l -2.3412494167473046 16.940114487491126 a38.10113819839856,38.10113819839856 0 0,0 -0.6471294972924194,-0.0951057509738574 l 2.631704019647409 -16.897427663218387" fill="#ffa60f" stroke="none" /><path d="M 96.41257539226777 120.69131181640829 l -1.6021565541676646 9.240813247903054 a30.378674485591393,30.378674485591393 0 0,0 -0.513060032418951,-0.0934966288356378 l 1.7605513201376728 -9.21194844513605" fill="#ff3304" stroke="none" /><path d="M 96.05791012581884 120.62667999033965 l -3.888071407965168 20.344032549066416 a41.71223695381332,41.71223695381332 0 0,0 -0.702162969501831,-0.14045225912122974 l 4.236730862997957 -20.274290893282323" fill="#ffd814" stroke="none" /><path d="M 95.70440661134978 120.55596938700252 l -4.66648137291616 22.33080265467675 a43.813171537642276,43.813171537642276 0 0,0 -0.734887888698588,-0.16016539492771678 l 5.049131678233884 -22.247405801615315" fill="#fff517" stroke="none" /><path d="M 94.30408787586889 120.21278271476187 l -2.227076766329862 7.90310977169208 a29.210908292420584,29.210908292420584 0 0,0 -0.4814792111743086,-0.14015158121963336 l 2.3624159898857777 -7.863714496169931" fill="#ff2103" stroke="none" /><path d="M 93.95794788825049 120.11202640906438 l -4.681934998318727 15.584638892570498 a37.27272210603692,37.27272210603692 0 0,0 -0.6112005235993497,-0.18935148457174106 l 4.948776154789711 -15.501970820192106" fill="#ff9a0e" stroke="none" /><path d="M 93.61358852112213 120.00534299687104 l -8.16542823578764 25.578087649618396 a47.849819107125455,47.849819107125455 0 0,0 -0.7803559548504294,-0.2565185021981013 l 8.603306928285814 -25.434148226018273" fill="#d5ff1c" stroke="none" /><path d="M 92.59220618246901 119.65005319985036 l -6.783665078773956 17.99447756934249 a40.23068732246841,40.23068732246841 0 0,0 -0.6441272846078024,-0.24916227111636927 l 7.091564625875287 -17.875375410088083" fill="#ffc412" stroke="none" /><path d="M 91.26138138417905 119.09545874513695 l -18.912748474984152 41.32776862550873 a66.44971412937159,66.44971412937159 0 0,0 -1.0331705534882356,-0.4835759868719901 l 19.619407742343878 -40.99701640706621" fill="#35ff68" stroke="none" /><path d="M 90.6110303473126 118.78422872680471 l -4.896512017696384 9.79630407875803 a31.95186758242339,31.95186758242339 0 0,0 -0.48851785219659055,-0.24944069615908535 l 5.063957091606557 -9.710805430926108" fill="#ff4b07" stroke="none" /><path d="M 90.28995756902619 118.62028667847754 l -6.845500726974159 13.127150257076874 a35.8048287418287,35.8048287418287 0 0,0 -0.5425474740236503,-0.28887597080959077 l 7.06983701678437 -13.00770381854471" fill="#ff850c" stroke="none" /><path d="M 89.97174638481275 118.45085714620012 l -5.709268439771179 10.504410880872989 a32.95568459234226,32.95568459234226 0 0,0 -0.49473671909668,-0.274422118312743 l 5.888749347023962 -10.404855847127097" fill="#ff5b08" stroke="none" /><line stroke="#e1ed5e" stroke-width="0.3" x1="58.13341422392154" x2="55.67067388415222" y1="173.97424548756322" y2="178.32567169271397" /><path d="M 57.64086615596768 174.84453072859336 a86.0,86.0 0 0,1 -31.369924170532247,-30.572349798747897" fill="none" id="id128" stroke="none" /><text fill="#e1ed5e" style="font-size:6.75px; font-family:Arial;" text-anchor="middle"><textPath startOffset="22.145653131862474" xlink:href="#id128">August</textPath></text><path d="M 89.65649057296885 118.27599006163327 l -10.93109860276676 19.31420383345071 a43.19295803590615,43.19295803590615 0 0,0 -0.6421508016285512,-0.3707459381805808 l 11.26104187225571 -19.123710997993957" fill="#ffec16" stroke="none" /><path d="M 89.03521579738668 117.91015095944536 l -6.226206308084927 10.170040086687195 a32.92456960882283,32.92456960882283 0 0,0 -0.4795006871684801,-0.2992438925106174 l 6.399871124043119 -10.061660397335029" fill="#ff5a08" stroke="none" /><path d="M 88.72937992617639 117.7192867562869 l -10.22061065410978 16.06849754656778 a40.04356835120343,40.04356835120343 0 0,0 -0.5768454648541679,-0.3739042610692852 l 10.494941751220956 -15.8906794437946" fill="#ffc112" stroke="none" /><path d="M 88.4268655584334 117.5232005979908 l -8.479941179876645 12.839711756949617 a36.387254479461824,36.387254479461824 0 0,0 -0.51826489908409,-0.34871175353134143 l 8.69910236705774 -12.692250329361155" fill="#ff8d0d" stroke="none" /><path d="M 88.1277618465304 117.32195027204791 l -4.254922805789647 6.20805953355572 a28.526245495291853,28.526245495291853 0 0,0 -0.40154753327573967,-0.280311363979479 l 4.360865430239152 -6.1341033537711125" fill="#ff1702" stroke="none" /><path d="M 87.83215693770417 117.11559508785305 l -8.728974908430573 12.278396368184069 a36.06499320697644,36.06499320697644 0 0,0 -0.5015077560557846,-0.3630529402090693 l 8.938463674860312 -12.126742656601934" fill="#ff890c" stroke="none" /><path d="M 87.2517909369889 116.68781488649013 l -10.109148101460262 13.233199372825108 a37.6527007112419,37.6527007112419 0 0,0 -0.5102659133355004,-0.3967858605254688 l 10.33482395943099 -13.057712460678847" fill="#ff9f0e" stroke="none" /><path d="M 86.96720088162412 116.46651593811092 l -6.980156316201667 8.81919948180432 a32.24726018630616,32.24726018630616 0 0,0 -0.4311139740694709,-0.34727490055337895 l 7.1305210606264 -8.69807628745753" fill="#ff5007" stroke="none" /><path d="M 86.68645165197938 116.24036423190432 l -11.400307237947661 13.906521166268313 a38.98216716826619,38.98216716826619 0 0,0 -0.5138697324841759,-0.4286884072486566 l 11.637351304593729 -13.708770575107785" fill="#ffb210" stroke="none" /><path d="M 86.40962598614128 116.0094264158162 l -8.53819469632047 10.05797188328033 a34.1933152420888,34.1933152420888 0 0,0 -0.44422085966567176,-0.38370739844198426 l 8.709595035749004 -9.909920352373625" fill="#ff6d0a" stroke="none" /><path d="M 86.13680546590413 115.77377054828092 l -11.719631314518951 13.334789092875292 a38.75292534484723,38.75292534484723 0 0,0 -0.4959174453839728,-0.4434524376410646 l 11.946813786726295 -13.131641125350844" fill="#ffaf10" stroke="none" /><path d="M 85.86807049272751 115.53346607816431 l -4.980456842386805 5.4743945174057265 a28.400942216439702,28.400942216439702 0 0,0 -0.3578116084334407,-0.331185082948851 l 5.073698222134213 -5.388091688324498" fill="#ff1502" stroke="none" /><path d="M 85.34317274990678 115.03919595460226 l -15.105187868707654 15.499253447715342 a42.64240185343274,42.64240185343274 0 0,0 -0.5198475914068497,-0.515404476298271 l 15.369027380244466 -15.237668961188412" fill="#ffe515" stroke="none" /><path d="M 85.08716467003676 114.78537596483092 l -25.43918250564824 25.22175490184842 a56.82302230248858,56.82302230248858 0 0,0 -0.680829638562288,-0.6985911869824488 l 25.86839894536134 -24.781341022798234" fill="#69ff28" stroke="none" /><path d="M 83.8745106332314 113.45245675266167 l -14.023949032567472 11.699277061999053 a39.26319331993908,39.26319331993908 0 0,0 -0.4273203676247931,-0.5212613671823761 l 14.222716219430895 -11.456813413118182" fill="#ffb610" stroke="none" /><path d="M 83.64595745247003 113.17365903436017 l -13.6556271595019 11.000006608567661 a38.53500209603233,38.53500209603233 0 0,0 -0.41055112210381983,-0.5187179311311582 l 13.842444712247282 -10.763968733521823" fill="#ffac0f" stroke="none" /><path d="M 83.4222238831116 112.89097897827486 l -20.097553523500743 15.627979178839924 a46.458699708434274,46.458699708434274 0 0,0 -0.48416164599435374,-0.6337831364042331 l 20.362867146849393 -15.28067512919482" fill="#e7ff1a" stroke="none" /><path d="M 81.99639281039703 110.81064883170644 l -29.892695032032037 17.949704479845455 a55.867823379038974,55.867823379038974 0 0,0 -0.4866520787548997,-0.8264416220323932 l 30.196420820916707 -17.4339116895195" fill="#74ff27" stroke="none" /><line stroke="#e1ed5e" stroke-width="0.3" x1="26.387840678322732" x2="22.057713659400548" y1="142.50000000000003" y2="145.00000000000006" /><path d="M 25.521815274538298 143.00000000000003 a86.0,86.0 0 0,1 -11.493303480769221,-40.785679425670985" fill="none" id="id129" stroke="none" /><text fill="#e1ed5e" style="font-size:6.75px; font-family:Arial;" text-anchor="middle"><textPath startOffset="21.40746469413373" xlink:href="#id129">September</textPath></text><path d="M 81.4637452351635 109.86951160357371 l -19.065768760304007 10.151447981165761 a42.59989431769745,42.59989431769745 0 0,0 -0.33814564977524164,-0.6484388696191966 l 19.237222479054196 -9.82266286844206" fill="#ffe415" stroke="none" /><path d="M 81.29705330413844 109.54985784667822 l -9.358823993895182 4.778682215543963 a31.508253435555517,31.508253435555517 0 0,0 -0.2418334772994964,-0.48382895242312607 l 9.439477384406416 -4.6173214069570845" fill="#ff4506" stroke="none" /><path d="M 81.1358732173502 109.22738970284198 l -15.746922584259512 7.702608924314888 a38.52985325425166,38.52985325425166 0 0,0 -0.2855259216248735,-0.5966393607404182 l 15.876827763844297 -7.431157061509365" fill="#ffac0f" stroke="none" /><path d="M 80.83023694016515 108.57439118712176 l -43.54778044772877 19.47836828886377 a68.7055134457245,68.7055134457245 0 0,0 -0.4723213457233455,-1.0807636717451516 l 43.87573567546908 -18.727942547342767" fill="#38ff84" stroke="none" /><path d="M 80.68587082218212 108.24405325689762 l -10.339504304817444 4.413319562796234 a32.24200777586897,32.24200777586897 0 0,0 -0.212911104703176,-0.5109091437214577 l 10.413741254057106 -4.235177909633495" fill="#ff5007" stroke="none" /><path d="M 80.41425534168474 107.57618678355246 l -11.316153850518239 4.377331408052639 a33.133275247208516,33.133275247208516 0 0,0 -0.2006445693416944,-0.532233558187696 l 11.38962910367437 -4.182429569670798" fill="#ff5d08" stroke="none" /><path d="M 80.16572619554312 106.89939002012753 l -16.416791878398783 5.710612405828727 a38.38166130231127,38.38166130231127 0 0,0 -0.2111257821280319,-0.6241558602685318 l 16.512403082099183 -5.427954871086033" fill="#ffaa0f" stroke="none" /><path d="M 79.83685265289637 105.86919833188381 l -28.418912394011432 8.272331216229674 a50.59841288666513,50.59841288666513 0 0,0 -0.23559948146149381,-0.8360594445122549 l 28.5567303675475 -7.783263847814423" fill="#b2ff20" stroke="none" /><path d="M 79.64726062577567 105.17358676015961 l -14.33965347079994 3.6450838374986403 a35.795685109011295,35.795685109011295 0 0,0 -0.14627220377372085,-0.5968405069087089 l 14.400113201089955 -3.398387505981832" fill="#ff850c" stroke="none" /><path d="M 79.34024301695615 103.76489593502545 l -8.731779723976112 1.591221136594992 a29.875582338843294,29.875582338843294 0 0,0 -0.08761396146968788,-0.505334047252935 l 8.757808502938035 -1.4410940564214645" fill="#ff2c04" stroke="none" /><path d="M 79.2786578344484 103.40968896794605 l -62.16402649665483 10.22906690383814 a84.0,84.0 0 0,0 -0.2219140314469299,-1.4248472722742 l 62.33046202024003 -9.16043144963249" fill="#4dd2ff" stroke="none" /><path d="M 79.0935383218832 101.97986365728391 l -16.978818309743243 1.6079117467435236 a38.05478382685011,38.05478382685011 0 0,0 -0.05600645271945433,-0.6508798760606486 l 17.003918385160436 -1.316210823307213" fill="#ffa50f" stroke="none" /><path d="M 79.06263194458094 101.62068470465958 l -23.601568353862866 1.82691065733942 a44.67216997471844,44.67216997471844 0 0,0 -0.05261964434930497,-0.7650780804143995 l 23.629451959377235 -1.421489152770677" fill="#feff18" stroke="none" /><path d="M 79.03789590574601 101.26102812881392 l -20.67320622758815 1.2436487505519895 a41.71057985530919,41.71057985530919 0 0,0 -0.03686105071234465,-0.7150945363106489 l 20.691508867757065 -0.8885824208646098" fill="#ffd814" stroke="none" /><line stroke="#e1ed5e" stroke-width="0.3" x1="15.003131293944662" x2="10.003315487706104" y1="100.72959589197737" y2="100.7725132973878" /><path d="M 14.003168132696942 100.73817937305945 a86.0,86.0 0 0,1 10.791469493833604,-42.45332614584628" fill="none" id="id130" stroke="none" /><text fill="#e1ed5e" style="font-size:6.75px; font-family:Arial;" text-anchor="middle"><textPath startOffset="22.145653131862435" xlink:href="#id130">October</textPath></text><path d="M 79.00077361379809 100.18025310272382 l -16.421048880857438 0.14095495502153343 a37.421653834095224,37.421653834095224 0 0,0 0.0,-0.6424161154906959 l 16.421048880857438 0.14095495502152738" fill="#ff9c0e" stroke="none" /><path d="M 79.00077361379809 99.81974689727619 l -14.649513092773402 -0.12574845090963094 a35.65005278243889,35.65005278243889 0 0,0 0.010505847150251883,-0.6119129272045792 l 14.645195814024484 0.37720829408326256" fill="#ff830c" stroke="none" /><path d="M 79.01933749520258 99.09900007780938 l -17.981085240804674 -0.7721851680881605 a38.99765808017529,38.99765808017529 0 0,0 0.03446354994686619,-0.6685836619577946 l 17.965180101401238 1.080740623422667" fill="#ffb310" stroke="none" /><path d="M 79.03789590574601 98.7389718711861 l -23.63249433688388 -1.4216721746465784 a44.67521785232425,44.67521785232425 0 0,0 0.052623234464491894,-0.7651302799012625 l 23.604607141254323 1.827145878702166" fill="#feff18" stroke="none" /><path d="M 79.0935383218832 98.0201363427161 l -11.866152458441046 -1.1237369750065576 a32.91924322077385,32.91924322077385 0 0,0 0.05810655178610938,-0.5621281785161135 l 11.845113514173274 1.327269675805584" fill="#ff5a08" stroke="none" /><path d="M 79.22317932658666 96.9465228501225 l -23.425378647401274 -3.442723963950767 a44.6770081105296,44.6770081105296 0 0,0 0.11802922598565246,-0.7578322992816715 l 23.36282792927735 3.844344445163889" fill="#feff18" stroke="none" /><path d="M 79.2786578344484 96.59031103205396 l -14.454428736641818 -2.3784707480591822 a35.6488099585608,35.6488099585608 0 0,0 0.10454468892774388,-0.6029859840652644 l 14.411469230221838 2.6262497650450394" fill="#ff830c" stroke="none" /><path d="M 79.407916724674 95.88100663000787 l -30.617163913310783 -6.124290266347174 a52.223671426675864,52.223671426675864 0 0,0 0.18338538476948496,-0.8775654523785791 l 30.50752081771693 6.648972170011162" fill="#9fff22" stroke="none" /><path d="M 79.56144815229197 95.17655741523228 l -13.48256248108762 -3.1818480344223694 a34.85292921986498,34.85292921986498 0 0,0 0.14241981259566663,-0.5811214362705365 l 13.425955141975654 3.4128252953010234" fill="#ff770a" stroke="none" /><path d="M 79.94057633289273 93.78553927170692 l -9.132585026219813 -2.829298185984464 a30.56080736582164,30.56080736582164 0 0,0 0.15954965722039752,-0.4997870288007314 l 9.082670653222157 2.985654248476587" fill="#ff3605" stroke="none" /><path d="M 80.05021161711548 93.44210830539832 l -59.76199555679533 -19.644954963580645 a83.90803103302102,83.90803103302102 0 0,0 0.46155242054630186,-1.3644977188546077 l 59.41595771467666 20.667954356909412" fill="#4dd3ff" stroke="none" /><path d="M 80.41425534168474 92.42381321644754 l -7.391107227877683 -2.8590390548103186 a28.924807276578807,28.924807276578807 0 0,0 0.1831096288427462,-0.46155588074641507 l 7.340938924068805 2.9854959527703167" fill="#ff1d02" stroke="none" /><path d="M 80.5471966667186 92.08871423366112 l -12.062109068181028 -4.905554749523628 a34.021480045419906,34.021480045419906 0 0,0 0.22466190537703112,-0.5391067876099286 l 11.976121318267518 5.11189404657482" fill="#ff6b09" stroke="none" /><path d="M 80.83023694016515 91.42560881287825 l -20.262518046797535 -9.063166593507848 a43.19708598664411,43.19708598664411 0 0,0 0.30858257004709416,-0.674308605840103 l 20.103951011895393 9.409664181562622" fill="#ffec16" stroke="none" /><path d="M 80.9802524753101 91.09779779509293 l -10.66894717181173 -4.9936059831313635 a32.77975103598013,32.77975103598013 0 0,0 0.24291472286232385,-0.5075983439199878 l 10.5816531909895 5.176016829116438" fill="#ff5808" stroke="none" /><path d="M 81.1358732173502 90.77261029715801 l -17.542482281873696 -8.580907149061874 a40.52871352933095,40.52871352933095 0 0,0 0.31106769352732994,-0.6223437630416021 l 17.39259467513462 8.880782768267245" fill="#ffc812" stroke="none" /><path d="M 81.46374523516351 90.13048839642627 l -18.896880798843608 -10.061524654340372 a42.408558622560356,42.408558622560356 0 0,0 0.3476585991897041,-0.6396526649049636 l 18.721376850038553 10.384432152719954" fill="#ffe215" stroke="none" /><line stroke="#e1ed5e" stroke-width="0.3" x1="26.387840678322718" x2="22.05771365940052" y1="57.49999999999999" y2="54.99999999999999" /><path d="M 25.521815274538284 56.99999999999999 a86.0,86.0 0 0,1 29.574782752854787,-30.34633250058573" fill="none" id="id131" stroke="none" /><text fill="#e1ed5e" style="font-size:6.75px; font-family:Arial;" text-anchor="middle"><textPath startOffset="21.40746469413373" xlink:href="#id131">November</textPath></text><path d="M 81.99639281039701 89.18935116829357 l -26.785482007284752 -16.083912335966268 a52.24346783559122,52.24346783559122 0 0,0 0.46828068069535894,-0.7649012992564549 l 26.505433362134003 16.541350751347267" fill="#9eff22" stroke="none" /><path d="M 82.78059297857968 87.97951657250589 l -12.192982589216045 -8.511648802021673 a35.87000301781686,35.87000301781686 0 0,0 0.35679533552887005,-0.5018773221253726 l 12.045072155157204 8.719703350856566" fill="#ff860c" stroke="none" /><path d="M 82.98947788004972 87.6856937992154 l -14.386135501841936 -10.414452676199062 a38.76011596871334,38.76011596871334 0 0,0 0.39479573935260764,-0.5356162431489424 l 14.20523774290551 10.659875228616867" fill="#ffaf10" stroke="none" /><path d="M 83.42222388311158 87.10902102172516 l -24.761306085320143 -19.254541379365865 a52.36653699056727,52.36653699056727 0 0,0 0.557912011230491,-0.7049036006422565 l 24.42712764344809 19.676764923922804" fill="#9dff22" stroke="none" /><path d="M 83.64595745247003 86.82634096563983 l -14.4004003609504 -11.599943179925859 a39.49135507022589,39.49135507022589 0 0,0 0.42980356256556135,-0.5242904612482683 l 14.199149979146208 11.84543592287262" fill="#ffba11" stroke="none" /><path d="M 84.10781606972428 86.27271002978789 l -13.605566175201115 -11.752164014417824 a38.978453492154266,38.978453492154266 0 0,0 0.44173527024463227,-0.5026136493132679 l 13.40181984099789 11.983989941542392" fill="#ffb210" stroke="none" /><path d="M 84.34580500576568 86.00192230759919 l -6.065090885785161 -5.423441669275403 a29.13627967764549,29.13627967764549 0 0,0 0.33659659231958167,-0.36997861800338533 l 5.971096592623714 5.526757862836446" fill="#ff2003" stroke="none" /><path d="M 85.08716467003674 85.21462403516908 l -13.027750986089153 -12.916403356141634 a39.34545642425104,39.34545642425104 0 0,0 0.4796549881324852,-0.4755553974834083 l 12.804104077826691 13.138138763853716" fill="#ffb711" stroke="none" /><path d="M 85.34317274990677 84.96080404539775 l -15.494711826792262 -15.898939343897876 a43.20050375230886,43.20050375230886 0 0,0 0.5355371310097775,-0.513032457167362 l 15.219502209917183 16.162583931370808" fill="#ffec16" stroke="none" /><path d="M 85.86807049272753 84.46653392183569 l -12.665483508512875 -13.92158504199938 a39.820866148666816,39.820866148666816 0 0,0 0.50958378077768,-0.45567295902092364 l 12.424634700911803 14.136953530903705" fill="#ffbe11" stroke="none" /><path d="M 86.13680546590413 84.22622945171909 l -9.766855932951746 -11.112889174684325 a35.79485655975923,35.79485655975923 0 0,0 0.46502720897370126,-0.4016794274233954 l 9.574649244215196 11.27891273457243" fill="#ff850c" stroke="none" /><path d="M 86.40962598614128 83.9905735841838 l -11.896529573358238 -14.014081924017892 a39.38265236745971,39.38265236745971 0 0,0 0.5191489982901002,-0.43309255854755724 l 11.654206240906229 14.21623666647733" fill="#ffb811" stroke="none" /><path d="M 86.96720088162412 83.53348406188908 l -25.59132934363518 -32.33380862291143 a62.23580140651403,62.23580140651403 0 0,0 0.8434138175214164,-0.6558436858475233 l 25.032505581478517 32.76835336037975" fill="#30ff31" stroke="none" /><path d="M 87.25179093698888 83.31218511350988 l -7.904707256244314 -10.347515542935618 a34.021346885718685,34.021346885718685 0 0,0 0.467140651796546,-0.350551053948603 l 7.725913615537015 10.481685624148222" fill="#ff6b09" stroke="none" /><path d="M 88.72937992617638 82.28071324371311 l -15.641051951719218 -24.59033157777888 a50.14321384579073,50.14321384579073 0 0,0 0.7302663567529456,-0.4557402168800622 l 15.216621466176573 24.85520759150048" fill="#b8ff1f" stroke="none" /><path d="M 89.03521579738668 82.08984904055464 l -8.502590420652924 -13.888342457659418 a37.284351386610524,37.284351386610524 0 0,0 0.5487319860287485,-0.3294977912597117 l 8.262925678066741 14.032254249455054" fill="#ff9a0e" stroke="none" /><line stroke="#e1ed5e" stroke-width="0.3" x1="56.869717070023135" x2="54.33264160355391" y1="26.7553504044142" y2="22.446841604673864" /><path d="M 56.362301976729285 25.89364864446614 a86.0,86.0 0 0,1 42.16139366436587,-11.88097634709845" fill="none" id="id132" stroke="none" /><text fill="#e1ed5e" style="font-size:6.75px; font-family:Arial;" text-anchor="middle"><textPath startOffset="22.145653131862474" xlink:href="#id132">December</textPath></text><path d="M 89.34428304082924 81.90426304109057 l -6.126764792875159 -10.404586057023426 a33.07446304583441,33.07446304583441 0 0,0 0.49171888020868426,-0.28389402785410367 l 5.9472534448060745 10.508226982153703" fill="#ff5c08" stroke="none" /><path d="M 89.97174638481275 81.54914285379989 l -8.380425004531485 -15.419038101397929 a38.54930936615278,38.54930936615278 0 0,0 0.584134351619698,-0.311018640739286 l 8.114501837125225 15.56062720985979" fill="#ffac0f" stroke="none" /><path d="M 90.28995756902619 81.37971332152246 l -15.351490097541951 -29.438506431878942 a54.200811874933216,54.200811874933216 0 0,0 0.8286859644792508,-0.423132958084378 l 14.843876911349119 29.697697341636154" fill="#87ff25" stroke="none" /><path d="M 90.61103034731259 81.2157712731953 l -13.957005710127103 -27.923360847726833 a52.21717619236058,52.21717619236058 0 0,0 0.8052379677320718,-0.39388224100689856 l 13.475607493132978 28.158836838830947" fill="#9fff22" stroke="none" /><path d="M 90.93487009805054 81.0573650232925 l -4.964038646013893 -10.372931562898938 a32.49953863803694,32.49953863803694 0 0,0 0.505307912347028,-0.23650961747064528 l 4.7852420197953425 10.456617411940126" fill="#ff5407" stroke="none" /><path d="M 91.5904679813234 80.7573450057729 l -5.927336158876808 -13.562905104203752 a35.80154413586517,35.80154413586517 0 0,0 0.5652636328662203,-0.24127743221726822 l 5.693637450840156 13.662657186080423" fill="#ff850c" stroke="none" /><path d="M 92.25597844496254 80.48000691201159 l -5.579805009100612 -14.064753621342424 a36.13114398744025,36.13114398744025 0 0,0 0.5784901331627407,-0.22377241089081149 l 5.337542613444342 14.158465920371277" fill="#ff8a0c" stroke="none" /><path d="M 92.592206182469 80.34994680014964 l -3.4127352406777467 -9.052685683235303 a30.67459972827906,30.67459972827906 0 0,0 0.4943151103198572,-0.18151935548716805 l 3.2568309787037624 9.109935887731194" fill="#ff3805" stroke="none" /><path d="M 92.93061703081487 80.22567764915836 l -5.055873636439391 -14.142178389240465 a36.01875719960686,36.01875719960686 0 0,0 0.5840085202180276,-0.2031484790310939 l 4.812359344176359 14.226885300840145" fill="#ff880c" stroke="none" /><path d="M 93.61358852112211 79.99465700312896 l -9.538358706448896 -29.878772794519108 a52.364332457735884,52.364332457735884 0 0,0 0.8586737326307722,-0.26601931732469863 l 9.024044340946508 30.038108699650447" fill="#9dff22" stroke="none" /><path d="M 94.30408787586887 79.78721728523814 l -5.008086502999548 -17.771932237684048 a39.46408692251961,39.46408692251961 0 0,0 0.6536354012753752,-0.17815123520512272 l 4.702269700789495 17.855283967033312" fill="#ffb911" stroke="none" /><path d="M 94.6519064749342 79.69241777938228 l -2.6565438105165313 -10.087329550594152 a31.431272332725463,31.431272332725463 0 0,0 0.5229485800117095,-0.13293148406446303 l 2.4829899372794437 10.131446266493878" fill="#ff4406" stroke="none" /><path d="M 96.05791012581881 79.37332000966035 l -7.0041883083032745 -36.64887291730218 a58.31217683232563,58.31217683232563 0 0,0 0.9848239873074157,-0.17946773670050353 l 6.37402958744482 36.763708827934046" fill="#58ff2a" stroke="none" /><path d="M 96.41257539226777 79.30868818359171 l -3.057992720951285 -17.637689384504768 a38.90082138634044,38.90082138634044 0 0,0 0.6589474912778783,-0.10842955893084702 l 2.754767726620334 17.687584941931284" fill="#ffb110" stroke="none" /><path d="M 96.76829788921471 79.25015418208739 l -2.3350842604994195 -14.992916028830253 a36.173666318697904,36.173666318697904 0 0,0 0.6143923149525915,-0.09029451253668701 l 2.077366839939143 15.030791614665825" fill="#ff8a0c" stroke="none" /><path d="M 97.12497278360702 79.19773525538626 l -2.0467276651475474 -14.809101808761687 a35.94986924750678,35.94986924750678 0 0,0 0.6120416931480851,-0.07924105067960033 l 1.7922081501086682 14.842054455641682" fill="#ff870c" stroke="none" /><path d="M 97.84075906011542 79.11130261209362 l -2.3725618525151817 -22.95238370847554 a44.074682395324615,44.074682395324615 0 0,0 0.7532582264451797,-0.07133433720398423 l 1.9782040626849866 22.989729801184712" fill="#fff817" stroke="none" /><path d="M 98.5590905019552 79.04949213459386 l -1.9448377352609272 -28.277513837482942 a49.34431482053384,49.34431482053384 0 0,0 0.8455633513486612,-0.05086699149810445 l 1.4591300317797822 28.30673280680574" fill="#c2ff1e" stroke="none" /><path d="M 98.9189461498227 79.02784411241856 l -1.197410879250343 -23.229451166568364 a44.26029222330905,44.26029222330905 0 0,0 0.7591150993864655,-0.03259966863889827 l 0.7984700192630575 23.246583403633093" fill="#fffb17" stroke="none" /><path d="M 99.27912038922189 79.0123766808444 l -0.6322416443173082 -18.40702563815402 a39.41788050619475,39.41788050619475 0 0,0 0.6764609200944264,-0.017423233729554614 l 0.316167410152138 18.41516658923362" fill="#ffb811" stroke="none" /></svg>