<?xml version="1.0" encoding="utf-8" ?>
<svg baseProfile="full" height="200mm" version="1.1" viewBox="0,0,200,200" width="200mm" xmlns="http://www.w3.org/2000/svg" xmlns:ev="http://www.w3.org/2001/xml-events" xmlns:xlink="http://www.w3.org/1999/xlink"><defs /><rect fill="#1a1a1a" height="200" width="200" x="0" y="0" /><rect fill="#1a1a1a" height="200" width="180" x="10" y="0" /><text alignment-baseline="middle" fill="#e1ed5e" style="dominant-baseline: central; font-size:9.0px; font-family:Arial;" text-anchor="middle" x="100.0" y="100.0">2023</text><line stroke="#e1ed5e" stroke-width="0.3" x1="100.0" x2="100.0" y1="15.0" y2="10.0" /><path d="M 100.0 14.0 a86.0,86.0 0 0,1 42.46469731375804,11.215312516191453" fill="none" id="id109" stroke="none" /><text fill="#e1ed5e" style="font-size:6.75px; font-family:Arial;" text-anchor="middle"><textPath startOffset="22.20632615414155" xlink:href="#id109">January</textPath></text><path d="M 102.88285421437855 79.19881850522331 l 1.3869141575237582 -10.007253562957533 a31.102903283396614,31.102903283396614 0 0,0 0.5296839529938114,0.07806164579251958 l -1.5589670909462257 9.981897433004045" fill="#ff6109" stroke="none" /><path d="M 105.01212808612495 79.60689891045804 l 2.9925321693298055 -12.175868212903373 a33.53822218348616,33.53822218348616 0 0,0 0.559435291437234,0.14261251213372025 l -3.2016763494520646 12.122552704600785" fill="#ff840c" stroke="none" /><path d="M 105.36241919743992 79.69619591428918 l 2.2635939045168696 -8.570677799464336 a29.864557253850684,29.864557253850684 0 0,0 0.49589686437224145,0.1355473456455102 l -2.410788658112822 8.530443912992533" fill="#ff5007" stroke="none" /><path d="M 106.0581310904928 79.89281104454417 l 6.407835344463595 -21.26787191329947 a43.2122202744856,43.2122202744856 0 0,0 0.7103566912570901,0.22071128181276836 l -6.772977408431403 21.154420496604182" fill="#faff18" stroke="none" /><path d="M 106.74666289553966 80.11325718540242 l 6.565839389857833 -19.35373996444693 a41.437159722056265,41.437159722056265 0 0,0 0.6734880149353467,0.23496674412711563 l -6.898009408856453 19.237852367147607" fill="#ffee16" stroke="none" /><path d="M 107.08798089147638 80.2323363322302 l 4.988400442185069 -13.912145601274178 a35.779442959822426,35.779442959822426 0 0,0 0.5779533059992251,0.21286508014810548 l -5.227136073956871 13.824217253319748" fill="#ffa30f" stroke="none" /><path d="M 107.4271985657038 80.35727306442388 l 13.818299762727047 -36.54528508320053 a60.07049104048965,60.07049104048965 0 0,0 0.9640365127324609,0.37403118973436 l -14.445319440459176 36.30201118957563" fill="#3aff2e" stroke="none" /><path d="M 108.09893153111575 80.62456947434976 l 8.023585431461246 -19.195176733699316 a41.80463248927769,41.80463248927769 0 0,0 0.6615408750377934,0.2832372782817371 l -8.352810064289356 19.05421992745479" fill="#fff216" stroke="none" /><path d="M 108.76106565485865 80.91482961587045 l 11.105910964277708 -24.193198792736627 a47.62052077197846,47.62052077197846 0 0,0 0.7420224755167354,0.3483895016902387 l -11.520711651094041 23.998444308406384" fill="#c4ff1e" stroke="none" /><path d="M 110.05341064243156 81.56283822128135 l 8.488961521230811 -15.568085544986292 a38.73211085136083,38.73211085136083 0 0,0 0.5825971808255485,0.3242147003648336 l -8.755682791128395 15.419655447061277" fill="#ffca12" stroke="none" /><line stroke="#e1ed5e" stroke-width="0.3" x1="143.23703022742887" x2="145.7803849466894" y1="26.81831364943548" y2="22.513508569990506" /><path d="M 143.74570117128098 25.957352633546492 a86.0,86.0 0 0,1 28.547481713284135,27.462654790039103" fill="none" id="id110" stroke="none" /><text fill="#e1ed5e" style="font-size:6.75px; font-family:Arial;" text-anchor="middle"><textPath startOffset="19.985693538727396" xlink:href="#id110">February</textPath></text><path d="M 110.99172775467656 82.1063720568725 l 12.295955052896549 -20.016802620346898 a44.49176233927073,44.49176233927073 0 0,0 0.6491154218075039,0.4064760175858957 l -12.638689627076316 19.80218226143806" fill="#eaff1a" stroke="none" /><path d="M 111.90073688211348 82.69761687909136 l 14.243002224936266 -20.707783369128325 a46.13315349179818,46.13315349179818 0 0,0 0.6504090562728192,0.4556531088236578 l -14.597342420792735 20.459545417540735" fill="#d6ff1c" stroke="none" /><path d="M 112.48926042617603 83.11751280151076 l 9.56813198915515 -12.933821564150524 a37.08828424709046,37.08828424709046 0 0,0 0.5099707012785594,0.38409935940160905 l -9.789348844192093 12.767205615243066" fill="#ffb410" stroke="none" /><path d="M 112.77801427241765 83.33499621200491 l 4.96246983623203 -6.4720211494153475 a29.155560350705052,29.155560350705052 0 0,0 0.3956374064778782,0.30880127125253903 l -5.073139797869339 6.3856414889395845" fill="#ff4506" stroke="none" /><path d="M 113.34407831869373 83.78471172551755 l 14.117729362526074 -17.155403762415514 a43.21751922706564,43.21751922706564 0 0,0 0.5703528440526511,0.4776541044243949 l -14.410939743537842 16.9098485005973" fill="#faff18" stroke="none" /><path d="M 114.94478906791727 85.2469230424477 l 12.112300832623138 -11.956923948851491 a38.01986667922465,38.01986667922465 0 0,0 0.4557599586859165,0.4697006998572405 l -12.316325055012163 11.746659053444136" fill="#ffc111" stroke="none" /><path d="M 115.68641384162765 86.03803664274999 l 30.8733595933386 -27.479366521205442 a62.33134303390514,62.33134303390514 0 0,0 0.7064460379137922,0.8075899428811117 l -31.34179749483024 26.943861022121386" fill="#31ff3f" stroke="none" /><path d="M 115.9244219780498 86.31012108654704 l 10.7445026657963 -9.236815043131472 a35.16908923242153,35.16908923242153 0 0,0 0.3906940595832595,0.46245853529659803 l -10.901907338866677 9.050497558205768" fill="#ff9a0e" stroke="none" /><path d="M 116.38621287248628 86.86637796730983 l 5.5433531692877205 -4.443022062857742 a28.104168453133195,28.104168453133195 0 0,0 0.29930393299252783,0.3800856001102333 l -5.619011182874212 4.34694406879447" fill="#ff3605" stroke="none" /><path d="M 116.60985879189232 87.15038557335679 l 9.881725021938484 -7.644637922147911 a33.49355747455252,33.49355747455252 0 0,0 0.3488498508176721,0.4590455119561817 l -10.011850812980269 7.473407634310696" fill="#ff830c" stroke="none" /><path d="M 117.04232023915458 87.72973835380427 l 24.46744111184339 -17.616257648148608 a51.14943130620341,51.14943130620341 0 0,0 0.5082971818006117,0.7189503164138381 l -24.767050913447882 17.19248083140298" fill="#9aff22" stroke="none" /><path d="M 117.2510076193507 88.02491185347247 l 13.948974244204738 -9.68292402471741 a37.9803680800487,37.9803680800487 0 0,0 0.368184463142576,0.540265268085224 l -14.113583173016046 9.441380733361779" fill="#ffc011" stroke="none" /><path d="M 117.45458315368197 88.32363383020206 l 10.450158972600038 -6.990707347309976 a33.5728203585491,33.5728203585491 0 0,0 0.31718859617429046,0.48309999303219664 l -10.568944204132253 6.809789290300105" fill="#ff840c" stroke="none" /><path d="M 117.65298651832404 88.62581576622439 l 5.25249102004308 -3.3842885727130723 a27.24836547098755,27.24836547098755 0 0,0 0.25064915506663654,0.39646676979063084 l -5.309967771355672 3.293374155208235" fill="#ff2904" stroke="none" /><line stroke="#e1ed5e" stroke-width="0.3" x1="172.23445277983987" x2="176.4835382374775" y1="55.19839476539836" y2="52.563006222186495" /><path d="M 173.08426987136738 54.67131705675599 a86.0,86.0 0 0,1 12.851231095245387,41.99856678651699" fill="none" id="id111" stroke="none" /><text fill="#e1ed5e" style="font-size:6.75px; font-family:Arial;" text-anchor="middle"><textPath startOffset="22.20632615414155" xlink:href="#id111">March</textPath></text><path d="M 117.84615892207809 88.93136811851018 l 13.54658799745013 -8.401930995273457 a36.94059254927485,36.94059254927485 0 0,0 0.3305025591406842,0.5432593074305927 l -13.689206354877038 8.167503914635784" fill="#ffb210" stroke="none" /><path d="M 118.03404312379186 89.2402003453031 l 11.061359090238032 -6.599629761481723 a33.88055813665801,33.88055813665801 0 0,0 0.29450324339964545,0.5034015075989545 l -11.173322008108006 6.408248841528873" fill="#ff890c" stroke="none" /><path d="M 118.21658344932153 89.55222093294921 l 8.525661792939216 -4.889733086384132 a30.82834669024568,30.82834669024568 0 0,0 0.260047907036416,0.46259620969254917 l -8.608567341268065 4.742253366756789" fill="#ff5d08" stroke="none" /><path d="M 118.3937258080291 89.86733742301442 l 23.27347356843964 -12.820798631262194 a47.57117704363571,47.57117704363571 0 0,0 0.38893265757317835,0.7206331458494717 l -23.490714325231284 12.418284502080263" fill="#c4ff1e" stroke="none" /><path d="M 118.56541770881063 90.18545643968196 l 6.745922006796478 -3.5662082280428096 a28.630550756501215,28.630550756501215 0 0,0 0.22657749805528554,0.4376756080736481 l -6.80630893801188 3.4495598977088164" fill="#ff3e05" stroke="none" /><path d="M 118.73160827565052 90.50648371742162 l 13.205830310046727 -6.692952533945832 a35.80505210390699,35.80505210390699 0 0,0 0.2738915764844841,0.55214870510218 l -13.319081899484619 6.464644240344701" fill="#ffa30f" stroke="none" /><path d="M 119.04729006885535 91.15688171328212 l 13.39245388000093 -6.21773771398123 a35.76543542222228,35.76543542222228 0 0,0 0.25444158023224034,0.5606282945321934 l -13.497497777196518 5.986287410606974" fill="#ffa30f" stroke="none" /><path d="M 119.196687751892 91.48605970444005 l 10.840600438269806 -4.807924475947861 a32.858952551917646,32.858952551917646 0 0,0 0.2248636545975771,0.5190163175933007 l -10.921754802710065 4.620609013767957" fill="#ff7a0b" stroke="none" /><path d="M 119.34039704204932 91.81776055985345 l 14.243011724742246 -6.025715605903975 a36.46520712937204,36.46520712937204 0 0,0 0.23959084605029343,0.5801882378862241 l -14.344624257678737 5.779652797564448" fill="#ffac0f" stroke="none" /><path d="M 119.97218684219823 93.5106431181261 l 16.703463590904686 -5.427284315994163 a38.56306097977556,38.56306097977556 0 0,0 0.19969149574585038,0.6330766121364511 l -16.794410570418744 5.138957537431292" fill="#ffc812" stroke="none" /><path d="M 120.08093135843002 93.85539295169968 l 12.894932836812652 -3.9457480224479466 a34.485111060816706,34.485111060816706 0 0,0 0.16880314545237934,0.5691202899267271 l -12.960941879376733 3.7231983457746893" fill="#ff910d" stroke="none" /><path d="M 120.18372546131832 94.20196356495316 l 16.467963023256143 -4.730635570862885 a38.13396390330168,38.13396390330168 0 0,0 0.1758034379325892,0.6324585039690324 l -16.546953231755094 4.446465763474901" fill="#ffc212" stroke="none" /><path d="M 120.53481517161879 95.60439243477599 l 13.0473570429425 -2.792869614107943 a34.342924959971434,34.342924959971434 0 0,0 0.1187622567110263,0.5791269412799558 l -13.093498595568523 2.5678670166645756" fill="#ff8f0d" stroke="none" /><path d="M 120.67395015179393 96.31383870115 l 16.832206761159224 -3.0011791980567577 a38.097668292175484,38.097668292175484 0 0,0 0.10955463183735721,0.6465976386362107 l -16.881373254516806 2.7109957711047095" fill="#ffc212" stroke="none" /><path d="M 120.78858239683441 97.02765380044208 l 30.98736886107809 -4.430566082396749 a52.30250700412024,52.30250700412024 0 0,0 0.1197577998125546,0.8923347106481287 l -31.05904265994848 3.8965130296839554" fill="#8dff24" stroke="none" /><path d="M 120.87857604477298 97.74499172005257 l 6.605570009680968 -0.7134401806742068 a27.643986156231595,27.643986156231595 0 0,0 0.047024887766727225,0.47353420234592175 l -6.6168720231299245 0.59963044762385" fill="#ff2f04" stroke="none" /><path d="M 120.96714384426684 98.82574320788733 l 15.773511749285534 -0.883389432754434 a36.79822932466645,36.79822932466645 0 0,0 0.029975472721018227,0.6327348526227089 l -15.786380830240049 0.6117434735087254" fill="#ffb110" stroke="none" /><line stroke="#e1ed5e" stroke-width="0.3" x1="184.98032266829074" x2="189.97916517819016" y1="98.17113171792111" y2="98.06355123074" /><path d="M 185.9800911702706 98.14961562048488 a86.0,86.0 0 0,1 -9.607161424134198,41.387399972396054" fill="none" id="id112" stroke="none" /><text fill="#e1ed5e" style="font-size:6.75px; font-family:Arial;" text-anchor="middle"><textPath startOffset="21.466115282336823" xlink:href="#id112">April</textPath></text><path d="M 120.99513854157772 99.54816195383933 l 42.87682716079633 -0.92275560704383 a63.88675535975102,63.88675535975102 0 0,0 0.014198049168390755,1.0996545548910188 l -42.88635821708244 0.18456479409234852" fill="#33ff52" stroke="none" /><path d="M 120.99980553446 99.90962569577887 l 14.79402199465994 -0.06366722978484322 a35.794158992475055,35.794158992475055 0 0,0 -0.0026516700078358826,0.6161547243547656 l -14.7929260273626 -0.19099697277360714" fill="#ffa30f" stroke="none" /><path d="M 120.9764740272857 100.99374915477107 l 18.803020016393777 0.8907829420773518 a39.82410837162815,39.82410837162815 0 0,0 -0.03833288346862373,0.6844593849068499 l -18.784900782037624 -1.214314043319625" fill="#ffd914" stroke="none" /><path d="M 120.95626037817324 101.35467743843564 l 13.003028929993441 0.8405559773028333 a34.03016867524077,34.03016867524077 0 0,0 -0.04281876979204372,0.5842280941414483 l -12.98663360153706 -1.064257207941052" fill="#ff8b0c" stroke="none" /><path d="M 120.92983693683757 101.71520430193887 l 12.594144176616567 1.0320926214647819 a33.636363508568714,33.636363508568714 0 0,0 -0.052257139963719286,0.5766531849824019 l -12.574512440375772 -1.2487271949957544" fill="#ff850c" stroke="none" /><path d="M 120.49622156327973 104.57218783832717 l 32.56245516068991 7.263858902584803 a54.36281061674213,54.36281061674213 0 0,0 -0.21159930353509696,0.9115642615609093 l -32.43259529122426 -7.823291821494277" fill="#76ff27" stroke="none" /><path d="M 120.23288151984713 105.62410040840565 l 11.775249948430377 3.273146634061166 a33.22170201878918,33.22170201878918 0 0,0 -0.15789383222148076,0.5496491436877446 l -11.717163479322796 -3.4753532532534925" fill="#ff7f0b" stroke="none" /><path d="M 120.13307415673323 105.97154293290107 l 8.26220278015737 2.4505993589431014 a29.617971454959253,29.617971454959253 0 0,0 -0.14918040155296539,0.487530183795358 l -8.218795606098272 -2.592456515290517" fill="#ff4c07" stroke="none" /><path d="M 119.79798401119884 107.00284435728193 l 14.195387230186473 5.0211217115900535 a36.05724682196391,36.05724682196391 0 0,0 -0.21200929511709207,0.5833585257931388 l -14.106853674064153 -5.264728034389323" fill="#ffa70f" stroke="none" /><path d="M 119.41010516605496 108.01547362559984 l 13.133070550524895 5.423349318321573 a35.20880923630138,35.20880923630138 0 0,0 -0.23614886830096285,0.5581861674154858 l -13.037770701031624 -5.648610011403221" fill="#ff9b0e" stroke="none" /><path d="M 119.12269723197855 108.67885076344098 l 3.1940203013482873 1.4496085564983068 a24.50758188108248,24.50758188108248 0 0,0 -0.17765124010366606,0.3826449665870416 l -3.1685944444047895 -1.504373590364179" fill="#ff0000" stroke="none" /><path d="M 118.81262510543309 109.33194174019688 l 30.42340146310361 15.091429739399327 a54.960780441038175,54.960780441038175 0 0,0 -0.4277030404409174,0.8438986749878902 l -30.15911975287642 -15.612882626089911" fill="#70ff27" stroke="none" /><line stroke="#e1ed5e" stroke-width="0.3" x1="174.80103733775053" x2="179.2010983576182" y1="140.37084112569926" y2="142.7455964860345" /><path d="M 175.68104954172406 140.8457921977663 a86.0,86.0 0 0,1 -30.038265399797805,32.042727171017184" fill="none" id="id113" stroke="none" /><text fill="#e1ed5e" style="font-size:6.75px; font-family:Arial;" text-anchor="middle"><textPath startOffset="22.206326154141568" xlink:href="#id113">May</textPath></text><path d="M 118.48025628344425 109.97397251340804 l 15.068459309323774 8.13259278797146 a38.12301175061536,38.12301175061536 0 0,0 -0.3166453615268868,0.5748033070338918 l -14.92623753834538 -8.390766613403157" fill="#ffc212" stroke="none" /><path d="M 118.30583269289576 110.29060199501025 l 15.573095934083899 8.754397288355149 a38.86507175621023,38.86507175621023 0 0,0 -0.3328478845118544,0.5803483424780974 l -15.420096053419664 -9.02116547669156" fill="#ffcc13" stroke="none" /><path d="M 118.12598468904814 110.60418214915192 l 27.648186549990637 16.174922979328052 a53.03202074316071,53.03202074316071 0 0,0 -0.46774021152388934,0.7839594988807382 l -27.365665462768522 -16.648444572094892" fill="#85ff25" stroke="none" /><path d="M 117.75023020441432 111.22182372390056 l 10.286578379050205 6.503249138880496 a33.16987855776273,33.16987855776273 0 0,0 -0.3092619478087525,0.4799814108063163 l -10.173111567864401 -6.679352149608265" fill="#ff7f0b" stroke="none" /><path d="M 116.0416608686014 113.55231037782055 l 11.579666833050757 9.782730122441516 a36.15884206042732,36.15884206042732 0 0,0 -0.4057667607993749,0.47199841316973756 l -11.409557562680604 -9.98060563477278" fill="#ffa80f" stroke="none" /><path d="M 115.80600337817218 113.82643327865902 l 13.728630681883883 12.009234187090842 a39.23998372148273,39.23998372148273 0 0,0 -0.449094420352459,0.5045623420832503 l -13.519877411883085 -12.24377069891496" fill="#ffd113" stroke="none" /><path d="M 115.56566222782051 114.09645910891815 l 11.266898200316898 10.203444443323823 a36.20043662413353,36.20043662413353 0 0,0 -0.42225842777165373,0.4582781262937954 l -11.089593364549524 -10.395873824418953" fill="#ffa80f" stroke="none" /><path d="M 115.07121518719521 114.62390073753431 l 11.125971060726123 10.795751661682571 a36.50275736715366,36.50275736715366 0 0,0 -0.4414389259386566,0.4471753013627431 l -10.93849150973193 -10.98566745702598" fill="#ffad10" stroke="none" /><path d="M 114.81725581225074 114.88116024355365 l 10.94029324164775 10.987476959520567 a36.50531090140532,36.50531090140532 0 0,0 -0.44910232428164304,0.4395411478190403 l -10.749540964990313 -11.17416821026218" fill="#ffad10" stroke="none" /><path d="M 114.55890576462653 115.13401014063108 l 11.816131591099637 12.28289118796425 a38.043778387245965,38.043778387245965 0 0,0 -0.4758446336527137,0.44994080184314317 l -11.602951123056116 -12.484466626553315" fill="#ffc112" stroke="none" /><path d="M 114.0293411484842 115.62618273729858 l 21.6917697857542 24.160761006530226 a53.4696049999508,53.4696049999508 0 0,0 -0.6901593010619437,0.6089853397411881 l -21.272668131785668 -24.530569488043703" fill="#80ff25" stroke="none" /><path d="M 113.75828350139079 115.86535959552629 l 6.578124238756203 7.585561563792813 a31.040540958464476,31.040540958464476 0 0,0 -0.4066821163522747,0.3465833223355025 l -6.446576645826881 -7.697669276351262" fill="#ff6108" stroke="none" /><path d="M 113.20401910651253 116.32954008644616 l 10.06535760994987 12.447926593428273 a37.008194785532645,37.008194785532645 0 0,0 -0.4988043924810387,0.3962803767218396 l -9.849595724751481 -12.619340884155237" fill="#ffb310" stroke="none" /><path d="M 112.92097659922987 116.55440617244103 l 11.629055126103598 14.899191286415657 a39.90028635008371,39.90028635008371 0 0,0 -0.5450593275582005,0.41792824984956 l -11.370867070051903 -15.09715887809259" fill="#ffda14" stroke="none" /><path d="M 112.04921762599082 117.19931262002967 l 20.481376543114038 29.235557775444676 a56.696002907078906,56.696002907078906 0 0,0 -0.8041197207273546,0.5530808762713577 l -19.9750999377638 -29.583779441081127" fill="#5dff2a" stroke="none" /><path d="M 111.1453310114006 117.79835938074945 l 6.923680475158512 11.056661592939388 a34.045578442632284,34.045578442632284 0 0,0 -0.4993688719365209,0.30675314737357967 l -6.732332403289682 -11.174203207141346" fill="#ff8b0c" stroke="none" /><line stroke="#e1ed5e" stroke-width="0.3" x1="143.8653032363475" x2="146.44561519142675" y1="172.8068346515853" y2="177.08958963109032" /><path d="M 144.38136562736335 173.6633856474863 a86.0,86.0 0 0,1 -40.68145358897372,12.25698825130547" fill="none" id="id114" stroke="none" /><text fill="#e1ed5e" style="font-size:6.75px; font-family:Arial;" text-anchor="middle"><textPath startOffset="21.466115282336833" xlink:href="#id114">June</textPath></text><path d="M 110.21172684928248 118.3499491758327 l 9.434500007440374 16.953312421207997 a40.40166468222451,40.40166468222451 0 0,0 -0.6105984158414351,0.33294694084409865 l -9.141278779730289 -17.113200013811866" fill="#ffe015" stroke="none" /><path d="M 109.89434966115114 118.52300852407294 l 17.90744778347774 33.524164730111025 a59.007187569847915,59.007187569847915 0 0,0 -0.9000256664260844,0.4708508908341667 l -17.32773121452516 -33.82744503988991" fill="#45ff2d" stroke="none" /><path d="M 107.93186726928326 119.44442032107085 l 6.975533396773684 17.100034421376645 a39.46806008712802,39.46806008712802 0 0,0 -0.6312614072752155,0.2511919417055021 l -6.680150913456602 -17.217573207488215" fill="#ffd413" stroke="none" /><path d="M 107.59598834532513 119.57807347666477 l 2.723577522308469 7.019810777351248 a28.529649252776696,28.529649252776696 0 0,0 -0.4593678096965798,0.17369359908626433 l -2.6023394918516143 -7.065652626544143" fill="#ff3c05" stroke="none" /><path d="M 105.53697534728816 120.25689768951611 l 7.785341475187443 28.482493753211042 a50.52734312949575,50.52734312949575 0 0,0 -0.8409423487191232,0.2221005175027895 l -7.293908683656823 -28.612285620017413" fill="#a1ff22" stroke="none" /><path d="M 105.18746579009965 120.34920634021253 l 4.378737068094662 17.176754067130677 a38.72608864341473,38.72608864341473 0 0,0 -0.6473650577625703,0.15910658088443608 l -4.08241872558888 -17.249581906329144" fill="#ffca12" stroke="none" /><path d="M 103.7750983002368 120.6578951692458 l 7.96421365354366 43.5813527690287 a65.30308125060623,65.30308125060623 0 0,0 -1.1075123596879857,0.19255521990456034 l -7.2128523223836245 -43.71198656745427" fill="#35ff63" stroke="none" /><path d="M 103.06178313531738 120.77559828337769 l 2.584412904028626 17.53642303177381 a38.72583771808364,38.72583771808364 0 0,0 -0.6603150128183042,0.09151364397251717 l -2.2821693000234915 -17.57831124123893" fill="#ffca12" stroke="none" /><line stroke="#e1ed5e" stroke-width="0.3" x1="102.19456741930631" x2="102.32365962044197" y1="184.97166512339345" y2="189.96999836594603" /><path d="M 102.22038585953345 185.97133177190398 a86.0,86.0 0 0,1 -42.740103519485714,-10.115201625700543" fill="none" id="id115" stroke="none" /><text fill="#e1ed5e" style="font-size:6.75px; font-family:Arial;" text-anchor="middle"><textPath startOffset="22.20632615414155" xlink:href="#id115">July</textPath></text><path d="M 100.54218724476979 120.99299961872073 l 0.36899367568536046 14.2871013062325 a35.29186552089146,35.29186552089146 0 0,0 -0.6074239437208224,0.010457354050694711 l -0.1230100420718701 -14.291336137562356" fill="#ff9c0e" stroke="none" /><path d="M 98.01472825383883 120.90594882070398 l -4.249727956800565 44.751855930344036 a65.95318450251418,65.95318450251418 0 0,0 -1.1292673951029164,-0.11705318279821128 l 5.019427948509074 -44.67207337909006" fill="#36ff6b" stroke="none" /><path d="M 96.22490169976321 120.6578951692458 l -3.9387713153976103 21.55353806919742 a42.91047518369562,42.91047518369562 0 0,0 -0.7254575411585494,-0.13903566436653245 l 4.309196471127855 -21.48254520648242" fill="#feff18" stroke="none" /><path d="M 95.51606077576429 120.51570834832081 l -4.729120721233339 21.637505909184352 a43.148278595998974,43.148278595998974 0 0,0 -0.72423327587966,-0.1648331356890963 l 5.100874146505861 -21.55289603991757" fill="#fbff18" stroke="none" /><path d="M 95.16358092515715 120.4354850818985 l -11.82224140403299 49.952916425996236 a72.33282820260146,72.33282820260146 0 0,0 -1.2091524640836622,-0.29718025713847146 l 12.680347152859863 -49.74201491054373" fill="#3effb5" stroke="none" /><path d="M 92.7421414339146 119.70592522655815 l -14.10989484589014 38.30999602099958 a61.82578753301742,61.82578753301742 0 0,0 -0.9954828518981348,-0.3764064345062751 l 14.76724791854856 -38.06144133638667" fill="#30ff39" stroke="none" /><line stroke="#e1ed5e" stroke-width="0.3" x1="58.666819895761336" x2="56.23545636021788" y1="174.27360380694188" y2="178.64263932499728" /><path d="M 58.180547188652646 175.14741091055294 a86.0,86.0 0 0,1 -31.652253787137756,-30.449443065178592" fill="none" id="id116" stroke="none" /><text fill="#e1ed5e" style="font-size:6.75px; font-family:Arial;" text-anchor="middle"><textPath startOffset="22.20632615414155" xlink:href="#id116">August</textPath></text><path d="M 89.7882731507175 118.34994917583269 l -13.817470550241213 24.829285592701343 a49.415064938351094,49.415064938351094 0 0,0 -0.7396993617161564,-0.42002060254991874 l 14.242818678878576 -24.58776182435679" fill="#aeff20" stroke="none" /><path d="M 87.65650970185807 116.9893568818739 l -7.3560047687162236 10.12467197056075 a33.514782805499834,33.514782805499834 0 0,0 -0.46380474268741556,-0.3431116606347617 l 7.529194481822203 -9.996550361186221" fill="#ff830c" stroke="none" /><path d="M 85.70375840098266 115.38237550388516 l -5.238607786322182 5.636602566392224 a28.695082847531584,28.695082847531584 0 0,0 -0.3589128568206316,-0.3393745083348949 l 5.33485647753363 -5.545593421311398" fill="#ff3f05" stroke="none" /><path d="M 84.67929136418377 114.36230785411682 l -11.63105499520298 10.903463833177238 a36.942614712237145,36.942614712237145 0 0,0 -0.43091553199011035,-0.46767370312407847 l 11.81701693518882 -10.701638875251815" fill="#ffb310" stroke="none" /><path d="M 84.43433777217949 114.09645910891817 l -22.23483167072825 20.13614267434776 a50.99753291901367,50.99753291901367 0 0,0 -0.5836574155644039,-0.6557452936963942 l 22.578147935940994 -19.7504232109105" fill="#9cff22" stroke="none" /><path d="M 83.95833913139862 113.55231037782056 l -8.682077893980434 7.334790038725962 a32.36563335099885,32.36563335099885 0 0,0 -0.3558740098440381,-0.42867317014113077 l 8.807047903718008 -7.1842556114710705" fill="#ff730a" stroke="none" /><path d="M 83.72743513129214 113.27417163493432 l -11.782819086019785 9.611709288188345 a36.20591270047669,36.20591270047669 0 0,0 -0.389786111394438,-0.48631810631904115 l 11.946523109469085 -9.407463348291044" fill="#ffa90f" stroke="none" /><path d="M 83.50135304334701 112.99209946851258 l -5.945737408582404 4.682057385003269 a28.567922745924395,28.567922745924395 0 0,0 -0.3009061789352074,-0.3889617988348732 l 6.02545040473568 -4.579017592055142" fill="#ff3d05" stroke="none" /><path d="M 83.06392112726016 112.41649034213515 l -20.12074031817023 14.751288046921676 a45.948841455957336,45.948841455957336 0 0,0 -0.4621582777346478,-0.6418974262681656 l 20.371678388280486 -14.402757015202372" fill="#d8ff1c" stroke="none" /><path d="M 82.85270091963577 112.12312394758628 l -16.64969338799236 11.77131720196553 a41.39059093266907,41.39059093266907 0 0,0 -0.4062961365182671,-0.5852998876523375 l 16.84985043167276 -11.48297605212618" fill="#ffed16" stroke="none" /><path d="M 82.44556493220864 111.52570212397912 l -12.338361816147982 8.100988863590457 a35.76012170932866,35.76012170932866 0 0,0 -0.33341228170149906,-0.5174632653164322 l 12.475978961226527 -7.887403998352576" fill="#ffa20f" stroke="none" /><path d="M 82.05923443525364 110.91462005526583 l -13.307752708456151 8.096034925491047 a36.57697222390131,36.57697222390131 0 0,0 -0.32260736975814747,-0.540708508055895 l 13.445140953912532 -7.86576432354904" fill="#ffae10" stroke="none" /><line stroke="#e1ed5e" stroke-width="0.3" x1="26.63291911575756" x2="22.317208475507996" y1="142.92168965132927" y2="145.44649492493687" /><path d="M 25.769776987707644 143.4266507060508 a86.0,86.0 0 0,1 -11.730757126820373,-40.83630448921669" fill="none" id="id117" stroke="none" /><text fill="#e1ed5e" style="font-size:6.75px; font-family:Arial;" text-anchor="middle"><textPath startOffset="21.46611528233685" xlink:href="#id117">September</textPath></text><path d="M 81.69416730710424 110.29060199501025 l -54.427870251352395 30.596562286406744 a83.43831102651656,83.43831102651656 0 0,0 -0.6930290380260065,-1.2580490079089135 l 54.94647569882992 -29.65514276010001" fill="#4cd7ff" stroke="none" /><path d="M 81.18737489456691 109.33194174019688 l -14.874947318845969 7.378669430237007 a37.60448193407903,37.60448193407903 0 0,0 -0.2826545242850005,-0.5823520395317348 l 14.999755099745688 -7.1215284347399885" fill="#ffbb11" stroke="none" /><path d="M 81.02952815118164 109.00673069616217 l -24.558633684006274 11.659857573406596 a48.18600314605541,48.18600314605541 0 0,0 -0.3492920377078858,-0.7523439747443273 l 24.755700338553986 -11.23539353138344" fill="#bdff1f" stroke="none" /><path d="M 80.20201598880116 107.00284435728193 l -13.92032052766206 4.923826486755063 a35.76547970316307,35.76547970316307 0 0,0 -0.20030230232408744,-0.5821722499831832 l 14.003013660929376 -4.683481533682583" fill="#ffa30f" stroke="none" /><path d="M 80.0844068197444 106.66101706037122 l -14.067544967948805 4.705064829399358 a35.833524748828665,35.833524748828665 0 0,0 -0.19061344704024621,-0.5866478679199953 l 14.1464506660053 -4.462218061501559" fill="#ffa30f" stroke="none" /><path d="M 79.97269907076064 106.31721596034903 l -15.878636365191953 5.008601779599807 a37.64984037775157,37.64984037775157 0 0,0 -0.18963548244684741,-0.6197397288718828 l 15.962498620144931 -4.734535078175876" fill="#ffbc11" stroke="none" /><path d="M 79.86692584326677 105.97154293290107 l -16.989364166468658 5.039107129540337 a38.72092253365703,38.72092253365703 0 0,0 -0.18403015121055916,-0.640633098851656 l 17.07358695456532 -4.745916555184085" fill="#ffca12" stroke="none" /><path d="M 79.76711848015287 105.62410040840567 l -14.845634024989693 4.126616186680292 a36.408498004546175,36.408498004546175 0 0,0 -0.1626452969196727,-0.6052636553736842 l 14.914467398251139 -3.8704615981310684" fill="#ffab0f" stroke="none" /><path d="M 79.67330655649465 105.27499134158121 l -14.285779380471284 3.707310426517163 a35.75898516518197,35.75898516518197 0 0,0 -0.14948734808542022,-0.5971276470871892 l 14.347478042851764 -3.460854940032582" fill="#ffa20f" stroke="none" /><path d="M 79.58551787078972 104.9243191809786 l -14.364926146481197 3.4650637184297173 a35.77693370651155,35.77693370651155 0 0,0 -0.13925649113858568,-0.5999133191440458 l 14.422443203550339 -3.2172817419370974" fill="#ffa30f" stroke="none" /><path d="M 79.4281124754447 104.21870165774334 l -14.677409742624421 3.009914026541249 a35.98285484145315,35.98285484145315 0 0,0 -0.1192061725260362,-0.6078297055196136 l 14.727045848126123 -2.7568205939536807" fill="#ffa60f" stroke="none" /><path d="M 79.35854240842038 103.8639653848113 l -14.824991409419205 2.7751554550822264 a36.082501718522224,36.082501718522224 0 0,0 -0.10902681444488439,-0.6114802756313644 l 14.870564666203277 -2.519556428717648" fill="#ffa70f" stroke="none" /><path d="M 79.23777060512086 103.15116336523772 l -21.96340956188289 3.3334710965185415 a43.214936172186796,43.214936172186796 0 0,0 -0.1052920580717638,-0.7364124089188104 l 22.017535670971252 -2.9549132156193303" fill="#faff18" stroke="none" /><path d="M 79.18660465613746 102.79330883721812 l -10.968384054788224 1.4720368111047706 a32.0667222404188,32.0667222404188 0 0,0 -0.06871210020092261,-0.5477030450397768 l 10.992097664235995 -1.283016011777585" fill="#ff6f0a" stroke="none" /><line stroke="#e1ed5e" stroke-width="0.3" x1="15.007084014347285" x2="10.007500721073583" y1="101.09737516637583" y2="101.16192664675087" /><path d="M 14.007167355692545 101.11028546245083 a86.0,86.0 0 0,1 10.666146001902534,-42.60595125391555" fill="none" id="id118" stroke="none" /><text fill="#e1ed5e" style="font-size:6.75px; font-family:Arial;" text-anchor="middle"><textPath startOffset="22.20632615414155" xlink:href="#id118">October</textPath></text><path d="M 79.00175016825051 100.2711162175752 l -9.196650560582711 0.11874137770168294 a30.19741708569557,30.19741708569557 0 0,0 -0.0022370573147726005,-0.5198133361528257 l 9.197331915186986 0.03958143665481812" fill="#ff5407" stroke="none" /><path d="M 79.00019446554 99.90962569577889 l -11.068804265833874 -0.047635464168607956 a32.06890676683062,32.06890676683062 0 0,0 0.0071269218868305765,-0.5519879542784976 l 11.066344336829328 0.23815967650757744" fill="#ff6f0a" stroke="none" /><path d="M 79.00486145842228 99.54816195383935 l -22.211313418796912 -0.4780114424077919 a43.21645648448691,43.21645648448691 0 0,0 0.022407332511781557,-0.7435902785882762 l 22.199794391829485 0.8602718684210625" fill="#faff18" stroke="none" /><path d="M 79.05617556472873 98.46500227214037 l -44.203073399371796 -3.2396956650467392 a65.32163496479313,65.32163496479313 0 0,0 0.091840713813805,-1.1206893325261305 l 44.14075820173849 4.000098914780648" fill="#35ff64" stroke="none" /><path d="M 79.16333360222342 97.38593545837743 l -7.614113277819786 -0.9552287854246264 a28.673798475329892,28.673798475329892 0 0,0 0.06565480728110688,-0.4892045741450017 l 7.596542471480846 1.0861517016342874" fill="#ff3e05" stroke="none" /><path d="M 79.26566170972629 96.67025291283419 l -14.618357456489715 -2.347575913851489 a35.805657276764315,35.805657276764315 0 0,0 0.10296366618993703,-0.6076973862919806 l 14.575781928779554 2.5988590884592977" fill="#ffa30f" stroke="none" /><path d="M 79.54389044137918 95.25157060432595 l -61.3683286758625 -14.245288187022146 a84.0,84.0 0 0,0 0.3390687989567409,-1.4056590733624128 l 61.114027076644945 15.299532492043955" fill="#4dd2ff" stroke="none" /><path d="M 80.2630227832202 92.82701384747504 l -18.24011302525296 -6.628982579936129 a40.40734740295797,40.40734740295797 0 0,0 0.24320491916926487,-0.6516682694952092 l 18.12330351758207 6.94197398646068" fill="#ffe015" stroke="none" /><path d="M 80.52162464483688 92.15188598940014 l -7.283440402120149 -2.9346015580347906 a28.852413030123692,28.852413030123692 0 0,0 0.18957177519805227,-0.4590630903404075 l 7.231846940035898 3.059539218828509" fill="#ff4106" stroke="none" /><path d="M 80.65960295795068 91.81776055985345 l -6.865017571946219 -2.904346659086243 a28.45410596780565,28.45410596780565 0 0,0 0.19471997003307104,-0.4494405375973659 l 6.814006892070468 3.022086341270208" fill="#ff3b05" stroke="none" /><path d="M 80.803312248108 91.48605970444005 l -7.0867371772319885 -3.143045195978222 a28.75245618646915,28.75245618646915 0 0,0 0.20455001599386843,-0.4506988461103945 l 7.031584844274768 3.2645660509306875" fill="#ff3f05" stroke="none" /><path d="M 81.10775173730289 90.83032412892265 l -13.17192586381863 -6.393219541136499 a35.641478308664865,35.641478308664865 0 0,0 0.27264031494405444,-0.5496262381896841 l 13.059925535921163 6.619005367825145" fill="#ffa10e" stroke="none" /><line stroke="#e1ed5e" stroke-width="0.3" x1="26.266209847984243" x2="21.928928074336255" y1="57.711370442889674" y2="55.22380399835377" /><path d="M 25.398753493254645 57.213857153982495 a86.0,86.0 0 0,1 29.58750427330803,-30.492523968695096" fill="none" id="id119" stroke="none" /><text fill="#e1ed5e" style="font-size:6.75px; font-family:Arial;" text-anchor="middle"><textPath startOffset="21.46611528233685" xlink:href="#id119">November</textPath></text><path d="M 81.78341655067845 89.55222093294921 l -9.731574127224793 -5.581361441278328 a32.21851730541338,32.21851730541338 0 0,0 0.28005612557207743,-0.47870670012958993 l 9.63405832718239 5.748047553761809" fill="#ff710a" stroke="none" /><path d="M 83.84228863543731 86.58626213691792 l -19.879438288618402 -16.50342477670948 a46.837087607381285,46.837087607381285 0 0,0 0.5203140682845617,-0.6158877413435898 l 19.592413606846716 16.843171467682186" fill="#cdff1d" stroke="none" /><path d="M 85.57189188830299 84.74124197986013 l -21.199745915118232 -22.420250146655583 a51.856066559174096,51.856066559174096 0 0,0 0.6538608382037382,-0.6076923887819323 l 20.810677193119638 22.781847121512165" fill="#92ff23" stroke="none" /><path d="M 85.83668400450813 84.49514656593479 l -14.652524571831837 -16.04039943736368 a42.725351330607126,42.725351330607126 0 0,0 0.5472690504302458,-0.4913435570010683 l 14.37424453380562 16.290242003134026" fill="#fffe18" stroke="none" /><line stroke="#e1ed5e" stroke-width="0.3" x1="56.762969772571076" x2="54.21961505331055" y1="26.818313649435495" y2="22.513508569990535" /><path d="M 56.25429882871897 25.957352633546506 a86.0,86.0 0 0,1 42.265352541879196,-11.944610805530505" fill="none" id="id120" stroke="none" /><text fill="#e1ed5e" style="font-size:6.75px; font-family:Arial;" text-anchor="middle"><textPath startOffset="22.20632615414155" xlink:href="#id120">December</textPath></text><path d="M 89.63071344664047 81.73862282372117 l -10.020819216043327 -17.647690453706485 a41.294279886472104,41.294279886472104 0 0,0 0.6211365845358706,-0.3456618368039031 l 9.71555854243541 17.81756768807057" fill="#ffec16" stroke="none" /><path d="M 91.90106846888425 80.62456947434976 l -9.544624856339082 -22.83402632642272 a45.7485882814356,45.7485882814356 0 0,0 0.7291804972074518,-0.2974510334428387 l 9.150160489543248 22.994938246049134" fill="#daff1b" stroke="none" /><path d="M 99.27714615592234 79.0124445844662 l -1.098169471019663 -31.884581949039756 a52.903487932389325,52.903487932389325 0 0,0 0.9103767354311735,-0.023512345203197994 l 0.5491661003936104 31.898761086385313" fill="#86ff25" stroke="none" /><path d="M 99.63851952072746 79.00311137660856 l -0.3155333863148091 -18.32801423398152 a39.33073012945498,39.33073012945498 0 0,0 0.6770138655873403,-0.0058272720820156075 l 4.489733995814197e-15 18.330730129454977" fill="#ffd213" stroke="none" /></svg>