<?xml version="1.0" encoding="utf-8" ?>
<svg baseProfile="full" height="200mm" version="1.1" viewBox="0,0,200,200" width="200mm" xmlns="http://www.w3.org/2000/svg" xmlns:ev="http://www.w3.org/2001/xml-events" xmlns:xlink="http://www.w3.org/1999/xlink"><defs /><rect fill="#1a1a1a" height="200" width="200" x="0" y="0" /><rect fill="#1a1a1a" height="200" width="180" x="10" y="0" /><text alignment-baseline="middle" fill="#e1ed5e" style="dominant-baseline: central; font-size:9.0px; font-family:Arial;" text-anchor="middle" x="100.0" y="100.0">2016</text><line stroke="#e1ed5e" stroke-width="0.3" x1="100.0" x2="100.0" y1="15.0" y2="10.0" /><path d="M 100.0 14.0 a86.0,86.0 0 0,1 42.35913384403234,11.155469271406648" fill="none" id="id25" stroke="none" /><text fill="#e1ed5e" style="font-size:6.75px; font-family:Arial;" text-anchor="middle"><textPath startOffset="22.145653131862478" xlink:href="#id25">January</textPath></text><path d="M 100.0 79.0 l 0.0 -22.31246942626197 a43.31246942626197,43.31246942626197 0 0,0 0.7435161326618941,0.006382191770911539 l -0.38302320781303933 22.309181632685494" fill="#ffe215" stroke="none" /><line stroke="#e1ed5e" stroke-width="0.3" x1="143.13028292997686" x2="145.6673583964461" y1="26.7553504044142" y2="22.446841604673864" /><path d="M 143.63769802327073 25.89364864446614 a86.0,86.0 0 0,1 29.32050498858742,28.57503671076993" fill="none" id="id26" stroke="none" /><text fill="#e1ed5e" style="font-size:6.75px; font-family:Arial;" text-anchor="middle"><textPath startOffset="20.669276256404974" xlink:href="#id26">February</textPath></text><line stroke="#e1ed5e" stroke-width="0.3" x1="172.87174338648825" x2="177.1583165268699" y1="56.24261187166439" y2="53.66864786411523" /><path d="M 173.72905801456457 55.72781907015455 a86.0,86.0 0 0,1 12.242430191666344,42.057860355516425" fill="none" id="id27" stroke="none" /><text fill="#e1ed5e" style="font-size:6.75px; font-family:Arial;" text-anchor="middle"><textPath startOffset="22.145653131862474" xlink:href="#id27">March</textPath></text><path d="M 120.9064616781168 98.02013634271609 l 31.547431364502504 -2.987574549959112 a52.68857881618486,52.68857881618486 0 0,0 0.07754348078156337,0.9011727883077219 l -31.59406846798181 2.445580714275728" fill="#a1ff22" stroke="none" /><line stroke="#e1ed5e" stroke-width="0.3" x1="184.99686870605535" x2="189.99668451229388" y1="99.2704041080226" y2="99.22748670261217" /><path d="M 185.99683186730306 99.26182062694052 a86.0,86.0 0 0,1 -10.086455211305974,41.156179273409016" fill="none" id="id28" stroke="none" /><text fill="#e1ed5e" style="font-size:6.75px; font-family:Arial;" text-anchor="middle"><textPath startOffset="21.40746469413373" xlink:href="#id28">April</textPath></text><path d="M 120.77682067341334 103.0534771498775 l 31.986304789440418 4.7008852951478755 a53.329893545155954,53.329893545155954 0 0,0 -0.14088871039572812,0.9046065874820096 l -31.90089458690642 -5.249280064561336" fill="#9aff23" stroke="none" /><line stroke="#e1ed5e" stroke-width="0.3" x1="174.33088141563837" x2="178.70328620479359" y1="141.23008692659167" y2="143.65538615756765" /><path d="M 175.20536237346943 141.71514677278685 a86.0,86.0 0 0,1 -30.301960400862466,31.631185727798858" fill="none" id="id29" stroke="none" /><text fill="#e1ed5e" style="font-size:6.75px; font-family:Arial;" text-anchor="middle"><textPath startOffset="22.145653131862474" xlink:href="#id29">May</textPath></text><path d="M 115.41159269507618 114.26474011684316 l 10.79267421072178 9.98953812417377 a35.70621258356822,35.70621258356822 0 0,0 -0.42021819711437286,0.44625716312355895 l -10.619600179871146 -10.173336747241827" fill="#ff740a" stroke="none" /><line stroke="#e1ed5e" stroke-width="0.3" x1="143.1302829299769" x2="145.66735839644613" y1="173.24464959558577" y2="177.55315839532614" /><path d="M 143.63769802327073 174.10635135553383 a86.0,86.0 0 0,1 -40.68552437913181,11.842963189579606" fill="none" id="id30" stroke="none" /><text fill="#e1ed5e" style="font-size:6.75px; font-family:Arial;" text-anchor="middle"><textPath startOffset="21.407464694133747" xlink:href="#id30">June</textPath></text><path d="M 107.407793817531 119.65005319985036 l 3.4182251562224018 9.067248336458707 a30.690162826993408,30.690162826993408 0 0,0 -0.4945659065788483,0.18161145134735973 l -3.2620700979894264 -9.124590636814789" fill="#ff2603" stroke="none" /><path d="M 106.72888874123015 119.89276391827305 l 4.706569969785402 13.914137812993197 a35.68860211046146,35.68860211046146 0 0,0 -0.5820254641890541,0.19132333057360493 l -4.467021767948614 -13.992882064968821" fill="#ff730a" stroke="none" /><line stroke="#e1ed5e" stroke-width="0.3" x1="101.45913802915013" x2="101.54496967792366" y1="184.9874750549273" y2="189.98673829345242" /><path d="M 101.47630435890484 185.9873277026323 a86.0,86.0 0 0,1 -42.54439059252881,-10.42667462771756" fill="none" id="id31" stroke="none" /><text fill="#e1ed5e" style="font-size:6.75px; font-family:Arial;" text-anchor="middle"><textPath startOffset="22.145653131862474" xlink:href="#id31">July</textPath></text><line stroke="#e1ed5e" stroke-width="0.3" x1="58.13341422392154" x2="55.67067388415222" y1="173.97424548756322" y2="178.32567169271397" /><path d="M 57.64086615596768 174.84453072859336 a86.0,86.0 0 0,1 -31.369924170532247,-30.572349798747897" fill="none" id="id32" stroke="none" /><text fill="#e1ed5e" style="font-size:6.75px; font-family:Arial;" text-anchor="middle"><textPath startOffset="22.145653131862474" xlink:href="#id32">August</textPath></text><path d="M 84.1078160697243 113.72728997021213 l -16.884311697825364 14.584266306026343 a43.31100188683641,43.31100188683641 0 0,0 -0.4811758190548884,-0.5668239049472701 l 17.132182080387366 -14.29227561862952" fill="#ffe215" stroke="none" /><path d="M 83.20337586046588 112.60449989151573 l -7.4242573329837604 5.571301112103961 a30.282186866686857,30.282186866686857 0 0,0 -0.3084427911128273,-0.41846188429777714 l 7.518802143680419 -5.4430329185373045" fill="#ff1f03" stroke="none" /><path d="M 82.78059297857968 112.02048342749411 l -22.942897407607905 16.01592422571707 a48.980106687786815,48.980106687786815 0 0,0 -0.4753642111833948,-0.6935705905481377 l 23.214451355606624 -15.619718900098883" fill="#d0ff1d" stroke="none" /><path d="M 82.18462484594161 111.11811171558189 l -13.025073134367823 8.128608966089434 a36.35339747024156,36.35339747024156 0 0,0 -0.32585114308501484,-0.5322533535652716 l 13.162692241908243 -7.903818496399604" fill="#ff7d0b" stroke="none" /><line stroke="#e1ed5e" stroke-width="0.3" x1="26.387840678322732" x2="22.057713659400548" y1="142.50000000000003" y2="145.00000000000006" /><path d="M 25.521815274538298 143.00000000000003 a86.0,86.0 0 0,1 -11.493303480769221,-40.785679425670985" fill="none" id="id33" stroke="none" /><text fill="#e1ed5e" style="font-size:6.75px; font-family:Arial;" text-anchor="middle"><textPath startOffset="21.40746469413373" xlink:href="#id33">September</textPath></text><path d="M 81.29705330413844 109.54985784667822 l -27.801512672156655 14.19565046402379 a52.216031121153534,52.216031121153534 0 0,0 -0.4007706870402938,-0.8018098397206714 l 28.041103272408687 -13.716308768139367" fill="#a7ff21" stroke="none" /><path d="M 80.83023694016515 108.57439118712176 l -19.293456236185897 8.629717571589907 a42.13550280696033,42.13550280696033 0 0,0 -0.289663760452572,-0.6628073707716745 l 19.438753878655437 -8.297248131042382" fill="#ffd113" stroke="none" /><path d="M 80.41425534168474 107.57618678355246 l -41.11870351220205 15.905597848877203 a65.08781942276784,65.08781942276784 0 0,0 -0.3941511184763266,-1.0455326697283434 l 41.38568531449282 -15.197396898954715" fill="#33ff51" stroke="none" /><path d="M 79.64726062577567 105.17358676015961 l -61.05821812267298 15.520760280478815 a84.0,84.0 0 0,0 -0.34324989393482586,-1.4005767015676016 l 61.3156555431241 -14.470327754303112" fill="#4dd2ff" stroke="none" /><line stroke="#e1ed5e" stroke-width="0.3" x1="15.003131293944662" x2="10.003315487706104" y1="100.72959589197737" y2="100.7725132973878" /><path d="M 14.003168132696942 100.73817937305945 a86.0,86.0 0 0,1 10.791469493833604,-42.45332614584628" fill="none" id="id34" stroke="none" /><text fill="#e1ed5e" style="font-size:6.75px; font-family:Arial;" text-anchor="middle"><textPath startOffset="22.145653131862435" xlink:href="#id34">October</textPath></text><line stroke="#e1ed5e" stroke-width="0.3" x1="26.387840678322718" x2="22.05771365940052" y1="57.49999999999999" y2="54.99999999999999" /><path d="M 25.521815274538284 56.99999999999999 a86.0,86.0 0 0,1 29.574782752854787,-30.34633250058573" fill="none" id="id35" stroke="none" /><text fill="#e1ed5e" style="font-size:6.75px; font-family:Arial;" text-anchor="middle"><textPath startOffset="21.40746469413373" xlink:href="#id35">November</textPath></text><path d="M 82.18462484594161 88.88188828441811 l -6.2261891363958615 -3.8856025080685566 a28.33916466724126,28.33916466724126 0 0,0 0.261101285581517,-0.4104945887049588 l 6.1585701591884545 3.9919107714521873" fill="#ff0000" stroke="none" /><path d="M 84.10781606972428 86.27271002978789 l -11.339131910464847 -9.794472076861732 a35.983577534999654,35.983577534999654 0 0,0 0.40779492059609806,-0.463995761757287 l 11.169325925910156 9.987680116430319" fill="#ff780b" stroke="none" /><path d="M 85.86807049272753 84.46653392183569 l -6.1299042454965385 -6.737838566970991 a30.109017214470406,30.109017214470406 0 0,0 0.38530218730974936,-0.34453959178356525 l 6.013337031363397 6.842073688637957" fill="#ff1d02" stroke="none" /><line stroke="#e1ed5e" stroke-width="0.3" x1="56.869717070023135" x2="54.33264160355391" y1="26.7553504044142" y2="22.446841604673864" /><path d="M 56.362301976729285 25.89364864446614 a86.0,86.0 0 0,1 42.16139366436587,-11.88097634709845" fill="none" id="id36" stroke="none" /><text fill="#e1ed5e" style="font-size:6.75px; font-family:Arial;" text-anchor="middle"><textPath startOffset="22.145653131862474" xlink:href="#id36">December</textPath></text><path d="M 89.97174638481275 81.54914285379989 l -10.10347310933085 -18.589252543276128 a42.157515898343775,42.157515898343775 0 0,0 0.6388091932147056,-0.3401299143159273 l 9.782875100329582 18.759952925314632" fill="#ffd213" stroke="none" /></svg>