<?xml version="1.0" encoding="utf-8" ?>
<svg baseProfile="full" height="200mm" version="1.1" viewBox="0,0,200,200" width="200mm" xmlns="http://www.w3.org/2000/svg" xmlns:ev="http://www.w3.org/2001/xml-events" xmlns:xlink="http://www.w3.org/1999/xlink"><defs /><rect fill="#1a1a1a" height="200" width="200" x="0" y="0" /><rect fill="#1a1a1a" height="200" width="180" x="10" y="0" /><text alignment-baseline="middle" fill="#e1ed5e" style="dominant-baseline: central; font-size:9.0px; font-family:Arial;" text-anchor="middle" x="100.0" y="100.0">2022</text><line stroke="#e1ed5e" stroke-width="0.3" x1="100.0" x2="100.0" y1="15.0" y2="10.0" /><path d="M 100.0 14.0 a86.0,86.0 0 0,1 42.46469731375804,11.215312516191453" fill="none" id="id97" stroke="none" /><text fill="#e1ed5e" style="font-size:6.75px; font-family:Arial;" text-anchor="middle"><textPath startOffset="22.20632615414155" xlink:href="#id97">January</textPath></text><line stroke="#e1ed5e" stroke-width="0.3" x1="143.23703022742887" x2="145.7803849466894" y1="26.81831364943548" y2="22.513508569990506" /><path d="M 143.74570117128098 25.957352633546492 a86.0,86.0 0 0,1 28.547481713284135,27.462654790039103" fill="none" id="id98" stroke="none" /><text fill="#e1ed5e" style="font-size:6.75px; font-family:Arial;" text-anchor="middle"><textPath startOffset="19.985693538727396" xlink:href="#id98">February</textPath></text><path d="M 113.89432698308785 84.25364557470407 l 16.643660504893333 -18.86215702015291 a46.15536528168593,46.15536528168593 0 0,0 0.5912041011555728,0.5307888793401099 l -16.965875593644896 18.572869132043504" fill="#f6ff19" stroke="none" /><path d="M 115.68641384162765 86.03803664274999 l 20.230231342887 -18.006266541847847 a48.08298164831186,48.08298164831186 0 0,0 0.5449590883683443,0.6229824437088001 l -20.537182294833194 17.6553685419361" fill="#dcff1b" stroke="none" /><path d="M 117.2510076193507 88.02491185347247 l 20.236882964388766 -14.047785651528109 a45.63476636434061,45.63476636434061 0 0,0 0.4423867593668168,0.6491479817118568 l -20.475694189424317 13.697359646545847" fill="#fdff18" stroke="none" /><line stroke="#e1ed5e" stroke-width="0.3" x1="172.23445277983987" x2="176.4835382374775" y1="55.19839476539836" y2="52.563006222186495" /><path d="M 173.08426987136738 54.67131705675599 a86.0,86.0 0 0,1 12.851231095245387,41.99856678651699" fill="none" id="id99" stroke="none" /><text fill="#e1ed5e" style="font-size:6.75px; font-family:Arial;" text-anchor="middle"><textPath startOffset="22.20632615414155" xlink:href="#id99">March</textPath></text><path d="M 117.84615892207809 88.93136811851018 l 21.237161900624553 -13.171816317000593 a45.990273921710866,45.990273921710866 0 0,0 0.41146885249421616,0.6763466050503932 l -21.460746551404995 12.804301938743118" fill="#f8ff18" stroke="none" /><path d="M 118.21658344932153 89.55222093294921 l 11.656591223828201 -6.68541881743561 a34.437668835179366,34.437668835179366 0 0,0 0.2904938040882735,0.5167560633033169 l -11.769942669208907 6.483779244197499" fill="#ff6008" stroke="none" /><path d="M 118.3937258080291 89.86733742301442 l 9.549605499010154 -5.260648727434965 a31.902723981656514,31.902723981656514 0 0,0 0.2608304438342511,0.48327919914574086 l -9.63874404206287 5.0954885449567655" fill="#ff3805" stroke="none" /><path d="M 120.45610955862082 95.25157060432595 l 25.953062839464977 -6.024424445984446 a47.64310718843793,47.64310718843793 0 0,0 0.1785609503044589,0.800453727931045 l -26.052918176771474 5.5767925485034375" fill="#e2ff1b" stroke="none" /><line stroke="#e1ed5e" stroke-width="0.3" x1="184.98032266829074" x2="189.97916517819016" y1="98.17113171792111" y2="98.06355123074" /><path d="M 185.9800911702706 98.14961562048488 a86.0,86.0 0 0,1 -9.607161424134198,41.387399972396054" fill="none" id="id100" stroke="none" /><text fill="#e1ed5e" style="font-size:6.75px; font-family:Arial;" text-anchor="middle"><textPath startOffset="21.466115282336823" xlink:href="#id100">April</textPath></text><path d="M 120.99824983174949 100.27111621757518 l 25.484457582467144 0.3290393152798339 a46.486581668469526,46.486581668469526 0 0,0 -0.01721760562883988,0.8000344782899734 l -25.475017914153295 -0.7676636093599222" fill="#f1ff19" stroke="none" /><path d="M 120.9904718944345 100.63252640178507 l 26.2848236202906 0.7920662760567037 a47.29675496587845,47.29675496587845 0 0,0 -0.03152636631340772,0.8135554302894565 l -26.267295121125986 -1.2443989533601665" fill="#e7ff1a" stroke="none" /><path d="M 119.54520255179757 107.68017299344265 l 24.004732912188462 9.432519358057926 a46.79146416211459,46.79146416211459 0 0,0 -0.30101926111288535,0.7471051196722552 l -23.838811036818182 -9.844323845572994" fill="#edff19" stroke="none" /><line stroke="#e1ed5e" stroke-width="0.3" x1="174.80103733775053" x2="179.2010983576182" y1="140.37084112569926" y2="142.7455964860345" /><path d="M 175.68104954172406 140.8457921977663 a86.0,86.0 0 0,1 -30.038265399797805,32.042727171017184" fill="none" id="id101" stroke="none" /><text fill="#e1ed5e" style="font-size:6.75px; font-family:Arial;" text-anchor="middle"><textPath startOffset="22.206326154141568" xlink:href="#id101">May</textPath></text><path d="M 114.55890576462653 115.13401014063108 l 8.540152740018646 8.877504962221037 a33.3184537656764,33.3184537656764 0 0,0 -0.41674113608332597,0.39405475583697336 l -8.386075769544513 -9.023194354803932" fill="#ff4f07" stroke="none" /><line stroke="#e1ed5e" stroke-width="0.3" x1="143.8653032363475" x2="146.44561519142675" y1="172.8068346515853" y2="177.08958963109032" /><path d="M 144.38136562736335 173.6633856474863 a86.0,86.0 0 0,1 -40.68145358897372,12.25698825130547" fill="none" id="id102" stroke="none" /><text fill="#e1ed5e" style="font-size:6.75px; font-family:Arial;" text-anchor="middle"><textPath startOffset="21.466115282336833" xlink:href="#id102">June</textPath></text><line stroke="#e1ed5e" stroke-width="0.3" x1="102.19456741930631" x2="102.32365962044197" y1="184.97166512339345" y2="189.96999836594603" /><path d="M 102.22038585953345 185.97133177190398 a86.0,86.0 0 0,1 -42.740103519485714,-10.115201625700543" fill="none" id="id103" stroke="none" /><text fill="#e1ed5e" style="font-size:6.75px; font-family:Arial;" text-anchor="middle"><textPath startOffset="22.20632615414155" xlink:href="#id103">July</textPath></text><line stroke="#e1ed5e" stroke-width="0.3" x1="58.666819895761336" x2="56.23545636021788" y1="174.27360380694188" y2="178.64263932499728" /><path d="M 58.180547188652646 175.14741091055294 a86.0,86.0 0 0,1 -31.652253787137756,-30.449443065178592" fill="none" id="id104" stroke="none" /><text fill="#e1ed5e" style="font-size:6.75px; font-family:Arial;" text-anchor="middle"><textPath startOffset="22.20632615414155" xlink:href="#id104">August</textPath></text><path d="M 83.95833913139862 113.55231037782056 l -18.85890103028664 15.932370235260292 a45.68802481737967,45.68802481737967 0 0,0 -0.5023594136807784,-0.6051242756029174 l 19.130356443860954 -15.605384702543613" fill="#fcff18" stroke="none" /><path d="M 82.85270091963577 112.12312394758628 l -8.054461606905486 5.694496604623058 a30.864159536279715,30.864159536279715 0 0,0 -0.30296713561961314,-0.43644675521677634 l 8.151289649687232 -5.555008587219269" fill="#ff2803" stroke="none" /><line stroke="#e1ed5e" stroke-width="0.3" x1="26.63291911575756" x2="22.317208475507996" y1="142.92168965132927" y2="145.44649492493687" /><path d="M 25.769776987707644 143.4266507060508 a86.0,86.0 0 0,1 -11.730757126820373,-40.83630448921669" fill="none" id="id105" stroke="none" /><text fill="#e1ed5e" style="font-size:6.75px; font-family:Arial;" text-anchor="middle"><textPath startOffset="21.46611528233685" xlink:href="#id105">September</textPath></text><path d="M 80.32549172779594 107.34259656027581 l -23.46948200099775 8.758894272109604 a46.05064498700885,46.05064498700885 0 0,0 -0.2707684486169989,-0.7450384801726412 l 23.616774710619975 -8.353607994930845" fill="#f7ff18" stroke="none" /><path d="M 79.58551787078972 104.9243191809786 l -24.1206185980656 5.818302128250874 a45.81243400412295,45.81243400412295 0 0,0 -0.17831821089718097,-0.768190185523888 l 24.217197374893335 -5.402243285378412" fill="#faff18" stroke="none" /><path d="M 79.18660465613746 102.79330883721812 l -29.52231944341876 3.962109710311889 a50.78700486245317,50.78700486245317 0 0,0 -0.10882564612777992,-0.8674474741467144 l 29.586146598793384 -3.453344481877766" fill="#b9ff1f" stroke="none" /><line stroke="#e1ed5e" stroke-width="0.3" x1="15.007084014347285" x2="10.007500721073583" y1="101.09737516637583" y2="101.16192664675087" /><path d="M 14.007167355692545 101.11028546245083 a86.0,86.0 0 0,1 10.666146001902534,-42.60595125391555" fill="none" id="id106" stroke="none" /><text fill="#e1ed5e" style="font-size:6.75px; font-family:Arial;" text-anchor="middle"><textPath startOffset="22.20632615414155" xlink:href="#id106">October</textPath></text><path d="M 79.00175016825051 100.2711162175752 l -39.37068792997702 0.508329602725743 a60.37396940955592,60.37396940955592 0 0,0 -0.004472568945424205,-1.0392675097512243 l 39.37360479621194 0.16944738522915662" fill="#47ff2c" stroke="none" /><path d="M 79.01574976396665 99.18683210126434 l -29.51954993105404 -1.1439222330582999 a50.541705878423436,50.541705878423436 0 0,0 0.041170772443027984,-0.8690499354773941 l 29.495485550377516 1.651883275158703" fill="#bdff1f" stroke="none" /><path d="M 79.03285615573316 98.82574320788736 l -49.596936377716 -2.777657264245671 a70.6746562940583,70.6746562940583 0 0,0 0.07848053408303189,-1.2140591259578744 l 49.541775252628554 3.630975454456557" fill="#3bff98" stroke="none" /><path d="M 79.08570108090925 98.10471618934814 l -36.90082426455677 -3.344005701500419 a58.052033757074234,58.052033757074234 0 0,0 0.09875169075214196,-0.9944160492758107 l 36.83779544812239 3.9786972814806605" fill="#62ff29" stroke="none" /><path d="M 79.32604984820605 96.31383870115002 l -29.77230248598347 -5.308395753869246 a51.2418428802974,51.2418428802974 0 0,0 0.16230067070036155,-0.8670166726946692 l 29.676516091373244 5.820090504026488" fill="#b4ff20" stroke="none" /><path d="M 80.38941819471856 92.48833698450439 l -22.999782760988975 -8.80986700168303 a45.62932730790732,45.62932730790732 0 0,0 0.28726149450784944,-0.7310491704134445 l 22.844727716599433 9.204465176992239" fill="#fdff18" stroke="none" /><path d="M 81.26839172434947 90.50648371742162 l -46.41520215531574 -23.52406002390385 a73.0360681751327,73.0360681751327 0 0,0 0.5779955033229457,-1.116503340146257 l 46.003397218832674 24.319536086310443" fill="#3effb4" stroke="none" /><line stroke="#e1ed5e" stroke-width="0.3" x1="26.266209847984243" x2="21.928928074336255" y1="57.711370442889674" y2="55.22380399835377" /><path d="M 25.398753493254645 57.213857153982495 a86.0,86.0 0 0,1 29.58750427330803,-30.492523968695096" fill="none" id="id107" stroke="none" /><text fill="#e1ed5e" style="font-size:6.75px; font-family:Arial;" text-anchor="middle"><textPath startOffset="21.46611528233685" xlink:href="#id107">November</textPath></text><path d="M 81.78341655067845 89.55222093294921 l -10.672569973482615 -6.121051923418675 a33.30329331878543,33.30329331878543 0 0,0 0.2894854287438735,-0.4948244358037209 l 10.565624870268417 6.303855771576289" fill="#ff4e07" stroke="none" /><path d="M 82.15384107792192 88.93136811851018 l -10.76923130807085 -6.679345259454357 a33.67241082279646,33.67241082279646 0 0,0 0.3097419304206216,-0.4899373492399412 l 10.652661781404266 6.863730256408514" fill="#ff5407" stroke="none" /><path d="M 82.54541684631803 88.32363383020206 l -25.778880594508905 -17.24496349289722 a52.015148727312365,52.015148727312365 0 0,0 0.504238652165836,-0.7399080022717175 l 25.47821747667433 17.686149518439354" fill="#aaff21" stroke="none" /><path d="M 82.7489923806493 88.02491185347247 l -14.166693490829957 -9.834057641202968 a38.24540211632151,38.24540211632151 0 0,0 0.38006346534296886,-0.5375728185187014 l 13.99531740568311 10.076456960053456" fill="#ff990e" stroke="none" /><path d="M 82.95767976084542 87.72973835380427 l -23.4779620386023 -16.903844845682354 a49.93016889084736,49.93016889084736 0 0,0 0.5081878026420367,-0.6931675916908047 l 23.18351162344663 17.305474881044656" fill="#c4ff1e" stroke="none" /><path d="M 83.39014120810768 87.1503855733568 l -22.622942518524166 -17.50141841669623 a49.60239806017535,49.60239806017535 0 0,0 0.5282559009005592,-0.6708313489170662 l 22.318332537029637 17.888242159566342" fill="#c9ff1d" stroke="none" /><path d="M 83.84228863543731 86.58626213691792 l -5.675980462932865 -4.712060534311775 a28.37700946824756,28.37700946824756 0 0,0 0.31524072047226387,-0.3731455809974478 l 5.594029128973477 4.8090650649383395" fill="#ff0000" stroke="none" /><path d="M 84.07557802195018 86.31012108654704 l -22.64790216628521 -19.469908466853095 a50.86644954194027,50.86644954194027 0 0,0 0.5765061362804218,-0.6590461729309465 l 22.309404166426944 19.856870195986982" fill="#b8ff1f" stroke="none" /><path d="M 84.31358615837235 86.03803664274999 l -30.1362402990804 -26.823280772081347 a61.344533343959085,61.344533343959085 0 0,0 0.7088400537787023,-0.7827188917030294 l 29.67005660468565 27.338052451053933" fill="#3dff2e" stroke="none" /><path d="M 84.5562425177563 85.77008943001954 l -18.13548705648524 -16.71007585126432 a45.66014042399091,45.66014042399091 0 0,0 0.5375561331537293,-0.5734274028309161 l 17.84516360136105 17.01977267097329" fill="#fdff18" stroke="none" /><path d="M 84.80347519578584 85.50635884689758 l -18.016207832480138 -17.182905606896956 a45.896505573245605,45.896505573245605 0 0,0 0.5501805059016626,-0.567009373563486 l 17.717763062875356 17.490479176010567" fill="#f9ff18" stroke="none" /><path d="M 85.31137513191541 84.99185889309783 l -26.90783697222759 -27.49315322485813 a59.469535541380075,59.469535541380075 0 0,0 0.7377528811007521,-0.7097176870980743 l 26.43060084751441 27.95225399871852" fill="#52ff2b" stroke="none" /><path d="M 85.57189188830299 84.74124197986013 l -10.573941397958802 -11.182700591201458 a36.39029009472935,36.39029009472935 0 0,0 0.45885056778583194,-0.42645159541552735 l 10.379882946378112 11.363056772691634" fill="#ff7d0b" stroke="none" /><path d="M 85.83668400450813 84.49514656593479 l -16.638978638959593 -18.21500877137289 a45.67067398124634,45.67067398124634 0 0,0 0.5849956900019914,-0.5252149065069571 l 16.32297196136163 18.498722686649128" fill="#fcff18" stroke="none" /><path d="M 86.10567301691215 84.25364557470407 l -16.344466268128244 -18.523082050933926 a45.70316065315555,45.70316065315555 0 0,0 0.5943722188485504,-0.5154337311443566 l 16.023200250632918 18.801680775497964" fill="#fcff18" stroke="none" /><path d="M 86.37877921826538 84.01681056812374 l -20.860730422142527 -24.478056069064607 a53.16123913448568,53.16123913448568 0 0,0 0.7015827024779568,-0.5875553368868998 l 20.43629018270546 24.83351256334532" fill="#9cff22" stroke="none" /><path d="M 86.65592168130627 83.78471172551755 l -12.5329929123575 -15.229683771506542 a40.723569127348455,40.723569127348455 0 0,0 0.5451074704772039,-0.44077233144232586 l 12.268982043315795 15.443162200213003" fill="#ffbd11" stroke="none" /><path d="M 86.93701828274178 83.55741782278169 l -16.49259368231938 -20.75948912787162 a47.513431223066945,47.513431223066945 0 0,0 0.644751480535512,-0.5032387574364866 l 16.13280964662444 21.040306274531332" fill="#e4ff1a" stroke="none" /><path d="M 87.22198572758235 83.33499621200491 l -7.5088671297847736 -9.793016073829987 a33.340431491445294,33.340431491445294 0 0,0 0.4584370394528442,-0.3452852737193304 l 7.33918393657354 9.920817937055173" fill="#ff4f07" stroke="none" /><path d="M 88.39885842347998 82.49532879139004 l -17.934779458619186 -27.061338364964023 a53.46494029460677,53.46494029460677 0 0,0 0.7715066606542952,-0.5018093929434867 l 17.466305772180604 27.366046682067044" fill="#98ff23" stroke="none" /><path d="M 88.70189139769569 82.29822771554957 l -17.510583365830122 -27.43542040714589 a53.54723986344347,53.54723986344347 0 0,0 0.7812308922613652,-0.4892067130638093 l 17.035733321196513 27.732771461532632" fill="#97ff23" stroke="none" /><line stroke="#e1ed5e" stroke-width="0.3" x1="56.762969772571076" x2="54.21961505331055" y1="26.818313649435495" y2="22.513508569990535" /><path d="M 56.25429882871897 25.957352633546506 a86.0,86.0 0 0,1 42.265352541879196,-11.944610805530505" fill="none" id="id108" stroke="none" /><text fill="#e1ed5e" style="font-size:6.75px; font-family:Arial;" text-anchor="middle"><textPath startOffset="22.20632615414155" xlink:href="#id108">December</textPath></text><path d="M 89.3179101791058 81.91981866633112 l -12.534344939174314 -21.215252183683248 a45.64136214318278,45.64136214318278 0 0,0 0.6798460577676768,-0.3938107176857146 l 12.167302148941317 21.42786705875901" fill="#fdff18" stroke="none" /><path d="M 89.94658935756843 81.56283822128135 l -17.241432003815422 -31.619425730951466 a57.0146506452214,57.0146506452214 0 0,0 0.8656858942231903,-0.46241942409295056 l 16.694601063063928 31.911523881546167" fill="#6eff28" stroke="none" /><path d="M 90.26544431104013 81.39251694778311 l -29.20366706687963 -55.822449156650684 a84.0,84.0 0 0,0 1.286958049644945,-0.6592298987499792 l 28.23844852964592 56.31687158071317" fill="#4dd2ff" stroke="none" /><path d="M 90.58718382345135 81.22770947309562 l -11.436299233493065 -22.8077896919542 a46.51439222851303,46.51439222851303 0 0,0 0.718821751223782,-0.3527227115169182 l 11.042006215258857 23.001267563605946" fill="#f1ff19" stroke="none" /><path d="M 90.91171255644093 81.06846463323043 l -18.11630036929898 -37.737514717304514 a62.86072569974674,62.86072569974674 0 0,0 0.9794951953559904,-0.4598861278163005 l 17.46402696264338 38.04376582776082" fill="#30ff33" stroke="none" /><path d="M 91.56875222667455 80.76684994638697 l -10.00486699646824 -22.82285058900814 a45.919467743617815,45.919467743617815 0 0,0 0.7266564268965822,-0.3111163593456932 l 9.61052681178135 22.991686476316623" fill="#f9ff18" stroke="none" /><path d="M 92.23578459929587 80.48803036053334 l -13.26822921081335 -33.3439081954625 a56.886795902366536,56.886795902366536 0 0,0 0.9129432337297595,-0.35420779126302404 l 12.692302812083916 33.56735869061607" fill="#6fff27" stroke="none" /><path d="M 92.57280143429618 80.3572730644239 l -19.193740067334925 -50.76172283261951 a75.26925614662599,75.26925614662599 0 0,0 1.2158410481374857,-0.44780451893373024 l 18.317116693424868 51.08459061935956" fill="#41ffce" stroke="none" /></svg>