<?xml version="1.0" encoding="utf-8" ?>
<svg baseProfile="full" height="200mm" version="1.1" viewBox="0,0,200,200" width="200mm" xmlns="http://www.w3.org/2000/svg" xmlns:ev="http://www.w3.org/2001/xml-events" xmlns:xlink="http://www.w3.org/1999/xlink"><defs /><rect fill="#1a1a1a" height="200" width="200" x="0" y="0" /><rect fill="#1a1a1a" height="200" width="180" x="10" y="0" /><text alignment-baseline="middle" fill="#e1ed5e" style="dominant-baseline: central; font-size:9.0px; font-family:Arial;" text-anchor="middle" x="100.0" y="100.0">2020</text><line stroke="#e1ed5e" stroke-width="0.3" x1="100.0" x2="100.0" y1="15.0" y2="10.0" /><path d="M 100.0 14.0 a86.0,86.0 0 0,1 42.35913384403234,11.155469271406648" fill="none" id="id73" stroke="none" /><text fill="#e1ed5e" style="font-size:6.75px; font-family:Arial;" text-anchor="middle"><textPath startOffset="22.145653131862478" xlink:href="#id73">January</textPath></text><path d="M 100.36049292484886 79.00309439819443 l 0.36931145482065597 -21.510540762446336 a42.51371085711452,42.51371085711452 0 0,0 0.7295893029690592,0.018791632413056824 l -0.7385140718604565 21.501031412683233" fill="red" stroke="none" /><path d="M 101.44090949804482 79.04949213459386 l 2.881395395817829 -41.89485667582777 a62.99382639525947,62.99382639525947 0 0,0 1.0781873497239305,0.0834585198020023 l -3.6001517403169934 41.839220389030714" fill="red" stroke="none" /><path d="M 106.72888874123014 80.10723608172694 l 16.297388026925784 -48.1803318455309 a71.86206084347805,71.86206084347805 0 0,0 1.165172234578761,0.405307386912041 l -17.122066033549565 47.89346602605027" fill="red" stroke="none" /><line stroke="#e1ed5e" stroke-width="0.3" x1="143.13028292997686" x2="145.6673583964461" y1="26.7553504044142" y2="22.446841604673864" /><path d="M 143.63769802327073 25.89364864446614 a86.0,86.0 0 0,1 29.32050498858742,28.57503671076993" fill="none" id="id74" stroke="none" /><text fill="#e1ed5e" style="font-size:6.75px; font-family:Arial;" text-anchor="middle"><textPath startOffset="20.669276256404974" xlink:href="#id74">February</textPath></text><line stroke="#e1ed5e" stroke-width="0.3" x1="172.87174338648825" x2="177.1583165268699" y1="56.24261187166439" y2="53.66864786411523" /><path d="M 173.72905801456457 55.72781907015455 a86.0,86.0 0 0,1 12.242430191666344,42.057860355516425" fill="none" id="id75" stroke="none" /><text fill="#e1ed5e" style="font-size:6.75px; font-family:Arial;" text-anchor="middle"><textPath startOffset="22.145653131862474" xlink:href="#id75">March</textPath></text><line stroke="#e1ed5e" stroke-width="0.3" x1="184.99686870605535" x2="189.99668451229388" y1="99.2704041080226" y2="99.22748670261217" /><path d="M 185.99683186730306 99.26182062694052 a86.0,86.0 0 0,1 -10.086455211305974,41.156179273409016" fill="none" id="id76" stroke="none" /><text fill="#e1ed5e" style="font-size:6.75px; font-family:Arial;" text-anchor="middle"><textPath startOffset="21.40746469413373" xlink:href="#id76">April</textPath></text><line stroke="#e1ed5e" stroke-width="0.3" x1="174.33088141563837" x2="178.70328620479359" y1="141.23008692659167" y2="143.65538615756765" /><path d="M 175.20536237346943 141.71514677278685 a86.0,86.0 0 0,1 -30.301960400862466,31.631185727798858" fill="none" id="id77" stroke="none" /><text fill="#e1ed5e" style="font-size:6.75px; font-family:Arial;" text-anchor="middle"><textPath startOffset="22.145653131862474" xlink:href="#id77">May</textPath></text><line stroke="#e1ed5e" stroke-width="0.3" x1="143.1302829299769" x2="145.66735839644613" y1="173.24464959558577" y2="177.55315839532614" /><path d="M 143.63769802327073 174.10635135553383 a86.0,86.0 0 0,1 -40.68552437913181,11.842963189579606" fill="none" id="id78" stroke="none" /><text fill="#e1ed5e" style="font-size:6.75px; font-family:Arial;" text-anchor="middle"><textPath startOffset="21.407464694133747" xlink:href="#id78">June</textPath></text><line stroke="#e1ed5e" stroke-width="0.3" x1="101.45913802915013" x2="101.54496967792366" y1="184.9874750549273" y2="189.98673829345242" /><path d="M 101.47630435890484 185.9873277026323 a86.0,86.0 0 0,1 -42.54439059252881,-10.42667462771756" fill="none" id="id79" stroke="none" /><text fill="#e1ed5e" style="font-size:6.75px; font-family:Arial;" text-anchor="middle"><textPath startOffset="22.145653131862474" xlink:href="#id79">July</textPath></text><line stroke="#e1ed5e" stroke-width="0.3" x1="58.13341422392154" x2="55.67067388415222" y1="173.97424548756322" y2="178.32567169271397" /><path d="M 57.64086615596768 174.84453072859336 a86.0,86.0 0 0,1 -31.369924170532247,-30.572349798747897" fill="none" id="id80" stroke="none" /><text fill="#e1ed5e" style="font-size:6.75px; font-family:Arial;" text-anchor="middle"><textPath startOffset="22.145653131862474" xlink:href="#id80">August</textPath></text><path d="M 84.83555147118756 114.52719865689866 l -42.9520082911474 41.1470523291836 a80.480710584385,80.480710584385 0 0,0 -0.9471589579853215,-1.0058499906003668 l 43.65202308286897 -40.403660878638746" fill="red" stroke="none" /><path d="M 84.58840730492382 114.26474011684316 l -41.13993090798416 38.07850586492392 a77.05770708848834,77.05770708848834 0 0,0 -0.8902084241676307,-0.9784949997229955 l 41.78753703299367 -37.36667328964325" fill="red" stroke="none" /><path d="M 84.3458050057657 113.99807769240083 l -41.657792809771614 37.25065520519551 a76.88365606327326,76.88365606327326 0 0,0 -0.8713075954986624,-0.9913880999482471 l 42.291111469228866 -36.530054827435954" fill="red" stroke="none" /><path d="M 84.1078160697243 113.72728997021213 l -42.30208786171286 36.539535973835704 a76.8981603153745,76.8981603153745 0 0,0 -0.8543218503751672,-1.0063889915802078 l 42.92310427559514 -35.80798019980594" fill="red" stroke="none" /><path d="M 83.8745106332314 113.45245675266167 l -42.95026271796917 35.83063673835783 a76.93352837626757,76.93352837626757 0 0,0 -0.8373048865519561,-1.021375817723213 l 43.559014423759756 -35.08805863893612" fill="red" stroke="none" /><path d="M 83.64595745247003 113.17365903436017 l -26.821855472401076 21.6057881490388 a55.44157389730494,55.44157389730494 0 0,0 -0.5906733913758886,-0.7462965342261211 l 27.188795294418526 -21.142171670897998" fill="red" stroke="none" /><path d="M 83.4222238831116 112.89097897827486 l -22.134537973396526 17.211950607669184 a49.03906230630005,49.03906230630005 0 0,0 -0.5110524675301565,-0.6689840850015667 l 22.426742418280977 -16.82944560942675" fill="red" stroke="none" /><path d="M 82.98947788004972 112.3143062007846 l -45.23461568666952 32.74637336305884 a76.84349044206976,76.84349044206976 0 0,0 -0.764354520457412,-1.0751603557624123 l 45.790085305656895 -31.96503578058692" fill="red" stroke="none" /><line stroke="#e1ed5e" stroke-width="0.3" x1="26.387840678322732" x2="22.057713659400548" y1="142.50000000000003" y2="145.00000000000006" /><path d="M 25.521815274538298 143.00000000000003 a86.0,86.0 0 0,1 -11.493303480769221,-40.785679425670985" fill="none" id="id81" stroke="none" /><text fill="#e1ed5e" style="font-size:6.75px; font-family:Arial;" text-anchor="middle"><textPath startOffset="21.40746469413373" xlink:href="#id81">September</textPath></text><path d="M 79.73907114497094 105.5222062557868 l -47.04540445709461 12.822434186402237 a69.76151042570599,69.76151042570599 0 0,0 -0.30499240438238695,-1.1581058370857664 l 47.25858634228173 -12.01294784494367" fill="red" stroke="none" /><path d="M 79.56144815229197 104.8234425847677 l -27.727031041644114 6.543503829036681 a49.48869412143902,49.48869412143902 0 0,0 -0.18803144126599042,-0.8285012243472144 l 27.835273344467772 -6.066568270750441" fill="red" stroke="none" /><line stroke="#e1ed5e" stroke-width="0.3" x1="15.003131293944662" x2="10.003315487706104" y1="100.72959589197737" y2="100.7725132973878" /><path d="M 14.003168132696942 100.73817937305945 a86.0,86.0 0 0,1 10.791469493833604,-42.45332614584628" fill="none" id="id82" stroke="none" /><text fill="#e1ed5e" style="font-size:6.75px; font-family:Arial;" text-anchor="middle"><textPath startOffset="22.145653131862435" xlink:href="#id82">October</textPath></text><path d="M 79.17382384314186 97.30363454192245 l -52.98617644589042 -6.860121361129172 a74.42842089604046,74.42842089604046 0 0,0 0.17492622358840693,-1.2656790144848808 l 52.860605705746806 7.76868868381412" fill="red" stroke="none" /><path d="M 79.22317932658666 96.9465228501225 l -40.47933347202433 -5.949068037982498 a61.9141521830759,61.9141521830759 0 0,0 0.1635668942210132,-1.050216795871731 l 40.37124508566505 6.643073015785679" fill="red" stroke="none" /><path d="M 79.2786578344484 96.59031103205396 l -53.901500389661734 -8.86947137719234 a75.62636054843429,75.62636054843429 0 0,0 0.221783962703496,-1.2791909600791946 l 53.74130160946601 9.793455370192127" fill="red" stroke="none" /><path d="M 79.48165901384962 95.52812308129327 l -26.307576967272684 -5.7336139557508945 a47.92513574492351,47.92513574492351 0 0,0 0.18209072813426455,-0.8023253461536894 l 26.205275377580758 6.184373635843592" fill="red" stroke="none" /><path d="M 79.56144815229197 95.17655741523228 l -33.13374834358349 -7.819474390566439 a55.043934247390474,55.043934247390474 0 0,0 0.2249264832401343,-0.9177768079703585 l 32.99463433382706 8.387107023144916" fill="red" stroke="none" /><path d="M 79.64726062577567 94.8264132398404 l -33.71976974356004 -8.571433608679078 a55.79213051347532,55.79213051347532 0 0,0 0.2439192604501276,-0.9262011618845496 l 33.56766100230519 9.149015274936412" fill="red" stroke="none" /><path d="M 79.73907114497095 94.47779374421319 l -60.39860316820409 -16.461907874152274 a83.6018024942355,83.6018024942355 0 0,0 0.3892719196747293,-1.3813887149011919 l 60.10711275645478 17.496304512956478" fill="red" stroke="none" /><path d="M 79.83685265289637 94.1308016681162 l -60.48944204131091 -17.607594995651397 a84.0,84.0 0 0,0 0.41489471998548133,-1.3810495856371061 l 60.1782710013218 18.643382184879226" fill="red" stroke="none" /><path d="M 79.94057633289273 93.78553927170692 l -28.902860641513808 -8.95418010870086 a51.258101306622365,51.258101306622365 0 0,0 0.2676045954985566,-0.8382675839465646 l 28.744891330237994 9.449016726338817" fill="red" stroke="none" /><path d="M 80.05021161711548 93.44210830539832 l -48.79254518630929 -16.03907874583229 a72.36111868693129,72.36111868693129 0 0,0 0.3980363866510919,-1.1767238507030233 l 48.51002337808583 16.874304271009475" fill="red" stroke="none" /><path d="M 80.9802524753101 91.09779779509293 l -50.6019287846378 -23.68425771237979 a76.87037909404211,76.87037909404211 0 0,0 0.5696488302627734,-1.1903469639476087 l 50.18790069641512 24.549417178392485" fill="red" stroke="none" /><path d="M 81.1358732173502 90.77261029715801 l -45.36985822062079 -22.19267116829411 a71.50681823816726,71.50681823816726 0 0,0 0.5488321509323736,-1.0980319499474502 l 44.98220615647668 22.968234974405327" fill="red" stroke="none" /><path d="M 81.29705330413844 90.45014215332179 l -45.20379484740208 -23.08137973887377 a71.75562194728883,71.75562194728883 0 0,0 0.5695753897284647,-1.0922359111345255 l 44.80091138869867 23.853961893112782" fill="red" stroke="none" /><line stroke="#e1ed5e" stroke-width="0.3" x1="26.387840678322718" x2="22.05771365940052" y1="57.49999999999999" y2="54.99999999999999" /><path d="M 25.521815274538284 56.99999999999999 a86.0,86.0 0 0,1 29.574782752854787,-30.34633250058573" fill="none" id="id83" stroke="none" /><text fill="#e1ed5e" style="font-size:6.75px; font-family:Arial;" text-anchor="middle"><textPath startOffset="21.40746469413373" xlink:href="#id83">November</textPath></text><path d="M 82.37810715431573 88.57770195909679 l -46.93602902965859 -30.423366952009623 a76.93363994743758,76.93363994743758 0 0,0 0.7278492420203704,-1.1020565204193833 l 46.40685534871749 31.224603350768067" fill="red" stroke="none" /><path d="M 83.8745106332314 86.54754324733833 l -12.190285326542808 -10.169569581923655 a36.87523863833586,36.87523863833586 0 0,0 0.4096758879188697,-0.48259716585306056 l 12.013914875116825 10.377333530226272" fill="red" stroke="none" /><path d="M 84.10781606972428 86.27271002978789 l -12.252187025808231 -10.583147338996499 a37.19009248010314,37.19009248010314 0 0,0 0.42146812098196645,-0.4795533538416297 l 12.068707840867674 10.791912970649427" fill="red" stroke="none" /><line stroke="#e1ed5e" stroke-width="0.3" x1="56.869717070023135" x2="54.33264160355391" y1="26.7553504044142" y2="22.446841604673864" /><path d="M 56.362301976729285 25.89364864446614 a86.0,86.0 0 0,1 42.16139366436587,-11.88097634709845" fill="none" id="id84" stroke="none" /><text fill="#e1ed5e" style="font-size:6.75px; font-family:Arial;" text-anchor="middle"><textPath startOffset="22.145653131862474" xlink:href="#id84">December</textPath></text><path d="M 97.84075906011542 79.11130261209362 l -1.9044547765097266 -18.423872380629778 a39.52204150447524,39.52204150447524 0 0,0 0.6754513310415096,-0.06396594331373247 l 1.5879038820832014 18.453850079448692" fill="red" stroke="none" /></svg>