<?xml version="1.0" encoding="utf-8" ?>
<svg baseProfile="full" height="200mm" version="1.1" viewBox="0,0,200,200" width="200mm" xmlns="http://www.w3.org/2000/svg" xmlns:ev="http://www.w3.org/2001/xml-events" xmlns:xlink="http://www.w3.org/1999/xlink"><defs /><rect fill="#1a1a1a" height="200" width="200" x="0" y="0" /><rect fill="#1a1a1a" height="200" width="180" x="10" y="0" /><text alignment-baseline="middle" fill="#e1ed5e" style="dominant-baseline: central; font-size:9.0px; font-family:Arial;" text-anchor="middle" x="100.0" y="100.0">2026</text><line stroke="#e1ed5e" stroke-width="0.3" x1="100.0" x2="100.0" y1="15.0" y2="10.0" /><path d="M 100.0 14.0 a86.0,86.0 0 0,1 42.46469731375804,11.215312516191453" fill="none" id="id145" stroke="none" /><text fill="#e1ed5e" style="font-size:6.75px; font-family:Arial;" text-anchor="middle"><textPath startOffset="22.20632615414155" xlink:href="#id145">January</textPath></text><path d="M 100.0 79.0 l 0.0 -21.304240485513688 a42.30424048551369,42.30424048551369 0 0,0 0.728197958379228,0.006267829728070304 l -0.36671747910669955 21.301084032394176" fill="#ffb911" stroke="none" /><path d="M 101.08401301168833 79.027996857942 l 1.158872427587475 -22.420280873525765 a43.450211129323655,43.450211129323655 0 0,0 0.7465945314948305,0.045036621000995314 l -1.5446290079219176 22.397010983144465" fill="#ffca12" stroke="none" /><path d="M 102.52436894288641 79.15227682838746 l 2.3393179839275553 -19.319463534332904 a40.460577583523715,40.460577583523715 0 0,0 0.6906914828456597,0.08967157745165408 l -2.6715241952810613 19.276333633717115" fill="#ff9d0e" stroke="none" /><path d="M 102.88285421437855 79.19881850522331 l 3.8272469140181067 -27.61542962760464 a48.87937898264675,48.87937898264675 0 0,0 0.8324181972180044,0.12267680396056617 l -4.302034091664767 27.545458339483105" fill="#e6ff1a" stroke="none" /><path d="M 103.2404852339499 79.25152402106235 l 4.443403649016531 -28.45063230359674 a49.79552594523246,49.79552594523246 0 0,0 0.8457433223627762,0.13955489479827662 l -4.932476177518183 28.369931145858843" fill="#daff1c" stroke="none" /><path d="M 103.59715602781102 79.31037775812273 l 4.045841486537242 -23.27030892177028 a44.61940114924185,44.61940114924185 0 0,0 0.7555655591493922,0.13807477648103741 l -4.4458021667895355 23.197218663938504" fill="#ffdb14" stroke="none" /><path d="M 103.95276090670814 79.375362276772 l 1.9689725489374026 -10.273666044383734 a31.460643712984034,31.460643712984034 0 0,0 0.5309861386508781,0.1065108241551244 l -2.145525097055406 10.238251264151403" fill="#ff0c01" stroke="none" /><path d="M 105.36241919743992 79.69619591428918 l 4.753873397299288 -17.999658466297774 a39.61684767034728,39.61684767034728 0 0,0 0.6578323049977529,0.17981041871517095 l -5.063003591520752 17.91516150675631" fill="#ff900d" stroke="none" /><path d="M 105.71112130821622 79.79150937346287 l 6.450661158663068 -22.82531197022063 a44.719314828252976,44.719314828252976 0 0,0 0.7389542715290277,0.215721015319649 l -6.842605647915523 22.710892625982275" fill="#ffdd14" stroke="none" /><path d="M 106.0581310904928 79.89281104454417 l 12.9041927617137 -42.82955226647246 a65.73129484128489,65.73129484128489 0 0,0 1.0805430690417168,0.3357299913654042 l -13.639521203466135 42.601082140224534" fill="#33ff4f" stroke="none" /><path d="M 106.40334571778207 80.00007090966166 l 6.7978541322571076 -21.23211936442142 a43.29380437494875,43.29380437494875 0 0,0 0.7077860348760135,0.23334592761188735 l -7.1623229893755385 21.111959712550295" fill="#ffc812" stroke="none" /><path d="M 106.74666289553966 80.11325718540242 l 4.764915922410976 -14.045263406419023 a35.83151536099191,35.83151536099191 0 0,0 0.5823781435423706,0.20318029898732662 l -5.0059760700166205 13.961162254259488" fill="#ff5407" stroke="none" /><path d="M 107.08798089147638 80.2323363322302 l 15.50362663234376 -43.23805066509061 a66.93355488172085,66.93355488172085 0 0,0 1.0811926102262361,0.39821236290610595 l -16.245601568342572 42.964775034378185" fill="#34ff5f" stroke="none" /><path d="M 108.09893153111575 80.62456947434976 l 10.774400575368135 -25.776072930303148 a48.93731632542396,48.93731632542396 0 0,0 0.7744126221472165,0.33156306985788303 l -11.216496955305667 25.586790332482476" fill="#e6ff1a" stroke="none" /><path d="M 109.08828744355905 81.06846463323043 l 11.587011764266785 -24.13655205919503 a47.77371821267059,47.77371821267059 0 0,0 0.738283059131364,0.36227229078763756 l -12.00076609040858 23.93352460827256" fill="#f6ff19" stroke="none" /><path d="M 109.41281617654863 81.2277094730956 l 9.698626955184933 -19.342292412806398 a42.63764406302931,42.63764406302931 0 0,0 0.6532483243430115,0.3346191640310626 l -10.0301357671167 19.172480723462833" fill="#ffbe11" stroke="none" /><path d="M 109.73455568895987 81.39251694778311 l 12.529979150774423 -23.950900497398894 a48.03046451978109,48.03046451978109 0 0,0 0.7292738823656382,0.3895528516057824 l -12.940398079668372 23.73166891929136" fill="#f2ff19" stroke="none" /><path d="M 110.36928655335952 81.73862282372117 l 10.366241977322309 -18.256015365601566 a41.99383408911959,41.99383408911959 0 0,0 0.625514691399309,0.36233848343811836 l -10.678953401186945 18.0748727247734" fill="#ffb410" stroke="none" /><line stroke="#e1ed5e" stroke-width="0.3" x1="143.23703022742887" x2="145.7803849466894" y1="26.81831364943548" y2="22.513508569990506" /><path d="M 143.74570117128098 25.957352633546492 a86.0,86.0 0 0,1 28.547481713284135,27.462654790039103" fill="none" id="id146" stroke="none" /><text fill="#e1ed5e" style="font-size:6.75px; font-family:Arial;" text-anchor="middle"><textPath startOffset="19.985693538727396" xlink:href="#id146">February</textPath></text><path d="M 110.68208982089419 81.91981866633111 l 31.526735195259878 -53.36119605303452 a82.9786437112206,82.9786437112206 0 0,0 1.223492180324056,0.7371403488978006 l -32.44058944180157 52.8106090946781" fill="#4cddff" stroke="none" /><path d="M 110.99172775467656 82.1063720568725 l 26.220363534545964 -42.68459336805317 a71.09473001104803,71.09473001104803 0 0,0 1.0372411258404757,0.6495202978446222 l -26.951223812758702 42.2269287288856" fill="#3aff96" stroke="none" /><path d="M 111.2981086023043 82.29822771554956 l 7.500307421849802 -11.751412445962863 a34.94095785437235,34.94095785437235 0 0,0 0.5042029705026938,0.32794763733301807 l -7.7014774181367756 11.620565884470317" fill="#ff4606" stroke="none" /><path d="M 111.90073688211348 82.69761687909136 l 13.255250412137233 -19.271699161678328 a44.39016998798208,44.39016998798208 0 0,0 0.625835573429994,0.43843781370442525 l -13.585017125150877 19.040676505209966" fill="#ffd814" stroke="none" /><path d="M 112.48926042617603 83.11751280151076 l 23.727204081227175 -32.07349398509642 a60.895980122365955,60.895980122365955 0 0,0 0.8373308800469632,0.6306602591617274 l -24.275781115032522 31.66031713642884" fill="#4dff2c" stroke="none" /><path d="M 112.77801427241765 83.33499621200491 l 14.079995184211162 -18.363038894574373 a44.1397377217431,44.1397377217431 0 0,0 0.5989708702141924,0.46750626492069136 l -14.393998609584784 18.117954240430457" fill="#ffd413" stroke="none" /><path d="M 113.06298171725822 83.55741782278167 l 16.044420394963517 -20.19536630610829 a46.79294954145833,46.79294954145833 0 0,0 0.6263494803451042,0.5064643867524151 l -16.38967327387311 19.916195822091748" fill="#fffa17" stroke="none" /><path d="M 113.34407831869373 83.78471172551755 l 8.85575819187469 -10.761228204812776 a34.93658801963428,34.93658801963428 0 0,0 0.4610672406669541,0.3861305544745749 l -9.039682969500763 10.607196492944382" fill="#ff4606" stroke="none" /><path d="M 113.6212207817346 84.01681056812373 l 28.010553034017217 -32.867683624558445 a64.18420669776809,64.18420669776809 0 0,0 0.8347192799094457,0.7238603340770994 l -28.572166112573427 32.38065829706167" fill="#30ff39" stroke="none" /><path d="M 113.89432698308785 84.25364557470407 l 15.44016931198493 -17.498247930182266 a44.33639880120515,44.33639880120515 0 0,0 0.5679049584326907,0.5098706789567037 l -15.739085258013612 17.229878242456262" fill="#ffd714" stroke="none" /><path d="M 114.42810811169701 84.74124197986012 l 19.094876378523733 -20.19419980975654 a48.7924451941076,48.7924451941076 0 0,0 0.6052975980089411,0.582295809707943 l -19.439657220145094 19.862520913286296" fill="#e8ff1a" stroke="none" /><path d="M 114.68862486808459 84.99185889309783 l 19.46194648398134 -19.885295027257317 a48.82431165844751,48.82431165844751 0 0,0 0.5955733680174987,0.5930157867026384 l -19.80135565216616 19.54734338990456" fill="#e7ff1a" stroke="none" /><path d="M 114.94478906791727 85.2469230424477 l 15.917385845132321 -15.713197240127869 a43.3666658143314,43.3666658143314 0 0,0 0.5198542642624726,0.5357555158024011 l -16.185504373097903 15.436877528775355" fill="#ffc912" stroke="none" /><path d="M 115.19652480421416 85.50635884689758 l 13.727251874810182 -13.092326387449976 a39.96961924420199,39.96961924420199 0 0,0 0.4705617145507134,0.5019624281159769 l -13.950580911331357 12.854094542455945" fill="#ff950d" stroke="none" /><path d="M 115.4437574822437 85.77008943001954 l 17.94495828244413 -16.534522238827066 a45.40106459613857,45.40106459613857 0 0,0 0.524612240335961,0.579289938739547 l -18.226914163396128 16.223179512817968" fill="#ffe615" stroke="none" /><path d="M 116.15771136456269 86.58626213691792 l 30.198167157512813 -25.0697817937766 a60.24822618744264,60.24822618744264 0 0,0 0.6555624063596303,0.8036419956254504 l -30.625228055948853 24.54625562854305" fill="#55ff2b" stroke="none" /><path d="M 116.38621287248628 86.86637796730983 l 36.14625710646609 -28.97138481154954 a67.32378482708029,67.32378482708029 0 0,0 0.7169852264545954,0.910498426607611 l -36.63959641351465 28.34489399098889" fill="#35ff64" stroke="none" /><path d="M 116.60985879189232 87.15038557335679 l 23.15048524624924 -17.90953270169881 a50.26937527057971,50.26937527057971 0 0,0 0.5235772305513688,0.6889662623724918 l -23.455338417024723 17.508381663445284" fill="#d3ff1c" stroke="none" /><path d="M 116.82858285166822 87.43820079747576 l 17.195368351073824 -12.835588495095257 a42.457703156315056,42.457703156315056 0 0,0 0.43213326434774946,0.5894292869292 l -17.4137642279352 12.537696764494564" fill="#ffbb11" stroke="none" /><path d="M 117.2510076193507 88.02491185347247 l 10.843789067202916 -7.5274055166752065 a34.20036344751393,34.20036344751393 0 0,0 0.33154082205481755,0.48649524637675706 l -10.971754354926468 7.339632247028043" fill="#ff3a05" stroke="none" /><path d="M 117.45458315368197 88.32363383020206 l 9.936842898597622 -6.647320949128879 a32.95523829089733,32.95523829089733 0 0,0 0.31135381711882754,0.474213224229545 l -10.049793351074374 6.47528966092166" fill="#ff2503" stroke="none" /><line stroke="#e1ed5e" stroke-width="0.3" x1="172.23445277983987" x2="176.4835382374775" y1="55.19839476539836" y2="52.563006222186495" /><path d="M 173.08426987136738 54.67131705675599 a86.0,86.0 0 0,1 12.851231095245387,41.99856678651699" fill="none" id="id147" stroke="none" /><text fill="#e1ed5e" style="font-size:6.75px; font-family:Arial;" text-anchor="middle"><textPath startOffset="22.20632615414155" xlink:href="#id147">March</textPath></text><path d="M 117.84615892207809 88.93136811851018 l 41.83374398696109 -25.94632909176412 a70.22676232807443,70.22676232807443 0 0,0 0.628309484712064,1.032775590011251 l -42.27416926995937 25.222385728545788" fill="#39ff8b" stroke="none" /><path d="M 118.03404312379186 89.2402003453031 l 8.371795196471883 -4.994933107670823 a30.748656910660863,30.748656910660863 0 0,0 0.267279516289155,0.45686733326632667 l -8.456534387231365 4.850086362050601" fill="#ff0000" stroke="none" /><path d="M 118.21658344932153 89.55222093294921 l 17.6907123328792 -10.14617557166333 a41.39377801133723,41.39377801133723 0 0,0 0.34917102251169996,0.621136287498614 l -17.862740996683335 9.84015577422992" fill="#ffab0f" stroke="none" /><path d="M 118.3937258080291 89.86733742301442 l 55.1811774240873 -30.397987730956764 a84.0,84.0 0 0,0 0.6867676031261407,1.272476066670165 l -55.696253126431905 29.44363068095414" fill="#4dd2ff" stroke="none" /><path d="M 118.56541770881063 90.18545643968196 l 12.286983196927482 -6.495470972027278 a34.898240868182825,34.898240868182825 0 0,0 0.27617897293324273,0.5334898697055006 l -12.396971603020841 6.283008380061433" fill="#ff4506" stroke="none" /><path d="M 118.89224826269711 90.83032412892265 l 29.201287513469627 -14.173344421127535 a53.45918798313082,53.45918798313082 0 0,0 0.39468614574560407,0.8313096804566407 l -29.440931853056984 13.668592325030355" fill="#a9ff21" stroke="none" /><path d="M 119.04729006885535 91.15688171328212 l 21.852910975765976 -10.145688755157769 a45.0932504745891,45.0932504745891 0 0,0 0.32080129245214595,0.7068431240955685 l -22.024314585181468 9.768023622220136" fill="#ffe215" stroke="none" /><path d="M 119.196687751892 91.48605970444005 l 16.458922227732025 -7.299711439144694 a39.00505229076859,39.00505229076859 0 0,0 0.26692325605978445,0.6160956766805824 l -16.58213619363449 7.015316617877509" fill="#ff870c" stroke="none" /><path d="M 119.34039704204932 91.81776055985345 l 19.03779273560086 -8.054218237396798 a41.6714291634447,41.6714291634447 0 0,0 0.2737977857625437,0.6630230556695577 l -19.1736122082496 7.725320611273937" fill="#ffaf10" stroke="none" /><path d="M 119.47837535516314 92.15188598940014 l 14.426657842060834 -5.8127052935344565 a36.55364906770687,36.55364906770687 0 0,0 0.23012515152912458,0.5856434096914409 l -14.524576543471658 5.563512878947232" fill="#ff6008" stroke="none" /><path d="M 119.61058180528143 92.48833698450437 l 20.652132272748762 -7.910619874753094 a43.115344768145704,43.115344768145704 0 0,0 0.25950389256495593,0.6953414148559207 l -20.78524075381534 7.553955322867839" fill="#ffc512" stroke="none" /><path d="M 119.7369772167798 92.82701384747503 l 15.249505734824535 -5.542109729738703 a37.22536302869402,37.22536302869402 0 0,0 0.21368584899264195,0.6041186703480891 l -15.342644664626986 5.278793432964" fill="#ff6b09" stroke="none" /><path d="M 119.97218684219823 93.5106431181261 l 37.19569935483777 -12.0856153355444 a60.1098727757356,60.1098727757356 0 0,0 0.3112675731310496,0.986803268360189 l -37.398222411737024 11.443561900757791" fill="#56ff2a" stroke="none" /><path d="M 120.08093135843002 93.85539295169968 l 11.598397387552856 -3.5490183729265605 a33.12923548171785,33.12923548171785 0 0,0 0.16216619241515942,0.5467437836913132 l -11.657769477079718 3.3488452024887176" fill="#ff2803" stroke="none" /><path d="M 120.18372546131832 94.20196356495316 l 20.82137471178853 -5.981209437181265 a42.66343719773326,42.66343719773326 0 0,0 0.1966850063738909,0.7075806158698057 l -20.921246488728784 5.621917517892507" fill="#ffbe11" stroke="none" /><path d="M 120.37134235888165 94.90015583598534 l 19.453846207447235 -4.870154469984315 a41.0541900066923,41.0541900066923 0 0,0 0.16571660592512177,0.6870023176482143 l -19.53479561363318 4.534566920676694" fill="#ffa60f" stroke="none" /><path d="M 120.45610955862082 95.25157060432595 l 18.054723158430715 -4.191001125144033 a39.53476513901735,39.53476513901735 0 0,0 0.14817180595223026,0.664225152512399 l -18.12418935138498 3.87959780308167" fill="#ff8f0d" stroke="none" /><path d="M 120.53481517161879 95.60439243477599 l 57.7491534167428 -12.361572944408744 a80.057372156323,80.057372156323 0 0,0 0.2768487015803476,1.3500125897209252 l -57.953381414238144 11.365684698524408" fill="#47fdff" stroke="none" /><path d="M 120.6074358757038 95.95851677861258 l 37.41014055426774 -7.33679125689163 a59.12279006365181,59.12279006365181 0 0,0 0.1872623610244364,1.00036302053305 l -37.53088863920204 6.691750158896017" fill="#62ff29" stroke="none" /><path d="M 120.73433829027371 96.67025291283417 l 19.0315703455881 -3.0562979650110176 a40.275415094622446,40.275415094622446 0 0,0 0.10403351943662523,0.6854509096950188 l -19.081359758464025 2.7282479429239164" fill="#ff9a0e" stroke="none" /><path d="M 120.78858239683441 97.02765380044208 l 17.762729653119024 -2.539710547375402 a38.94337466571558,38.94337466571558 0 0,0 0.08916920305320505,0.6644141352775965 l -17.803814855230065 2.2335780700331407" fill="#ff860c" stroke="none" /><path d="M 120.91429891909075 98.10471618934814 l 32.326869437384275 -2.9295073447479725 a53.459336113121935,53.459336113121935 0 0,0 0.07516259492414526,0.9171740379461889 l -32.37250651612791 2.3726193895940146" fill="#a9ff21" stroke="none" /><path d="M 120.94382443527127 98.46500227214037 l 52.204948496525546 -3.8261625794686425 a73.34497270616741,73.34497270616741 0 0,0 0.08144578172881425,1.2599301945884962 l -52.26307486925877 2.926973320627111" fill="#3effb2" stroke="none" /><path d="M 120.98425023603335 99.18683210126433 l 12.421486659889178 -0.4813493021089973 a33.430809627391355,33.430809627391355 0 0,0 0.017333565229438082,0.5752166435299162 l -12.42793191957426 0.26746251115408204" fill="#ff2d04" stroke="none" /><line stroke="#e1ed5e" stroke-width="0.3" x1="184.98032266829074" x2="189.97916517819016" y1="98.17113171792111" y2="98.06355123074" /><path d="M 185.9800911702706 98.14961562048488 a86.0,86.0 0 0,1 -9.607161424134198,41.387399972396054" fill="none" id="id148" stroke="none" /><text fill="#e1ed5e" style="font-size:6.75px; font-family:Arial;" text-anchor="middle"><textPath startOffset="21.466115282336823" xlink:href="#id148">April</textPath></text><path d="M 120.99513854157772 99.54816195383933 l 30.200471019994467 -0.6499467384691394 a51.20746398810023,51.20746398810023 0 0,0 0.011380231902490524,0.8814115023034671 l -30.207184259014674 0.12999897810520958" fill="#c7ff1e" stroke="none" /><path d="M 120.99980553446 99.90962569577887 l 11.857844111447054 -0.0510311588065003 a32.85795391922859,32.85795391922859 0 0,0 -0.0024341527606442383,0.565611376543868 l -11.856965661396908 -0.15308969594105235" fill="#ff2403" stroke="none" /><path d="M 120.99824983174949 100.27111621757518 l 20.684684775658038 0.2670676624502373 a41.686408808796806,41.686408808796806 0 0,0 -0.01543972736199879,0.717423461268373 l -20.677022985611032 -0.6230809395087251" fill="#ffb010" stroke="none" /><path d="M 120.9764740272857 100.99374915477107 l 31.448388757390934 1.4898504727685624 a52.48365941035446,52.48365941035446 0 0,0 -0.05051839406949171,0.9020398624483545 l -31.418084012433912 -2.0309620515523403" fill="#b6ff1f" stroke="none" /><line stroke="#e1ed5e" stroke-width="0.3" x1="174.80103733775053" x2="179.2010983576182" y1="140.37084112569926" y2="142.7455964860345" /><path d="M 175.68104954172406 140.8457921977663 a86.0,86.0 0 0,1 -30.038265399797805,32.042727171017184" fill="none" id="id149" stroke="none" /><text fill="#e1ed5e" style="font-size:6.75px; font-family:Arial;" text-anchor="middle"><textPath startOffset="22.206326154141568" xlink:href="#id149">May</textPath></text><line stroke="#e1ed5e" stroke-width="0.3" x1="143.8653032363475" x2="146.44561519142675" y1="172.8068346515853" y2="177.08958963109032" /><path d="M 144.38136562736335 173.6633856474863 a86.0,86.0 0 0,1 -40.68145358897372,12.25698825130547" fill="none" id="id150" stroke="none" /><text fill="#e1ed5e" style="font-size:6.75px; font-family:Arial;" text-anchor="middle"><textPath startOffset="21.466115282336833" xlink:href="#id150">June</textPath></text><line stroke="#e1ed5e" stroke-width="0.3" x1="102.19456741930631" x2="102.32365962044197" y1="184.97166512339345" y2="189.96999836594603" /><path d="M 102.22038585953345 185.97133177190398 a86.0,86.0 0 0,1 -42.740103519485714,-10.115201625700543" fill="none" id="id151" stroke="none" /><text fill="#e1ed5e" style="font-size:6.75px; font-family:Arial;" text-anchor="middle"><textPath startOffset="22.20632615414155" xlink:href="#id151">July</textPath></text><line stroke="#e1ed5e" stroke-width="0.3" x1="58.666819895761336" x2="56.23545636021788" y1="174.27360380694188" y2="178.64263932499728" /><path d="M 58.180547188652646 175.14741091055294 a86.0,86.0 0 0,1 -31.652253787137756,-30.449443065178592" fill="none" id="id152" stroke="none" /><text fill="#e1ed5e" style="font-size:6.75px; font-family:Arial;" text-anchor="middle"><textPath startOffset="22.20632615414155" xlink:href="#id152">August</textPath></text><line stroke="#e1ed5e" stroke-width="0.3" x1="26.63291911575756" x2="22.317208475507996" y1="142.92168965132927" y2="145.44649492493687" /><path d="M 25.769776987707644 143.4266507060508 a86.0,86.0 0 0,1 -11.730757126820373,-40.83630448921669" fill="none" id="id153" stroke="none" /><text fill="#e1ed5e" style="font-size:6.75px; font-family:Arial;" text-anchor="middle"><textPath startOffset="21.46611528233685" xlink:href="#id153">September</textPath></text><line stroke="#e1ed5e" stroke-width="0.3" x1="15.007084014347285" x2="10.007500721073583" y1="101.09737516637583" y2="101.16192664675087" /><path d="M 14.007167355692545 101.11028546245083 a86.0,86.0 0 0,1 10.666146001902534,-42.60595125391555" fill="none" id="id154" stroke="none" /><text fill="#e1ed5e" style="font-size:6.75px; font-family:Arial;" text-anchor="middle"><textPath startOffset="22.20632615414155" xlink:href="#id154">October</textPath></text><line stroke="#e1ed5e" stroke-width="0.3" x1="26.266209847984243" x2="21.928928074336255" y1="57.711370442889674" y2="55.22380399835377" /><path d="M 25.398753493254645 57.213857153982495 a86.0,86.0 0 0,1 29.58750427330803,-30.492523968695096" fill="none" id="id155" stroke="none" /><text fill="#e1ed5e" style="font-size:6.75px; font-family:Arial;" text-anchor="middle"><textPath startOffset="21.46611528233685" xlink:href="#id155">November</textPath></text><line stroke="#e1ed5e" stroke-width="0.3" x1="56.762969772571076" x2="54.21961505331055" y1="26.818313649435495" y2="22.513508569990535" /><path d="M 56.25429882871897 25.957352633546506 a86.0,86.0 0 0,1 42.265352541879196,-11.944610805530505" fill="none" id="id156" stroke="none" /><text fill="#e1ed5e" style="font-size:6.75px; font-family:Arial;" text-anchor="middle"><textPath startOffset="22.20632615414155" xlink:href="#id156">December</textPath></text></svg>