<?xml version="1.0" encoding="utf-8" ?>
<svg baseProfile="full" height="200mm" version="1.1" viewBox="0,0,200,200" width="200mm" xmlns="http://www.w3.org/2000/svg" xmlns:ev="http://www.w3.org/2001/xml-events" xmlns:xlink="http://www.w3.org/1999/xlink"><defs /><rect fill="#1a1a1a" height="200" width="200" x="0" y="0" /><rect fill="#1a1a1a" height="200" width="180" x="10" y="0" /><text alignment-baseline="middle" fill="#e1ed5e" style="dominant-baseline: central; font-size:9.0px; font-family:Arial;" text-anchor="middle" x="100.0" y="100.0">2022</text><line stroke="#e1ed5e" stroke-width="0.3" x1="100.0" x2="100.0" y1="15.0" y2="10.0" /><path d="M 100.0 14.0 a86.0,86.0 0 0,1 42.46469731375804,11.215312516191453" fill="none" id="id97" stroke="none" /><text fill="#e1ed5e" style="font-size:6.75px; font-family:Arial;" text-anchor="middle"><textPath startOffset="22.20632615414155" xlink:href="#id97">January</textPath></text><line stroke="#e1ed5e" stroke-width="0.3" x1="143.23703022742887" x2="145.7803849466894" y1="26.81831364943548" y2="22.513508569990506" /><path d="M 143.74570117128098 25.957352633546492 a86.0,86.0 0 0,1 28.547481713284135,27.462654790039103" fill="none" id="id98" stroke="none" /><text fill="#e1ed5e" style="font-size:6.75px; font-family:Arial;" text-anchor="middle"><textPath startOffset="19.985693538727396" xlink:href="#id98">February</textPath></text><path d="M 113.89432698308785 84.25364557470407 l 11.904474853341389 -13.491267372352963 a38.99252113646537,38.99252113646537 0 0,0 0.4994552262685859,0.4484158335733575 l -12.134941067205965 13.284352530010308" fill="#ffbc11" stroke="none" /><path d="M 115.68641384162765 86.03803664274999 l 14.469790478354902 -12.879086736176124 a40.37125993954544,40.37125993954544 0 0,0 0.457556587772642,0.5230662764779732 l -14.689338929705393 12.628104903495203" fill="#ffce13" stroke="none" /><path d="M 115.9244219780498 86.31012108654704 l 6.11155534111925 -5.253971083416084 a29.059486387663647,29.059486387663647 0 0,0 0.32282236913131046,0.3821198616346723 l -6.201088323737678 5.147992272152305" fill="#ff2b04" stroke="none" /><path d="M 116.38621287248628 86.86637796730983 l 10.537110039618426 -8.445540263277158 a34.50399342141661,34.50399342141661 0 0,0 0.3674608253291683,0.46663793193698305 l -10.680924945541559 8.262909937387137" fill="#ff7c0b" stroke="none" /><path d="M 116.60985879189232 87.15038557335679 l 28.39915468218097 -21.96997531892024 a56.905317185291736,56.905317185291736 0 0,0 0.5926934284572157,0.779915077106934 l -28.7731240508623 21.477875465932275" fill="#64ff29" stroke="none" /><path d="M 117.2510076193507 88.02491185347247 l 14.474548089270986 -10.047760285940662 a38.620159736856664,38.620159736856664 0 0,0 0.3743866502090221,0.5493662122955467 l -14.645359205148742 9.797116050374708" fill="#ffb610" stroke="none" /><line stroke="#e1ed5e" stroke-width="0.3" x1="172.23445277983987" x2="176.4835382374775" y1="55.19839476539836" y2="52.563006222186495" /><path d="M 173.08426987136738 54.67131705675599 a86.0,86.0 0 0,1 12.851231095245387,41.99856678651699" fill="none" id="id99" stroke="none" /><text fill="#e1ed5e" style="font-size:6.75px; font-family:Arial;" text-anchor="middle"><textPath startOffset="22.20632615414155" xlink:href="#id99">March</textPath></text><path d="M 117.84615892207809 88.93136811851018 l 22.66942773182671 -14.060143228759745 a47.67565521785271,47.67565521785271 0 0,0 0.4265477343708323,0.701132322130518 l -22.908091264483765 13.667843133422148" fill="#d0ff1d" stroke="none" /><path d="M 118.21658344932153 89.55222093294921 l 8.337444581914225 -4.781784642435999 a30.611370689091522,30.611370689091522 0 0,0 0.25821763843511203,0.4593403660776881 l -8.41851986164177 4.637560766423516" fill="#ff4306" stroke="none" /><path d="M 118.3937258080291 89.86733742301442 l 6.5127889918635224 -3.5877393182001707 a28.435609851780693,28.435609851780693 0 0,0 0.2324839954921131,0.4307575354471583 l -6.573581086574101 3.4751007994205536" fill="#ff2203" stroke="none" /><path d="M 119.97218684219823 93.5106431181261 l 33.84983331771856 -10.998477559127627 a56.59182103034296,56.59182103034296 0 0,0 0.29305000955337623,0.9290486134207909 l -34.034138811040144 10.414178779280418" fill="#67ff28" stroke="none" /><path d="M 120.45610955862082 95.25157060432595 l 18.563078948213604 -4.3090045787698905 a40.056637177043356,40.056637177043356 0 0,0 0.1501277230312461,0.6729931452608288 l -18.634501058246887 3.9888332639590973" fill="#ffca12" stroke="none" /><path d="M 120.67395015179393 96.31383870115 l 17.339047387572936 -3.0915487833587223 a38.61250232614283,38.61250232614283 0 0,0 0.11103510178675352,0.6553354560821464 l -17.38969435087991 2.7926275389607382" fill="#ffb610" stroke="none" /><line stroke="#e1ed5e" stroke-width="0.3" x1="184.98032266829074" x2="189.97916517819016" y1="98.17113171792111" y2="98.06355123074" /><path d="M 185.9800911702706 98.14961562048488 a86.0,86.0 0 0,1 -9.607161424134198,41.387399972396054" fill="none" id="id100" stroke="none" /><text fill="#e1ed5e" style="font-size:6.75px; font-family:Arial;" text-anchor="middle"><textPath startOffset="21.466115282336823" xlink:href="#id100">April</textPath></text><path d="M 120.99824983174949 100.27111621757518 l 18.22790631618148 0.2353472815284726 a39.22942558103276,39.22942558103276 0 0,0 -0.014529714908211323,0.6751387583661442 l -18.22115453858826 -0.5490758556847317" fill="#ffbf11" stroke="none" /><path d="M 120.9904718944345 100.63252640178507 l 18.800372773781746 0.5665300047861807 a39.80890673801848,39.80890673801848 0 0,0 -0.026535227993220223,0.6847563278699864 l -18.78783541293732 -0.8900635796701732" fill="#ffc712" stroke="none" /><path d="M 120.02730092923936 106.31721596034902 l 7.465451986003106 2.3548291706319953 a28.828038948432557,28.828038948432557 0 0,0 -0.15334834945454093,0.4719576905692417 l -7.423811385532318 -2.482985761179032" fill="#ff2803" stroke="none" /><path d="M 119.54520255179757 107.68017299344265 l 27.06161268480539 10.633702380420331 a50.07587500691556,50.07587500691556 0 0,0 -0.32214856200989866,0.7995463116972877 l -26.874561508538097 -11.097948059960432" fill="#b3ff20" stroke="none" /><path d="M 119.26925614724726 108.34839909993367 l 9.448761859539387 4.093673071803293 a31.297439482565245,31.297439482565245 0 0,0 -0.21842470386920926,0.49249004478729147 l -9.376896070938903 -4.255711453083272" fill="#ff4d07" stroke="none" /><path d="M 119.12269723197855 108.67885076344098 l 9.525137761790194 4.322991057848807 a31.46023427401711,31.46023427401711 0 0,0 -0.2280498198414726,0.4911990236741408 l -9.449313325108891 -4.4863101488017785" fill="#ff4f07" stroke="none" /><line stroke="#e1ed5e" stroke-width="0.3" x1="174.80103733775053" x2="179.2010983576182" y1="140.37084112569926" y2="142.7455964860345" /><path d="M 175.68104954172406 140.8457921977663 a86.0,86.0 0 0,1 -30.038265399797805,32.042727171017184" fill="none" id="id101" stroke="none" /><text fill="#e1ed5e" style="font-size:6.75px; font-family:Arial;" text-anchor="middle"><textPath startOffset="22.206326154141568" xlink:href="#id101">May</textPath></text><path d="M 115.80600337817218 113.82643327865902 l 7.311059269355539 6.395410070812956 a30.713539911581428,30.713539911581428 0 0,0 -0.3515108339867216,0.39492614832484807 l -7.199889585720479 -6.520310388878671" fill="#ff4406" stroke="none" /><path d="M 114.55890576462653 115.13401014063108 l 6.108393854065703 6.34968699055731 a29.810845609499715,29.810845609499715 0 0,0 -0.3728686137201761,0.35257054755784045 l -5.99818940595472 -6.453892174861072" fill="#ff3705" stroke="none" /><line stroke="#e1ed5e" stroke-width="0.3" x1="143.8653032363475" x2="146.44561519142675" y1="172.8068346515853" y2="177.08958963109032" /><path d="M 144.38136562736335 173.6633856474863 a86.0,86.0 0 0,1 -40.68145358897372,12.25698825130547" fill="none" id="id102" stroke="none" /><text fill="#e1ed5e" style="font-size:6.75px; font-family:Arial;" text-anchor="middle"><textPath startOffset="21.466115282336833" xlink:href="#id102">June</textPath></text><line stroke="#e1ed5e" stroke-width="0.3" x1="102.19456741930631" x2="102.32365962044197" y1="184.97166512339345" y2="189.96999836594603" /><path d="M 102.22038585953345 185.97133177190398 a86.0,86.0 0 0,1 -42.740103519485714,-10.115201625700543" fill="none" id="id103" stroke="none" /><text fill="#e1ed5e" style="font-size:6.75px; font-family:Arial;" text-anchor="middle"><textPath startOffset="22.20632615414155" xlink:href="#id103">July</textPath></text><path d="M 92.7421414339146 119.70592522655815 l -2.6282619849790607 7.136035192779652 a28.60465379450477,28.60465379450477 0 0,0 -0.46057548917925867,-0.174150240129589 l 2.7507076949186025 -7.08973670254343" fill="#ff2403" stroke="none" /><line stroke="#e1ed5e" stroke-width="0.3" x1="58.666819895761336" x2="56.23545636021788" y1="174.27360380694188" y2="178.64263932499728" /><path d="M 58.180547188652646 175.14741091055294 a86.0,86.0 0 0,1 -31.652253787137756,-30.449443065178592" fill="none" id="id104" stroke="none" /><text fill="#e1ed5e" style="font-size:6.75px; font-family:Arial;" text-anchor="middle"><textPath startOffset="22.20632615414155" xlink:href="#id104">August</textPath></text><path d="M 83.95833913139862 113.55231037782056 l -13.488938506688203 11.39572035634937 a38.65825315475263,38.65825315475263 0 0,0 -0.42506406145527137,-0.5120170445067083 l 13.68309856803701 -11.1618420547289" fill="#ffb711" stroke="none" /><path d="M 82.85270091963577 112.12312394758628 l -5.761000449896196 4.073021773800449 a28.05539740578493,28.05539740578493 0 0,0 -0.27539591287782517,-0.39672835249826927 l 5.830257269936155 -3.973252159115167" fill="#ff1c02" stroke="none" /><line stroke="#e1ed5e" stroke-width="0.3" x1="26.63291911575756" x2="22.317208475507996" y1="142.92168965132927" y2="145.44649492493687" /><path d="M 25.769776987707644 143.4266507060508 a86.0,86.0 0 0,1 -11.730757126820373,-40.83630448921669" fill="none" id="id105" stroke="none" /><text fill="#e1ed5e" style="font-size:6.75px; font-family:Arial;" text-anchor="middle"><textPath startOffset="21.46611528233685" xlink:href="#id105">September</textPath></text><path d="M 80.32549172779594 107.34259656027581 l -16.786683327245424 6.2648500054869976 a38.91761933741394,38.91761933741394 0 0,0 -0.22882770512402642,-0.6296355669125582 l 16.892035293374676 -5.974966641568322" fill="#ffba11" stroke="none" /><path d="M 79.58551787078972 104.9243191809786 l -17.252412560523492 4.161574393718331 a38.74723754822031,38.74723754822031 0 0,0 -0.15081796518789864,-0.649719846756598 l 17.321491091641946 -3.863985889613159" fill="#ffb811" stroke="none" /><path d="M 79.18660465613746 102.79330883721812 l -21.116010466757743 2.8339219848133936 a42.30532825018735,42.30532825018735 0 0,0 -0.09065123438452906,-0.7225795305897873 l 21.16166321038912 -2.470024699936198" fill="#ffe815" stroke="none" /><path d="M 79.1416061653843 102.43462659150553 l -62.5751815038471 7.303879774516597 a84.0,84.0 0 0,0 -0.15527079399579247,-1.4376147124608716 l 62.69163459934394 -6.225668740170943" fill="#4dd2ff" stroke="none" /><path d="M 79.10278846688536 102.07522291339032 l -6.050557300602698 0.6008579244697106 a27.080318568403687,27.080318568403687 0 0,0 -0.042071729820932546,-0.4642580327932941 l 6.0600036267007065 -0.49661850312785044" fill="#ff0d01" stroke="none" /><line stroke="#e1ed5e" stroke-width="0.3" x1="15.007084014347285" x2="10.007500721073583" y1="101.09737516637583" y2="101.16192664675087" /><path d="M 14.007167355692545 101.11028546245083 a86.0,86.0 0 0,1 10.666146001902534,-42.60595125391555" fill="none" id="id106" stroke="none" /><text fill="#e1ed5e" style="font-size:6.75px; font-family:Arial;" text-anchor="middle"><textPath startOffset="22.20632615414155" xlink:href="#id106">October</textPath></text><path d="M 79.00175016825051 100.2711162175752 l -28.160113232504703 0.36358570105887933 a49.16246032983448,49.16246032983448 0 0,0 -0.0036420082280868614,-0.8462744494010941 l 28.162199538022293 0.12119822654589009" fill="#beff1f" stroke="none" /><path d="M 79.01574976396665 99.18683210126434 l -21.11402955695175 -0.818197021840054 a42.129876727003875,42.129876727003875 0 0,0 0.03431857982697759,-0.7244109793077559 l 21.096817368891273 1.1815191077708191" fill="#ffe615" stroke="none" /><path d="M 79.03285615573316 98.82574320788736 l -35.47449683545902 -1.9867354926935614 a56.53008645707072,56.53008645707072 0 0,0 0.06277372412611028,-0.9710817279229447 l 35.4350425203285 2.597076284869518" fill="#68ff28" stroke="none" /><path d="M 79.08570108090925 98.10471618934814 l -26.393528899236642 -2.391819502160477 a47.50168236708294,47.50168236708294 0 0,0 0.08080460138485705,-0.8136913085783635 l 26.348447172169557 2.845786341443271" fill="#d3ff1c" stroke="none" /><path d="M 79.32604984820605 96.31383870115002 l -21.294812290016417 -3.7968608975736626 a42.63065378444577,42.63065378444577 0 0,0 0.1350260512248442,-0.7213145648436534 l 21.22630051488171 4.162853539879889" fill="#ffed16" stroke="none" /><path d="M 80.38941819471856 92.48833698450439 l -16.450728217510157 -6.301308546397191 a38.61626942014918,38.61626942014918 0 0,0 0.2431104712785776,-0.6186896320772616 l 16.339824196349888 6.583547183370216" fill="#ffb610" stroke="none" /><path d="M 81.26839172434947 90.50648371742162 l -33.19874295130332 -16.8257205751537 a58.219100021626836,58.219100021626836 0 0,0 0.4607364396905801,-0.8899961520188622 l 32.90419707845263 17.394689449432896" fill="#55ff2b" stroke="none" /><path d="M 81.43458229118936 90.18545643968196 l -18.445337804303048 -9.751063736055901 a41.864173376855256,41.864173376855256 0 0,0 0.34227330960570124,-0.6341804603925747 l 18.274756395478875 10.067125179780948" fill="#ffe315" stroke="none" /><line stroke="#e1ed5e" stroke-width="0.3" x1="26.266209847984243" x2="21.928928074336255" y1="57.711370442889674" y2="55.22380399835377" /><path d="M 25.398753493254645 57.213857153982495 a86.0,86.0 0 0,1 29.58750427330803,-30.492523968695096" fill="none" id="id107" stroke="none" /><text fill="#e1ed5e" style="font-size:6.75px; font-family:Arial;" text-anchor="middle"><textPath startOffset="21.46611528233685" xlink:href="#id107">November</textPath></text><path d="M 81.78341655067845 89.55222093294921 l -7.633617666768456 -4.3781179432800235 a29.8000020117992,29.8000020117992 0 0,0 0.2590334318104189,-0.4427721018846092 l 7.557124560487712 4.508869457518524" fill="#ff3605" stroke="none" /><path d="M 82.15384107792192 88.93136811851018 l -7.702755247804655 -4.777440494810729 a30.064015450617873,30.064015450617873 0 0,0 0.2765494348140177,-0.43743479238535526 l 7.619378216744674 4.9093229349103" fill="#ff3a05" stroke="none" /><path d="M 82.54541684631803 88.32363383020206 l -23.057931550668275 -15.424765491861438 a48.74151397948971,48.74151397948971 0 0,0 0.47250379773757994,-0.6933410192736109 l 22.789003287261956 15.819384534405465" fill="#c3ff1e" stroke="none" /><path d="M 82.7489923806493 88.02491185347247 l -10.132809808695455 -7.03386685047988 a33.334874036222445,33.334874036222445 0 0,0 0.3312651205612848,-0.46855102048908837 l 10.010232068330293 7.207244371300755" fill="#ff6b09" stroke="none" /><path d="M 82.95767976084542 87.72973835380427 l -16.79274872339965 -12.09057321441078 a41.692471344435106,41.692471344435106 0 0,0 0.42434475728617915,-0.5788057720501235 l 16.582141353599837 12.377841430132404" fill="#ffe015" stroke="none" /><path d="M 83.39014120810768 87.1503855733568 l -16.18119104515372 -12.517991182174825 a41.45803135389057,41.45803135389057 0 0,0 0.44151997804308724,-0.5606855350589499 l 15.963316986516661 12.794669111186822" fill="#ffdd14" stroke="none" /><path d="M 83.84228863543731 86.58626213691792 l -4.0597779959027305 -3.3703286678819695 a26.27644887263802,26.27644887263802 0 0,0 0.2919055541540319,-0.3455241043670046 l 4.001161828261575 3.43971172187809" fill="#ff0000" stroke="none" /><path d="M 84.07557802195018 86.31012108654704 l -16.19904357819669 -13.92596512482136 a42.36215151865692,42.36215151865692 0 0,0 0.48012079703755045,-0.5488610682857341 l 15.956930917581296 14.202741749310038" fill="#ffe915" stroke="none" /><path d="M 84.31358615837235 86.03803664274999 l -21.555120924821768 -19.18550737930979 a49.856661821583586,49.856661821583586 0 0,0 0.5760969546982141,-0.6361406462446505 l 21.22168032950751 19.553700812823998" fill="#b6ff1f" stroke="none" /><path d="M 84.5562425177563 85.77008943001954 l -12.971512459867395 -11.951978815616808 a38.6383086804106,38.6383086804106 0 0,0 0.4548882156947663,-0.4852430323395517 l 12.763856922202173 12.17349126483441" fill="#ffb710" stroke="none" /><path d="M 84.80347519578584 85.50635884689758 l -12.886197302046352 -12.290173044836116 a38.8073702263777,38.8073702263777 0 0,0 0.465200091318232,-0.4794295863459275 l 12.672732947025002 12.510166826732167" fill="#ffb911" stroke="none" /><path d="M 85.31137513191541 84.99185889309783 l -19.245986692621848 -19.664637542213722 a48.51555875208095,48.51555875208095 0 0,0 0.6018626666868014,-0.578991408497531 l 18.90464078232262 19.993012037473566" fill="#c6ff1e" stroke="none" /><path d="M 85.57189188830299 84.74124197986013 l -7.563073005226067 -7.9984915542626185 a32.007994387080224,32.007994387080224 0 0,0 0.4035935509160638,-0.37509622036232704 l 7.424271570515147 8.127492360699593" fill="#ff5808" stroke="none" /><path d="M 85.83668400450813 84.49514656593479 l -11.901126121536949 -13.028390828354679 a38.6458428684233,38.6458428684233 0 0,0 0.4950146241284979,-0.44442901712718696 l 11.67510050981248 13.231318854251144" fill="#ffb711" stroke="none" /><path d="M 86.10567301691215 84.25364557470407 l -11.690474437580237 -13.248742031050904 a38.66907914921012,38.66907914921012 0 0,0 0.5028935864889539,-0.4361043626075272 l 11.46068705244451 13.448011387078113" fill="#ffb711" stroke="none" /><path d="M 86.37877921826538 84.01681056812374 l -14.920758607141568 -17.508071787885083 a44.003513104357054,44.003513104357054 0 0,0 0.5807258097235037,-0.48634116486321344 l 14.617175260458954 17.762314110142107" fill="#ffff18" stroke="none" /><path d="M 86.65592168130627 83.78471172551755 l -8.964295980346416 -10.893119781489018 a35.107397385666935,35.107397385666935 0 0,0 0.46993190906459603,-0.37998558888986506 l 8.775460672717319 11.045811467643018" fill="#ff850c" stroke="none" /><path d="M 86.93701828274178 83.55741782278169 l -11.796423431000907 -14.848345183338951 a39.963885689569324,39.963885689569324 0 0,0 0.542305066231303,-0.4232777060939546 l 11.539085809610178 15.049201278656128" fill="#ffc912" stroke="none" /><path d="M 87.22198572758235 83.33499621200491 l -5.370760830967662 -7.004511631020214 a29.82656530551686,29.82656530551686 0 0,0 0.4101207358164074,-0.3088944355223889 l 5.249393941392865 7.095922656048457" fill="#ff3705" stroke="none" /><path d="M 87.51073957382395 83.11751280151077 l -11.804276478301537 -15.956553048943862 a40.84823741242387,40.84823741242387 0 0,0 0.568869445236002,-0.4133078448467733 l 11.527861716711753 16.157380128607304" fill="#ffd513" stroke="none" /><path d="M 88.39885842347998 82.49532879139004 l -12.827955184653296 -19.355779455412613 a44.22073712322773,44.22073712322773 0 0,0 0.6381114996410897,-0.415045469592694 l 12.49287665922792 19.573723849164843" fill="#fcff18" stroke="none" /><path d="M 88.70189139769569 82.29822771554957 l -12.524546465278831 -19.623343808995255 a44.27960236788766,44.27960236788766 0 0,0 0.6460201002901662,-0.404537727535706 l 12.184907212616423 19.83602587785389" fill="#fcff18" stroke="none" /><line stroke="#e1ed5e" stroke-width="0.3" x1="56.762969772571076" x2="54.21961505331055" y1="26.818313649435495" y2="22.513508569990535" /><path d="M 56.25429882871897 25.957352633546506 a86.0,86.0 0 0,1 42.265352541879196,-11.944610805530505" fill="none" id="id108" stroke="none" /><text fill="#e1ed5e" style="font-size:6.75px; font-family:Arial;" text-anchor="middle"><textPath startOffset="22.20632615414155" xlink:href="#id108">December</textPath></text><path d="M 89.3179101791058 81.91981866633112 l -8.965263025380596 -15.174332356376782 a38.62487740598611,38.62487740598611 0 0,0 0.5753327552723279,-0.3332698670135134 l 8.702733537642947 15.326406380780343" fill="#ffb610" stroke="none" /><path d="M 89.94658935756843 81.56283822128135 l -12.332034390191472 -22.615977920274204 a46.759688070533684,46.759688070533684 0 0,0 0.7099789601943322,-0.3792461724073453 l 11.940910383468834 22.824902819183297" fill="#dcff1b" stroke="none" /><path d="M 90.26544431104013 81.39251694778311 l -22.11488143004319 -42.272322904065 a68.70762270717759,68.70762270717759 0 0,0 1.0526646204163097,-0.5392157042929102 l 21.383956322038117 42.646731133670414" fill="#39ff86" stroke="none" /><path d="M 90.58718382345135 81.22770947309562 l -8.179879456227715 -16.313404059662282 a39.24931724564571,39.24931724564571 0 0,0 0.6065491045921543,-0.2976310114095296 l 7.897859084625136 16.45179023120664" fill="#ffbf11" stroke="none" /><path d="M 90.91171255644093 81.06846463323043 l -12.957789070408651 -26.991976605607363 a50.941127211093054,50.941127211093054 0 0,0 0.7937641316394313,-0.37268290301970775 l 12.49124672746961 27.211024491267075" fill="#a8ff21" stroke="none" /><path d="M 91.56875222667455 80.76684994638697 l -7.15603923400531 -16.32417645376361 a38.82379405211566,38.82379405211566 0 0,0 0.6143703498915265,-0.2630413211433615 l 6.8739851263234755 16.444937302869757" fill="#ffb911" stroke="none" /><path d="M 92.23578459929587 80.48803036053334 l -9.490178013548075 -23.849424019932627 a46.668239223043145,46.668239223043145 0 0,0 0.7489515370470459,-0.29058156071400154 l 9.078243311501353 24.00924828453718" fill="#ddff1b" stroke="none" /><path d="M 92.57280143429618 80.3572730644239 l -18.510313944313932 -48.95426439504255 a73.33690595341679,73.33690595341679 0 0,0 1.184627365359707,-0.43630825614356933 l 17.664904253181653 49.265635918992444" fill="#3fffbc" stroke="none" /></svg>